<?xml version="1.0" encoding="utf-8"?>
<!-- Generator: Adobe Illustrator 16.0.0, SVG Export Plug-In . SVG Version: 6.00 Build 0)  -->
<!DOCTYPE svg PUBLIC "-//W3C//DTD SVG 1.1//EN" "http://www.w3.org/Graphics/SVG/1.1/DTD/svg11.dtd">
<svg version="1.1" id="Your_Icon" xmlns="http://www.w3.org/2000/svg" xmlns:xlink="http://www.w3.org/1999/xlink" x="0px" y="0px"
	 width="100px" height="100px" viewBox="0 0 100 100" enable-background="new 0 0 100 100" xml:space="preserve">
<g>
	<path fill="#FFFFFF" d="M30.052,24.285c1.833,1.277,3.394,3.444,4.121,5.418c0.095-0.116,0.177-0.24,0.285-0.349
		c0.34-0.34,0.729-0.594,1.135-0.802c-0.169-1.856-1.868-4.882-4.112-6.448c-0.834-0.581-1.94-1.087-3.139-0.964
		c-0.6,0.286-1.131,0.627-1.508,1.006c-0.273,0.272-0.527,0.621-0.756,1.017C27.357,22.983,28.711,23.35,30.052,24.285z"/>
	<path fill="#FFFFFF" d="M97.587,58.779L62.85,24.045c-1.238-1.237-3.681-2.323-5.428-2.412l-25.428-1.308
		c-0.478-0.024-0.998,0.024-1.524,0.123c0.526,0.195,1.056,0.47,1.582,0.837c2.311,1.611,4.186,4.633,4.506,6.901
		c1.476-0.363,3.095,0.016,4.248,1.168c1.753,1.752,1.753,4.595,0,6.348c-1.753,1.752-4.595,1.752-6.348,0
		c-1.313-1.314-1.643-3.24-0.987-4.86c-0.46-1.848-2.016-4.359-3.99-5.737c-1.016-0.708-2.438-1.304-3.938-0.777
		c-0.364,0.977-0.573,2.055-0.525,2.977l1.339,25.393c0.091,1.747,1.18,4.188,2.416,5.426l34.739,34.735
		c1.238,1.24,3.262,1.24,4.498,0.002l29.578-29.582C98.823,62.043,98.823,60.018,97.587,58.779z M53.943,40.594
		c5.174-5.173,8.769-5.203,12.246-1.725c3.508,3.507,3.508,7.132-1.666,12.304c-5.144,5.146-8.797,5.175-12.306,1.666
		C48.741,49.362,48.801,45.739,53.943,40.594z M72.648,75.492c-5.172,5.172-8.769,5.201-12.274,1.695
		c-3.508-3.508-3.449-7.074,1.724-12.248c5.146-5.144,8.77-5.26,12.276-1.752C77.881,66.693,77.794,70.348,72.648,75.492z
		 M49.18,65.582l-3.039-3.037l31.302-12.014l3.068,3.068L49.18,65.582z"/>
	<path fill="#FFFFFF" d="M64.934,67.949c-3.332,3.334-3.74,5.088-2.074,6.754c1.693,1.695,3.479,1.314,6.811-2.018
		c3.359-3.359,3.74-5.146,2.045-6.838C70.049,64.18,68.294,64.59,64.934,67.949z"/>
	<path fill="#FFFFFF" d="M61.484,48.31c3.361-3.361,3.799-5.085,2.104-6.78c-1.694-1.695-3.42-1.258-6.78,2.104
		c-3.332,3.332-3.771,5.056-2.076,6.753C56.43,52.08,58.152,51.643,61.484,48.31z"/>
	<path fill="#FFFFFF" d="M27.229,20.601c-0.453-0.909-0.228-2.198,0.311-4.28c0.813-3.151,1.928-7.467-3.01-10.552
		C19.488,2.618,12.967,3.49,9.024,7.845c-4.428,4.891-5.653,14.652,4.185,27.383c11.637,15.059,5.479,22.973-0.477,30.624
		c-2.459,3.16-4.781,6.146-5.697,9.502c-1.673,6.133-0.617,12.123,2.826,16.023c1.896,2.148,5.262,4.479,10.936,4.479
		c1.035,0,2.149-0.076,3.345-0.248c6.388-0.912,10.853-4.971,12.251-11.131c1.25-5.514-0.399-11.399-3.838-13.69
		c-0.461-0.308-1.08-0.185-1.387,0.276c-0.307,0.459-0.182,1.08,0.277,1.388c2.74,1.825,4.056,6.916,2.996,11.586
		c-1.203,5.307-5.061,8.803-10.583,9.592c-5.427,0.772-9.749-0.461-12.497-3.573C8.41,86.712,7.492,81.281,8.965,75.88
		c0.811-2.969,3.014-5.801,5.346-8.799c5.822-7.479,13.066-16.787,0.48-33.075C5.708,22.25,6.623,13.478,10.507,9.187
		c3.29-3.636,8.741-4.361,12.964-1.722c3.693,2.309,2.935,5.246,2.131,8.356c-0.539,2.09-1.133,4.389,0.073,6.144
		c0.145-0.192,0.295-0.369,0.452-0.525C26.428,21.138,26.804,20.855,27.229,20.601z"/>
</g>
</svg>
