<?xml version="1.0" encoding="utf-8"?>
<!-- Generator: Adobe Illustrator 16.0.0, SVG Export Plug-In . SVG Version: 6.00 Build 0)  -->
<!DOCTYPE svg PUBLIC "-//W3C//DTD SVG 1.1//EN" "http://www.w3.org/Graphics/SVG/1.1/DTD/svg11.dtd">
<svg version="1.1" id="Layer_1" xmlns="http://www.w3.org/2000/svg" xmlns:xlink="http://www.w3.org/1999/xlink" x="0px" y="0px"
	 width="100px" height="100px" viewBox="0 0 100 100" enable-background="new 0 0 100 100" xml:space="preserve">
<g id="Captions">
</g>
<g id="Your_Icon">
	<path fill="#FFFFFF" d="M59.664,42.758c-0.196-0.375-0.273-0.676-0.273-0.915C59.35,42.334,59.664,42.758,59.664,42.758z"/>
	<path fill="#FFFFFF" d="M88.396,42.835c0,0-7.013-1.421-11.179-1.215l-4.967-4.218c0,0-0.31-0.596-1.914-0.828
		c0,0-3.907-0.854-14.204-1.449c0,0-6.339-0.31-10.17,0.311c0,0-1.861,0.156-3.052,1.242L37.27,41.18c0,0-0.931-0.153-0.982,0.519
		l-8.693,0.983c0,0-0.308,0.012-0.829,0.038l-6.157,1.928c0,0,0.379-0.259,0.827-0.932l5.33-0.996
		c-2.86,0.144-12.228,0.701-13.453,1.928v4.14l-0.518,0.646l0.259,0.491c0,0-0.388,2.459,1.526,3.183l6.442,0.414
		c0,0,0.465,3.881,2.872,4.606c0,0,5.123,1.604,6.467-2.69l11.774,0.699c0,0,0.904,2.922,2.25,3.725c0,0,4.14,0.699,5.718-1.035
		c0,0,1.215-1.139,1.682-3.053l15.652-1.139l5.641-0.621c0,0,0.803,2.432,1.839,2.846c0,0,3.726,0.673,5.044-1.139
		c0,0,1.164-1.552,1.217-3.232l6.08-1.477c0,0,1.526-0.388,2.742-3.646L88.396,42.835z M68.836,37.402c0,0,0.621,0.363,0.775,1.086
		l1.5,3.824h-0.826l-1.863-4.91H68.836z M19.763,46.99l16.577,0.917l-10.556-0.383c-1.192,0.135-4.711-0.393-4.711-0.393
		C20.91,47.087,20.403,47.037,19.763,46.99l-4.02-0.222C15.743,46.769,18.166,46.874,19.763,46.99z M20.97,47.524
		c0,0,0.787,0.204,2.188,0.417l7.97,0.449c0.166-0.006,0.332-0.011,0.502-0.019l4.71,0.311l-5.212-0.292
		c-3.427,0.103-6.193-0.18-7.97-0.449l-7.415-0.417H20.97z M16.882,51.582v-0.674h2.743l0.311,0.674H16.882z M23.093,54.168
		l-0.312-2.188l3.727,0.299l0.258,2.349L23.093,54.168z M20.919,48.683l-5.176-0.579l20.803,1.036l-5.07-0.042
		C28.474,49.305,20.919,48.683,20.919,48.683z M36.028,52.719h-3.363l-0.258-0.879h3.621V52.719z M38.615,50.855
		c-0.206,0.155-0.776,3.313-0.776,3.313c-0.155,1.035-1.138,0-1.138,0c-0.569-0.413-0.673-3.208-0.673-3.208
		c0-0.414,0.673-0.775,0.673-0.775h1.294c0.25,0,0.471,0.149,0.62,0.287c0.002,0,2.227,0.023,2.795,0.074
		C41.41,50.546,39.135,51.012,38.615,50.855z M43.272,52.719h-3.208v-1.137l3.208-0.338V52.719z M48.448,57.791
		c-1.287,0-2.329-1.622-2.329-3.623s1.042-3.622,2.329-3.622c1.285,0,2.327,1.621,2.327,3.622S49.733,57.791,48.448,57.791z
		 M31.682,45.63c0,0-0.052-1.034-1.034-1.447l24.89-1.243L31.682,45.63z M56.468,42.312c0,0-14.548-1.672-17.075-1.403l4.657-3.868
		c0,0,8.071-0.699,15.368,0l-1.396,4.424C58.021,41.465,57.555,42.539,56.468,42.312z M61.063,42.758
		c-0.432,0.415-1.037,0.182-1.037,0.182l-0.155,0.156c-0.181,0.375,0.155,0.62,0.155,0.62l-1.178-0.078l0.815-0.88l-0.815-0.026
		l0.62-1.822l0.933-3.145c0.156-0.568,0.725-0.724,0.725-0.724h6.625c0.775,0.518,2.12,5.271,2.12,5.271L61.063,42.758z
		 M70.063,43.925c0,0-0.33,0.005-0.429,0.267h-0.223c0,0,0.144-0.418,0.459-0.457l1.346-0.067c0,0,0.202-0.116,0.069,0.524h-0.36
		l0.03-0.267H70.063z M71.448,45.25c-0.097,0-0.175-0.113-0.175-0.253c0-0.141,0.078-0.253,0.175-0.253s0.175,0.112,0.175,0.253
		C71.623,45.137,71.545,45.25,71.448,45.25z M78.395,54.661c-1.092,0-1.978-1.443-1.978-3.224c0-1.779,0.886-3.221,1.978-3.221
		c1.096,0,1.979,1.441,1.979,3.221C80.374,53.218,79.489,54.661,78.395,54.661z"/>
	<path fill="#FFFFFF" d="M15.743,46.769l4.02,0.222C18.166,46.874,15.743,46.769,15.743,46.769z"/>
	<path fill="#FFFFFF" d="M20.97,47.524h-5.227l7.415,0.417C21.757,47.729,20.97,47.524,20.97,47.524z"/>
	<path fill="#FFFFFF" d="M31.63,48.372c-0.17,0.008-0.336,0.013-0.502,0.019l5.212,0.292L31.63,48.372z"/>
</g>
</svg>
