<?xml version="1.0" encoding="utf-8"?>
<!-- Generator: Adobe Illustrator 16.0.0, SVG Export Plug-In . SVG Version: 6.00 Build 0)  -->
<!DOCTYPE svg PUBLIC "-//W3C//DTD SVG 1.1//EN" "http://www.w3.org/Graphics/SVG/1.1/DTD/svg11.dtd">
<svg version="1.1" id="Layer_1" xmlns="http://www.w3.org/2000/svg" xmlns:xlink="http://www.w3.org/1999/xlink" x="0px" y="0px"
	 width="100px" height="100px" viewBox="0 0 100 100" enable-background="new 0 0 100 100" xml:space="preserve">
<g>
	<path fill="#FFFFFF" d="M49.894,53.419L49.894,53.419c1.102,0,1.834-0.065,2.377-0.413c2.478-1.574,2.506-5.026,1.705-7.772
		c-0.379-1.301-1.496-4.303-3.691-4.303c-0.602,0-1.174,0.256-1.612,0.702c-1.54,1.567-5.204,3.334-9.119,4.388
		c-2.553,0.688-2.764,1.996-2.662,2.765C37.373,52.414,48.688,53.419,49.894,53.419z M50.171,44.879
		c0.447,0.885,0.944,2.443,0.849,3.87c-0.025,0.394-0.125,1.07-0.488,1.391c-0.099,0.016-0.295,0.037-0.636,0.037l0,0
		c-2.101-0.001-5.452-0.677-7.683-1.375C45.002,47.896,48.087,46.537,50.171,44.879z"/>
	<path fill="#FFFFFF" d="M82.104,43.669c0-8.191-12.428-14.608-28.293-14.608c-0.313,0-0.634-0.003-0.965-0.007
		c-1.931-0.02-4.285-0.04-7.188,0.545c-5.271-5.845-9.599-11.818-11.876-20.276l-0.076-0.22c-1.506-3.575-4.226-5.681-7.46-5.779
		c-3.125-0.1-6.161,1.741-7.561,4.57c-1.403,2.834-0.917,6.05,1.335,8.824l0.044,0.053c5.516,6.256,8.522,12.279,10.142,17.55
		c-3.106,2.075-4.683,5.212-4.683,9.349l0.014,0.22c0.149,1.155,0.502,2.26,1.027,3.311l9.797,39.433
		c1.614,6.228,7.873,10.046,16.398,10.046c0.18,0,0.358-0.002,0.538-0.005c8.29-0.153,17.55-4.265,19.206-11.795l9.012-38.177
		C81.898,45.727,82.104,44.713,82.104,43.669z M52.813,32.472c0.342,0.003,0.674,0.007,0.998,0.007c14.881,0,24.9,5.786,24.9,11.19
		c0,1.676-0.711,3.388-2.711,4.954v-0.857C76,46.159,74.641,45,73.032,45h-2.914c-0.81,0-1.541,0.517-2.07,1.051
		C67.697,45.899,67.311,46,66.902,46H66v-3.057C66,41.336,64.391,40,62.782,40h-2.914c-1.224,0-2.269,0.772-2.699,1.842
		c-2.142-2.378-4.239-4.56-6.231-6.635c-0.841-0.876-1.667-1.735-2.479-2.592C50.079,32.441,51.5,32.458,52.813,32.472z M35.131,42
		h11.694c0.891,0,1.632-1.127,1.703-2.015l0.141-1.977c2.835,2.953,5.724,5.859,8.604,9.26c0.205,0.407,0.5,0.704,0.861,0.974
		c0.139,0.168,0.364,0.313,0.504,0.483C57.121,48.826,56,50.051,56,51.593v2.914c0,0.103-0.066,0.199-0.057,0.3
		c-0.672,0.023-1.396,0.041-2.092,0.041c-7.378,0-13.968-1.5-18.51-3.939c0.009-0.275,0.011-0.131,0.024-0.455
		C35.454,48.365,35.568,45,35.131,42z M71,51v-3h1v3H71z M58.979,52.672h2v1h-2V52.672z M66.266,51.008h-1.754
		c-0.006,0-0.055-0.218-0.055-0.227V49.2h1.809V51.008z M62,46h-2v-3h2V46z M21.747,9.41c0.805-1.626,2.613-2.721,4.394-2.67
		c1.84,0.056,3.389,1.329,4.371,3.589c2.828,10.402,8.382,17.29,14.995,24.297L45.248,38H34.593c-1.295-7-4.46-14.815-11.941-23.311
		C21.277,12.981,20.955,11.009,21.747,9.41z M31.132,37.915c0.928,4.417,0.94,8.119,0.856,10.717
		c-1.703-1.509-2.777-3.226-3.048-5.076C28.96,41.086,29.654,39.274,31.132,37.915z M69.17,84.12
		c-1.268,5.766-9.156,9.011-15.938,9.138c-5.595,0.085-12.093-1.807-13.56-7.465l-8.26-33.242
		c5.076,3.563,13.021,5.715,22.396,5.715c9.491,0,17.748-2.295,22.854-5.891L69.17,84.12z"/>
</g>
</svg>
