<?xml version="1.0" encoding="utf-8"?>
<!-- Generator: Adobe Illustrator 16.0.0, SVG Export Plug-In . SVG Version: 6.00 Build 0)  -->
<!DOCTYPE svg PUBLIC "-//W3C//DTD SVG 1.1//EN" "http://www.w3.org/Graphics/SVG/1.1/DTD/svg11.dtd">
<svg version="1.1" id="Layer_1" xmlns="http://www.w3.org/2000/svg" xmlns:xlink="http://www.w3.org/1999/xlink" x="0px" y="0px"
	 width="100px" height="82.848px" viewBox="0 0 100 82.848" enable-background="new 0 0 100 82.848" xml:space="preserve">
<g>
	<path fill="#FFFFFF" d="M96.314,75.476c0,0-15.448,0-33.725,0v7.853v0.045c8.006,0,13.516,0,13.516,0
		c5.89,0,8.444-0.046,11.537-0.045h9.017c2.806,0,3.116-2.388,3.116-2.388v-2.01C99.775,78.931,99.975,75.476,96.314,75.476z"/>
	<path fill="#FFFFFF" d="M91.643,73.454c4.605,0,8.356-3.731,8.356-8.328c0-4.615-3.751-8.336-8.356-8.336
		c-4.609,0-8.352,3.721-8.352,8.336C83.291,69.719,87.032,73.454,91.643,73.454z"/>
	<path fill="#FFFFFF" d="M74.025,73.946c4.388,0,7.914-3.543,7.914-7.898c0-4.342-3.498-6.855-7.854-6.889L62.59,60.382v13.564
		H74.025L74.025,73.946z"/>
	<path fill="#FFFFFF" d="M36.505,19.027c5.123,0,9.268-4.144,9.268-9.251c0-5.109-4.146-9.249-9.268-9.249
		c-5.118,0-9.27,4.14-9.27,9.249C27.236,14.885,31.387,19.027,36.505,19.027z"/>
	<path fill="#FFFFFF" d="M27.043,48.966c-0.023-0.04-0.062-0.066-0.081-0.115l-4.201-9.904l-0.007,19.216h12.553l2.742-2.724
		l-7.436-2.758C28.847,52.024,27.597,50.625,27.043,48.966z"/>
	<path fill="#FFFFFF" d="M29.706,48.096c0.403,0.911,1.157,1.644,2.104,1.983l14.326,5.274c1.835,0.802,3.979-0.028,4.779-1.862
		c0.806-1.839-0.026-3.979-1.867-4.784l-13.216-4.961l-4.084-9.741l2.66-0.982l3.474,8.342l10.06,3.704V34.874l5.322,3.158
		l2.646,13.315c0.657,1.896,2.721,2.899,4.62,2.243c1.891-0.653,2.891-2.723,2.238-4.616L59.79,36.148
		c-0.194-0.715-0.612-1.343-1.171-1.814c-1.53-1.68-9.249-10.141-9.799-10.717c-0.807-0.802-2.653-2.129-6.134-2.129H30.184
		c-7.104,0-8.472,7.084-7.018,10.748L29.706,48.096z"/>
	<path fill="#FFFFFF" d="M60.521,59.684H4.096c-2.051,0-4.097,2.052-4.097,4.584c0,0.588,0.001,1.661,0.001,1.661l-0.001,17.398
		c0,0,3.664,0,4.855,0h55.667V59.684z"/>
</g>
</svg>
