<?xml version="1.0" encoding="utf-8"?>
<!-- Generator: Adobe Illustrator 16.0.0, SVG Export Plug-In . SVG Version: 6.00 Build 0)  -->
<!DOCTYPE svg PUBLIC "-//W3C//DTD SVG 1.1//EN" "http://www.w3.org/Graphics/SVG/1.1/DTD/svg11.dtd">
<svg version="1.1" id="Layer_1" xmlns="http://www.w3.org/2000/svg" xmlns:xlink="http://www.w3.org/1999/xlink" x="0px" y="0px"
	 width="100px" height="100px" viewBox="0 0 100 100" enable-background="new 0 0 100 100" xml:space="preserve">
<g id="Captions">
</g>
<g id="Your_Icon">
	<g>
		<path fill="#FFFFFF" d="M63.678,67.286c0.502-0.608,1.104-1.683,0.708-2.468c-0.392-0.771-1.432-0.846-2.17-0.642
			c-1.808,0.501-3.333,2.183-3.813,3.974c-1.223,4.549,3.072,8.299,2.883,12.723c-0.088,2.059-1.413,3.85-3.063,4.991
			c-1.839,1.271-3.908,1.514-6.033,0.852c-0.873-0.271-1.631-0.797-2.288-1.426c-0.712-0.681-1.237-1.573-1.973-2.218
			c-1.656-1.447-2.854-3.381-4.777-4.543c-1.819-1.096-4.171-1.58-6.177-0.76c-0.975,0.399-1.823,1.02-2.591,1.733
			c-0.914,0.657-1.873,1.269-2.906,1.722c-2.081,0.914-4.382,0.971-6.237-0.481c-1.799-1.408-2.28-3.99-1.952-6.142
			c0.361-2.359,1.773-3.9,3.068-5.789c0.523-0.765,1.101-1.506,1.569-2.303c0.241-0.41,0.432-0.935,0.742-1.295
			c0.304-0.355,0.788,0.125,1.099,0.239c4.051,1.509,8.875,0.329,12.5-1.774c1.643-0.953,3.588-2.451,3.779-4.5
			c0.201-2.142-1.643-3.794-3.42-4.595c-1.909-0.858-4.075-1.166-6.14-1.384c-2.63-0.277-5.534-0.245-7.743,1.412
			c0.146-2.127-1.439-3.85-2.352-5.619c-0.913-1.771-0.966-3.84,0.987-4.869c1.575-0.83,3.574-1.049,4.351-2.903
			c0.306-0.994-0.665-1.928-1.615-1.916c-1.063,0.014-2.132,0.448-3.085,0.873c-2.06,0.913-4.007,1.522-6.292,1.173
			c-1.896-0.291-3.656-1.154-4.957-2.579c-0.596-0.654-1.083-1.405-1.441-2.215c-0.354-0.803-0.848-2.288-0.315-3.122
			c0.54-0.846,1.772,0.775,2.195,1.163c0.804,0.739,1.613,1.444,2.633,1.869c1.027,0.428,2.057,0.39,3.147,0.395
			c1.24,0.005,2.472-0.115,3.679-0.401c2.091-0.497,4.07-1.451,5.783-2.747c2.752-2.08,5.151-5.402,4.772-9.02
			c-0.583-5.582-7.493-7.729-12.255-7.315c-3.4,0.294-6.338,2.107-8.13,5.041c-0.523,0.858-0.812,1.807-1.54,2.523
			c-0.742,0.731-1.425,1.418-1.989,2.304c-1.106,1.731-1.751,3.748-1.831,5.803c-0.156,4.099,1.99,8.063,5.377,10.332
			c0.74,0.646,1.646,1.042,2.593,1.273c0.985,0.241,2.192,0.12,3.124,0.481c1.148,0.444,0.967,1.829,1.052,2.816
			c0.1,1.15,0.53,2.249,1.028,3.283c0.463,0.963,1.011,1.881,1.555,2.798c0.666,1.12,0.353,2.147,0.041,3.343
			c-0.267,1.018-0.239,2.061-0.41,3.096c-0.189,1.143-0.52,2.258-0.949,3.334c-0.829,2.074-2.12,3.91-2.929,5.995
			c-0.792,2.039-1.276,4.229-1.221,6.425c0.105,4.224,2.423,8.317,6.483,9.811c2.347,0.861,4.283-0.107,6.422-1.059
			c1.779-1.021,3.428-2.742,5.51-3.111c2.081-0.368,3.584,0.734,5.091,1.99c1.749,1.453,3.044,3.354,4.756,4.843
			c1.665,1.446,3.652,2.452,5.898,2.473c2.048,0.019,4.319-0.862,6.046-1.92c3.539-2.173,6.354-6.517,5.273-10.771
			c-0.555-2.193-1.924-4.094-2.619-6.248c-0.299-0.93-0.336-1.922-0.082-2.867c0.123-0.463,0.313-0.905,0.563-1.313
			c0.065-0.109,0.616-0.979,0.673-0.979c-0.076,0.002-0.146,0.299-0.174,0.299C63.624,67.352,63.652,67.32,63.678,67.286
			C63.925,66.986,63.357,67.667,63.678,67.286z M21.02,24.43c-0.131,0.782-0.984,1.735-1.85,1.55
			c-0.908-0.194-1.24-1.377-0.923-2.153c0.312-0.76,1.144-1.469,2.005-1.423C21.438,22.467,21.51,23.6,21.02,24.43
			C20.931,24.961,21.154,24.202,21.02,24.43z"/>
		<path fill="#FFFFFF" d="M40.073,49.793c-1.836-0.445-3.598-0.736-5.483-0.308c-1.729,0.39-1.316,3.018,0.423,2.623
			c1.401-0.316,2.674-0.158,4.048,0.175C40.766,52.695,41.792,50.21,40.073,49.793z"/>
		<path fill="#FFFFFF" d="M40.283,45.718l-1.208-0.076c-1.781-0.111-1.947,2.542-0.167,2.654l1.208,0.075
			C41.896,48.484,42.063,45.83,40.283,45.718z"/>
		<path fill="#FFFFFF" d="M49.463,74.029c-1.293,0.14-1.431,1.521-0.965,2.285c0.346,0.512,0.869,0.666,1.355,0.592
			s0.936-0.381,1.136-0.793c0.305-0.42,0.274-1.014-0.003-1.463c-0.139-0.226-0.342-0.416-0.598-0.532
			C50.131,74.003,49.818,73.96,49.463,74.029z"/>
		<path fill="#FFFFFF" d="M53.633,77.87c-0.671,0-1.088,0.375-1.255,0.847c-0.771,0.713-0.478,2.307,0.909,2.307
			c0.673,0,1.089-0.375,1.256-0.844C55.313,79.464,55.02,77.87,53.633,77.87z"/>
		<path fill="#FFFFFF" d="M54.96,72.287c-1.784,0-1.784,2.658,0,2.658S56.744,72.287,54.96,72.287z"/>
		<path fill="#FFFFFF" d="M94.443,57.721c0.69-4.553,2.525-8.897,3.385-13.437c0.816-4.322,0.742-8.63-0.832-12.773
			c-1.723-3.678-3.701-7.343-6.578-10.258c-3.18-3.224-7.007-4.216-11.047-5.925c-2.1-0.888-4.008-2.19-6.117-3.008
			c-2.169-0.838-4.314-1.497-6.572-2.036c-4.341-1.037-8.884-1.867-13.336-2.19c-4.82-0.349-9.53,0.366-14.336,0.546
			c-4.504,0.168-9.36,0.005-13.651,1.591c-4.172,1.542-7.721,3.493-11.147,6.348c-1.68,1.053-3.57,1.778-5.104,3.049
			c-1.778,1.474-3.218,3.306-4.284,5.35c-4.11,7.884-3.437,17.061,0.118,25.002c1.911,4.269,3.864,8.167,3.157,12.978
			C7.813,64.9,7.007,66.662,6.32,68.484c-0.872,2.313-1.348,4.533-1.373,7.012c-0.021,2.048,0.317,4.17,1.504,5.887
			c1.096,1.586,3.524,2.398,5.373,2.602c1.055,0.117,4.651-0.021,4.417-1.771c-0.109-0.816-1.869-0.91-2.479-1.027
			c-1.192-0.229-2.286-0.487-3.294-1.207C6.251,76.975,8.5,71.947,9.979,68.15c1.658-4.258,2.286-8.172,1.133-12.64
			c-1.15-4.461-3.997-8.31-4.927-12.874c-0.857-4.203-1.24-8.513,0.074-12.674c1.375-4.35,4.492-7.026,8.194-9.418
			c3.42-2.203,6.139-5.065,9.891-6.776c4.269-1.945,9.181-1.929,13.779-2.118c4.719-0.194,9.389-0.56,14.107-0.13
			c4.455,0.407,9.039,0.887,13.437,1.722c2.229,0.431,4.459,0.979,6.563,1.849c2.172,0.898,3.815,2.788,5.897,3.856
			c1.731,0.89,3.724,0.958,5.522,1.654c1.888,0.729,3.535,2.022,4.924,3.479c2.717,2.856,4.621,6.636,5.549,10.458
			c1.1,4.531,0.348,9.271-0.876,13.692c-1.215,4.388-2.421,8.544-2.783,13.109c-0.382,4.809,0.341,9.646,0.198,14.467
			c-0.111,3.793-0.495,8.184-2.018,11.672c-0.687,1.569-1.99,2.596-3.778,2.266c-1.679-0.336-2.492-1.827-2.927-3.348
			c-0.975-3.414-1.606-7.074-1.228-10.614c0.493-4.618,1.683-9.132,2.079-13.765c0.18-2.097-0.459-4.16-0.77-6.219
			c-0.35-2.307-0.127-4.389,0.85-6.516c0.254-0.551,0.766-1.601,0.216-2.13c-0.577-0.558-1.655-0.463-2.215,0.003
			c-1.649,1.376-2.631,3.443-2.726,5.583c-0.094,2.176,0.517,4.396,0.875,6.53c0.393,2.319,0.359,4.475-0.031,6.791
			c-0.319,1.883-0.95,3.703-1.356,5.571c-0.356,2.349-0.637,4.728-0.614,7.104c0.033,3.945,1.101,8.183,3.338,11.477
			c1.869,2.754,5.688,5.496,8.806,2.861c1.301-1.102,1.914-2.661,2.392-4.251c0.547-1.823,1.188-3.689,1.525-5.558
			c0.745-4.108,1.363-8.354,1.216-12.541c-0.159-4.464-0.776-8.732,0.179-13.162C94.456,57.646,94.359,58.136,94.443,57.721
			C94.563,56.938,94.32,58.327,94.443,57.721z"/>
		<path fill="#FFFFFF" d="M77.027,24.614c-2.682-3.558-6.07-6.536-10.688-6.927c-4.543-0.384-8.799,1.944-12.124,4.867
			c-3.264,2.87-5.133,7.013-4.174,11.363c0.833,3.779,3.49,6.871,6.782,8.79c5.278,3.075,12.588,3.527,17.948,0.363
			c2.895-1.708,4.744-5.107,5.195-8.402c0.254-1.841-0.304-3.455-0.806-5.193C78.68,27.804,78.046,26.041,77.027,24.614
			C75.882,23.094,77.043,24.633,77.027,24.614z M62.052,23.117c0.123,0.098,0.229,0.211,0.313,0.334
			c0.085,0.123,0.15,0.257,0.193,0.398c0.262,0.905-0.363,1.803-0.916,2.425c-0.482,0.415-1.105,0.485-1.705,0.323
			c-0.185-0.076-0.354-0.193-0.498-0.339c-0.285-0.294-0.457-0.708-0.422-1.158c0.137-1.244,1.242-2.419,2.535-2.261
			C61.686,22.858,61.816,22.914,62.052,23.117z M67.5,41.438c-0.464,0.112-0.88,0.042-1.383,0.052c-0.235,0-0.475-0.004-0.711-0.012
			c-1.62-0.067-3.211-0.274-4.696-0.746c-0.217-0.066-0.433-0.137-0.646-0.213c-0.424-0.151-0.84-0.321-1.242-0.512
			c-4.383-2.07-6.19-7.706-3.401-11.782c-0.543,2.388,0.074,4.856,1.698,6.691c0.734,0.83,1.602,1.476,2.553,1.962
			c0.189,0.097,0.383,0.188,0.58,0.273c2.223,1.011,4.709,0.941,7.057,1.123c0.246-0.001,0.49-0.012,0.735-0.031
			c0.203-0.015,0.406-0.037,0.606-0.065c2.254-0.292,4.466-1.398,5.896-3.169c0.128-0.158,0.249-0.321,0.365-0.49
			c0.345-0.506,0.627-1.057,0.835-1.65c0.073-0.185,0.136-0.375,0.136-0.513c0.086,0.15,0.152,0.309,0.204,0.474
			c0.293,1.239,0.185,2.57-0.296,3.729c-0.079,0.194-0.17,0.382-0.27,0.564c-1.092,1.937-3.166,2.905-5.19,3.642
			c-0.196,0.061-0.392,0.118-0.59,0.173c-0.593,0.165-1.19,0.306-1.774,0.456C67.807,41.416,67.648,41.431,67.5,41.438z"/>
	</g>
</g>
</svg>
