<?xml version="1.0" standalone="no"?>
<!DOCTYPE svg PUBLIC "-//W3C//DTD SVG 1.1//EN" "http://www.w3.org/Graphics/SVG/1.1/DTD/svg11.dtd" >
<svg xmlns="http://www.w3.org/2000/svg">
<metadata></metadata>
<defs>
<font id="aristonnormal" horiz-adv-x="700" >
<font-face units-per-em="2048" ascent="1638" descent="-410" />
<missing-glyph horiz-adv-x="454" />
<glyph horiz-adv-x="2048" />
<glyph horiz-adv-x="2048" />
<glyph unicode="&#xd;" horiz-adv-x="454" />
<glyph unicode=" "  horiz-adv-x="454" />
<glyph unicode="&#x09;" horiz-adv-x="454" />
<glyph unicode="&#xa0;" horiz-adv-x="454" />
<glyph unicode="!" horiz-adv-x="659" d="M170 63q0 29 20.5 51.5t49.5 22.5q31 0 52 -21.5t21 -52.5q0 -72 -73 -71q-70 0 -70 71zM297 334l242 917l170 29l-390 -950z" />
<glyph unicode="&#x22;" horiz-adv-x="669" d="M233 1094q0 -20 9 -21q16 0 67 86q76 125 76 160v2q0 47 -16 65q-2 2 -58 35l-4 9q6 12 72.5 38.5t85.5 26.5q47 0 47 -76q0 -84 -94 -196q-86 -100 -172 -142q-12 4 -13 13zM539 1092l77 84q76 82 76 143q0 20 -40 53t-40 53v2l2 9q121 57 154 57q49 0 49 -76 q0 -82 -93 -195.5t-175 -142.5q-10 4 -10 13z" />
<glyph unicode="#" horiz-adv-x="1134" d="M68 422v137h219l53 395h-219v140h239l60 422h141l-59 -422h254l59 422h141l-59 -422h170v-138h-190l-56 -397h189v-137h-207l-60 -422h-141l60 422h-254l-60 -422h-141l59 422h-198zM428 559h252l55 397h-252z" />
<glyph unicode="$" horiz-adv-x="1071" d="M-20 119q4 8 4 61v-2q0 35 28 41q66 -61 127 -119q53 -49 146 -77l213 641q-127 82 -185 153q-74 96 -73 225q0 190 168 293q145 90 344 84l22 66l43 -17l-18 -57q100 -25 143 -41q92 -37 92 -96q0 -18 -12 -55q-14 -43 -27 -43q-6 0 -28 45q-41 82 -189 137l-196 -588 q162 -111 211 -176q74 -96 73 -260q0 -156 -168 -260q-143 -90 -311 -94l-70 -3l-57 -163l-41 14l51 156q-143 14 -290 135zM332 10q27 -8 67 -8h2q150 0 258 88q117 94 117 240q0 96 -78 180q-51 55 -157 123zM336 1098q0 -178 207 -305l192 573l2 -2q-23 6 -112 16 q-123 0 -206 -79.5t-83 -202.5z" />
<glyph unicode="%" horiz-adv-x="1564" d="M84 731q0 160 104 324q115 180 267 180h2q88 0 137 -92q43 -78 43 -172q0 -166 -105 -330q-117 -184 -276 -184q-86 0 -133 98q-39 80 -39 176zM154 598q0 -45 28.5 -82t71.5 -37q121 0 225 246q88 207 88 354q0 53 -28.5 93t-79.5 40q-121 0 -219 -254 q-84 -217 -86 -360zM408 -2l596 1235l47 -25l-600 -1235zM823 266q0 156 105 318q117 180 264 180h-2q88 0 139 -92q45 -78 45 -172q0 -164 -102 -330q-115 -186 -271 -186q-92 0 -139 100q-39 80 -39 182zM891 137q0 -49 22 -86q27 -43 74 -43h-2q125 0 229 248 q88 209 89 358q0 47 -29 87t-74 40q-123 0 -223 -245q-86 -211 -86 -359z" />
<glyph unicode="&#x26;" horiz-adv-x="948" d="M-4 236q0 154 139 288q123 121 285 166q-31 96 -31 176h-2q0 104 57 189q63 96 164 96q57 0 99.5 -43t42.5 -100q0 -152 -213 -285q106 -244 188 -410q102 158 106 361l72 4q-23 -150 -158 -399l129 -244l-104 -58l-104 193q-190 -197 -390 -197q-125 0 -202.5 70 t-77.5 193zM119 219q0 -211 192 -211q182 0 338 185q-70 127 -223 469q-307 -218 -307 -443zM471 958q0 -51 49 -208q174 123 174 270v-2q0 49 -25.5 83t-72.5 34q-61 0 -96 -60q-29 -51 -29 -117z" />
<glyph unicode="'" horiz-adv-x="417" d="M207 1151q0 137 262 340q4 2 12 2q6 0 6 -8q0 23 -8 22q-16 0 -65 -90q-74 -135 -74 -176q0 -55 40 -68.5t44 -19.5v-12q-84 -51 -168 -66q-49 12 -49 76z" />
<glyph unicode="(" d="M137 98q0 406 189 762q156 295 477 629l16 -8q-281 -397 -448 -865q-186 -514 -174 -952l-21 -6q-39 227 -39 440z" />
<glyph unicode=")" d="M-168 -332q412 608 547 1202q82 362 76 617l18 6q39 -221 39 -440q0 -743 -664 -1389z" />
<glyph unicode="*" d="M154 1116q0 27 17 49.5t44 22.5q86 0 258 -12q-49 27 -145.5 84t-96.5 106v-2q0 35 28 60.5t63 25.5q43 0 96 -111q31 -63 71 -149v27q0 -2 3 26v60v86q0 113 73 112q86 0 86 -69q0 -29 -59 -121q-20 -31 -80 -123l125 72q90 51 121 51q72 0 71 -86q0 -68 -67 -68 q-41 0 -125 4l-127 6q135 -76 145 -84q100 -66 101 -112q0 -29 -30 -53.5t-58 -24.5q-47 0 -99 111q-14 33 -71 147l-4 -174q-2 -63 -9 -90q-12 -49 -63 -49q-90 0 -90 67q0 23 63 125q18 29 82 131l-129 -74q-86 -49 -129 -49q-66 0 -65 78z" />
<glyph unicode="+" horiz-adv-x="1318" d="M150 541v86h538v540h86v-540h539v-86h-539v-541h-86v541h-538z" />
<glyph unicode="," horiz-adv-x="454" d="M-2 -272l2 6q145 141 145 233q0 74 -82 84v4q-2 0 -2 2v6q2 2 2 5l9 8q129 57 155 57q23 0 38.5 -23.5t15.5 -48.5q0 -78 -98.5 -198.5t-174.5 -147.5q-10 4 -10 13z" />
<glyph unicode="-" d="M23 373l34 82h510l-32 -82h-512z" />
<glyph unicode="." horiz-adv-x="454" d="M141 68q0 72 74 71q28 1 59 -30q10 -25 11 -41q0 -29 -20.5 -51.5t-49.5 -22.5q-31 0 -52.5 21.5t-21.5 52.5z" />
<glyph unicode="/" horiz-adv-x="948" d="M-45 0l879 1409h79l-874 -1409h-84z" />
<glyph unicode="0" horiz-adv-x="1030" d="M37 418q0 248 168 518q186 299 420 299h-2q141 0 221 -141q68 -119 67 -271q0 -268 -159 -536q-180 -303 -435 -303q-147 0 -221 151q-59 119 -59 283zM123 233q0 -233 207 -233q211 0 413 618q78 238 78 371q0 100 -49 162q-55 70 -151 70q-213 0 -412 -586 q-86 -252 -86 -402z" />
<glyph unicode="1" horiz-adv-x="1030" d="M227 815l19 80q315 168 594 362l2 -2q4 0 6 -4l-440 -1224l-146 -47l395 1101z" />
<glyph unicode="2" horiz-adv-x="1030" d="M-59 -2q0 190 225 350q109 76 416 297q225 166 225 387v2q0 80 -45 131.5t-125 51.5q-152 0 -254 -152q-92 -133 -92 -293q0 -16 8 -51t8 -51q-2 -4 -8 -4l-2 4q-45 90 -45 200q0 152 123 261.5t276 109.5q125 0 203 -72.5t78 -197.5q0 -188 -170 -346q-82 -76 -361 -242 q-244 -145 -329 -246q-8 -8 -76 -96q164 84 303 84q70 0 205 -22.5t205 -22.5q47 0 92 43l12 2l8 -10l-4 -4q-127 -127 -295 -127q-72 0 -214 29.5t-214 29.5q-27 0 -145 -59q-8 0 -8 14z" />
<glyph unicode="3" horiz-adv-x="1030" d="M29 123q0 6 6 6q102 -127 254 -127q145 0 256 180q98 160 98 316q0 160 -229 159q-25 0 -45 -2h-47v7l20 40q33 -8 84 -8q143 0 238 129q82 117 81 267q0 59 -47 91.5t-108 32.5q-57 0 -161.5 -49t-86.5 -49q-6 0 -6 12l29 64q164 49 249 49q109 0 181 -51 q80 -57 79 -162q0 -233 -317 -344q217 -74 217 -250t-155.5 -313t-333.5 -137q-154 0 -244 77q0 41 -12 62z" />
<glyph unicode="4" horiz-adv-x="1030" d="M-72 301q0 8 9 10v2l1021 947q5 -3 5 -7q0 -6 -142 -411l-166 -475h291l-96 -95l-225 2l-90 -258l-150 -41l107 301l-553 9q-10 10 -11 16zM37 367h485l236 669z" />
<glyph unicode="5" horiz-adv-x="1030" d="M31 119q94 -68 125 -82q68 -33 145 -33q170 0 295 223q106 191 106 379q0 74 -50 113t-126 39q-55 0 -159.5 -45t-143.5 -45q-4 2 -4 10q0 10 88 252l105 287h553l-66 -95h-491l-144 -401q178 74 291 74q115 0 191.5 -81t76.5 -196q0 -213 -161.5 -379t-372.5 -166 q-84 0 -242 64z" />
<glyph unicode="6" horiz-adv-x="1030" d="M70 328q0 199 184 415q96 113 344 322q57 47 262 223h84l-2 -2q-317 -229 -536 -516q96 49 169 49q125 0 201 -106q68 -94 68 -224q0 -190 -133 -346q-139 -162 -326 -161q-145 0 -233 102q-82 94 -82 244zM164 207q0 -205 186 -205q156 0 281 225q106 193 106 369 q0 197 -174 197q-156 0 -284 -220q-115 -197 -115 -366z" />
<glyph unicode="7" horiz-adv-x="1030" d="M119 4l243 348q127 182 256 338q188 229 365 453q-246 -47 -377 -47q-147 0 -325 14q-37 -47 -97 -102q-12 10 -18 24q45 57 117 107q35 23 131 88q80 -2 299 -31q188 -23 301 -18l18 -7q2 -4 2 -18q0 -4 -4 -8q-27 -27 -252 -369l-241 -366q-143 -219 -226 -375 q-20 -4 -90 -29q-57 -20 -90 -20q-12 0 -12 10v8z" />
<glyph unicode="8" horiz-adv-x="1030" d="M45 307q0 211 397 326q-129 176 -129 282v-2q0 139 115 234q109 90 250 90q117 0 193.5 -63.5t76.5 -178.5q0 -127 -112 -225q-98 -88 -232 -113q170 -193 170 -327q0 -160 -123 -256q-113 -90 -276 -90q-150 0 -240 87t-90 236zM113 248q0 -111 75.5 -179.5t188.5 -68.5 q127 0 210 78t83 203q0 123 -183 305q-8 6 -24 24q-147 -41 -240 -123q-111 -98 -110 -237v-2zM428 973q0 -100 45 -170l117 -135q293 141 293 360q-1 186 -191 186q-100 0 -182 -70.5t-82 -170.5z" />
<glyph unicode="9" horiz-adv-x="1030" d="M47 -76q0 2 2 8q14 14 285 252q168 147 260 277q-82 -41 -150 -41h-2q-135 0 -213 102q-72 92 -71 232q0 193 139 343t330 150q135 0 219 -104q80 -96 80 -234q0 -317 -490 -725q-78 -63 -338 -270l-41 4q-6 4 -10 6zM262 645q0 -211 160 -211q170 0 295 232 q106 199 106 387q0 84 -53 130t-139 46q-143 0 -262 -228q-106 -203 -107 -356z" />
<glyph unicode=":" horiz-adv-x="536" d="M111 68q0 27 22.5 49t48.5 22q74 1 74 -71q0 -31 -21.5 -52.5t-52.5 -21.5q-72 0 -71 74zM317 645q0 29 22.5 51.5t51.5 22.5q31 0 51.5 -21.5t20.5 -52.5q0 -72 -72 -72q-74 0 -74 72z" />
<glyph unicode=";" horiz-adv-x="536" d="M41 -270q0 -20 8 -21q16 0 66 86q76 131 75 172v2q0 76 -81 82l-5 6l5 13q29 23 161 67q51 -12 52 -74q0 -80 -97 -198q-92 -111 -172 -148h-4q-8 0 -8 13zM328 647q0 27 24.5 51.5t50.5 24.5q76 0 76 -90q0 -27 -23.5 -43.5t-52.5 -16.5q-31 0 -53 21.5t-22 52.5z" />
<glyph unicode="&#x3c;" horiz-adv-x="1241" d="M94 455v127l1041 471v-140l-871 -395l871 -395v-139z" />
<glyph unicode="=" horiz-adv-x="1318" d="M45 367v86h1335v-86h-1335zM45 717v90h1335v-90h-1335z" />
<glyph unicode="&#x3e;" horiz-adv-x="1241" d="M106 -16v139l871 395l-871 395v140l1041 -471v-127z" />
<glyph unicode="?" horiz-adv-x="782" d="M129 66q0 27 22.5 49t49.5 22q29 0 51 -21t22 -50q0 -31 -21.5 -52.5t-51.5 -21.5q-72 0 -72 74zM180 477q0 131 156 254q74 57 287 221q154 119 153 215q0 57 -47 91t-106 34q-150 0 -250 -137q-86 -117 -103 -276q-2 -12 -12 -13q-14 0 -14 49q0 168 90 283 q98 127 260 127q92 0 159.5 -63.5t67.5 -155.5q0 -106 -108 -234q-82 -94 -234 -208q-109 -78 -215 -156l-4 -4q-31 -20 -31 -68q0 -82 113 -82q29 0 80 19l51 18q6 0 6 -12q-10 -23 -14 -39q-68 -20 -107 -21q-76 0 -127 42t-51 116z" />
<glyph unicode="@" horiz-adv-x="2078" d="M301 739q0 324 223.5 547t548.5 223q287 0 492 -174q213 -182 213 -465q0 -213 -138 -395q-147 -197 -352 -196q-125 0 -131 129l-4 -2q-115 -127 -246 -127q-133 0 -217 96t-84 231q0 219 125 385q135 180 348 180q162 0 236 -159l41 127h141q-63 -205 -149 -504 q-37 -127 -37 -164q0 -59 43 -59q121 0 213 166q78 141 78 276q0 242 -168 387q-160 141 -404 141q-276 0 -449 -188t-173 -467q0 -274 182 -456.5t457 -182.5q307 0 495 234h137q-100 -168 -271 -264.5t-368 -96.5q-332 0 -557 223.5t-225 554.5zM774 625q0 -84 45 -141.5 t127 -57.5q129 0 221 145q84 129 84 265q0 74 -48 131t-120 57q-133 0 -225 -137q-84 -123 -84 -262z" />
<glyph unicode="A" horiz-adv-x="1853" d="M-82 260q0 143 152 266q242 197 647 197q231 0 411 -14l222 440q161 321 300 321h1q75 0 75 -100t-219 -672l13 -2q29 0 87 4.5t87 4.5q25 0 32 -3q-12 -51 -49 -53l-184 -8l-102 -272q-74 -197 -74 -260q0 -41 29.5 -67t70.5 -26q145 0 400 168l-2 -20 q-213 -164 -406 -164q-221 0 -221 143q0 70 63 250l92 260l-180 9l-104 -183q-63 -109 -117 -174q-274 -330 -635 -330q-164 0 -264 60q-125 74 -125 225zM59 260q0 -129 78 -196.5t209 -67.5q449 0 764 676q-375 37 -438 37h2q-225 0 -406 -109q-209 -127 -209 -340z M1176 707l182 -7l274 730q0 16 -10 16q-12 0 -29 -16q-98 -74 -229 -336q-43 -88 -188 -387z" />
<glyph unicode="B" horiz-adv-x="1607" d="M-53 748q0 338 299 536q264 176 616 176q215 0 369 -65q205 -88 205 -275q0 -129 -156 -227q-51 -33 -270 -131q152 -25 254 -92q131 -86 131 -219v2q0 -219 -267 -357q-211 -109 -462 -112q35 0 14 2q-20 2 -92 4t-236 6q-80 2 -211 16q-10 0 -10 6q8 2 25 15 q240 61 356 213q90 119 164 385l96 352q76 276 119 309q45 20 127 84l8 -2q4 -4 4 -10q0 -35 -59 -205q-70 -199 -76 -223q-109 -401 -186 -535q-131 -223 -437 -360q152 -33 332 -33q291 0 443 113q202 151 202 358q0 178 -170 236q-43 14 -92 39l-2 8q0 2 2 6v6 q45 25 143 82q166 133 166 307q0 270 -376 271q-328 0 -617 -193q-326 -217 -326 -526q0 -92 82 -248q2 -14 2 -16l-4 -7h-2q-39 0 -75 134q-33 117 -33 170z" />
<glyph unicode="C" horiz-adv-x="1193" d="M-25 455q0 225 140 469q129 227 319 374q217 168 432 168q150 0 234 -96t84 -248q0 -272 -207 -518q-217 -256 -483 -256q-104 0 -170 56.5t-66 158.5q0 180 186 352q174 162 361 193l14 -2l4 -8q0 -2 -2 -6q-43 -27 -104 -64q-430 -256 -430 -477q0 -166 172 -166 q227 0 459 277q223 268 223 501q0 125 -66.5 199t-189.5 74q-221 0 -420 -224q-147 -164 -252 -409q-109 -258 -109 -467q0 -188 129 -283q113 -84 308 -84q285 0 645 207v-29q-275 -219 -615 -219q-248 0 -415 138q-180 145 -181 389z" />
<glyph unicode="D" horiz-adv-x="1771" d="M-63 641q0 233 180 440q160 182 398.5 279.5t528.5 97.5q289 0 465 -139q195 -152 195 -434q0 -246 -172 -479q-305 -414 -961 -414q-25 0 -70.5 5t-70.5 5q-6 0 -6 2l4 4q117 43 176 221l166 502q106 317 307 539q74 82 115 108l8 -10v-6q-14 -20 -98 -176 q-66 -121 -164 -408q-111 -324 -170 -440q-115 -227 -266 -320q31 -2 141 -2q645 0 873 646q68 193 67 344q0 221 -162 333q-139 98 -370 99q-188 0 -322 -37q-145 -41 -293 -141q-168 -115 -301 -291q-158 -209 -158 -373q0 -113 74 -205q2 -2 2 -12q-2 -4 -10 -4 q-49 25 -80 119q-27 78 -26 147z" />
<glyph unicode="E" horiz-adv-x="1193" d="M-2 313q0 264 305 385q51 10 172 54q51 25 60 112q2 39 10 142q45 473 348 473q84 0 139 -48.5t55 -130.5q0 -104 -100 -235t-201 -156h-8q-2 0 -2 4q2 6 2 9q94 63 178 184q94 133 95 233q0 45 -29 74t-74 29q-152 0 -262 -324q-23 -68 -90 -266q-20 -61 -42 -85 t-81 -52q-342 -166 -342 -443q0 -129 86 -200.5t217 -71.5q195 0 420 150q250 166 250 346v12q-2 8 -2 12l6 8l10 -4q18 -55 19 -80q0 -215 -240 -354q-201 -117 -436 -117q-186 0 -311 76q-152 90 -152 264z" />
<glyph unicode="F" horiz-adv-x="1814" d="M-39 496q0 395 278.5 665.5t673.5 270.5q131 0 297 -29l295 -51q188 -33 363 -33q18 0 24 -2l9 -8q-6 -29 -29 -64q-27 -41 -51 -41h-33q-166 0 -493.5 57.5t-493.5 57.5q-375 0 -580 -232q-196 -220 -196 -596q0 -135 43 -268l32 -98v-8q0 -4 -6 -6v-2l-10 6 q-123 111 -123 381zM637 -252q0 106 90 262q14 27 166 275q90 150 90 204q0 53 -41 76l-162 -4q-12 0 -30 19l-5 10q6 35 66 37l334 8q100 375 338 549q23 16 26 16q2 0 4 -2h5l4 -12l-2 -8q-92 -92 -152 -254q-14 -39 -82 -289h62h43q20 -2 18 -2h129q45 0 135 7t135 7 q23 0 23 -24q0 -70 -111 -70q-86 0 -454 10q-98 -369 -176 -540q-162 -356 -369 -357q-84 0 -84 82zM705 -242q0 -61 55 -61q104 0 233 383q90 268 133 489l-131 -4l-2 2q20 -39 21 -69q0 -66 -154.5 -358t-154.5 -382z" />
<glyph unicode="G" horiz-adv-x="1691" d="M-66 285q0 29 107 53q8 2 133 24q25 440 364 770t779 330q231 0 231 -170q0 -66 -71 -176q-260 -399 -1151 -745v-52q0 -135 73 -227q82 -98 213 -98q137 0 306 96q143 82 258 201q45 141 155 508q68 35 146 78q8 0 8 -15q0 -96 -105 -395q-98 -283 -159 -391 q-12 -23 -105 -154l287 101q152 53 270 129l-2 -29q-141 -90 -311 -162q-96 -41 -326 -135q-94 -104 -133 -137q-92 -78 -164 -78q-76 0 -75 53q0 86 163 162q37 16 242 84q31 68 53 162q29 127 45 161q-303 -264 -616 -264q-332 0 -377 359q-213 -53 -225 -54q-12 0 -13 11 zM326 403l145 56q313 119 588 301q385 256 385 469h2q0 96 -86 147q-72 43 -174 43q-182 0 -387 -131q-389 -250 -473 -885zM682 -332q0 -39 53 -39q113 0 271 189q-35 -10 -132 -41l-32 -10q-127 -39 -140 -62q-20 -14 -20 -37z" />
<glyph unicode="H" horiz-adv-x="1853" d="M-49 1034q0 92 123 217q188 193 469 193q96 0 213 -31l209 -55q47 -6 129 -25q-31 -51 -99 -211l-110 -317l198 102q203 326 381 434q43 21 129 64q43 14 72 14q80 0 80 -80q0 -86 -207 -211q-86 -53 -291 -149q-258 -522 -258 -815q0 -139 125 -139q217 0 395 213 q168 201 168 424q0 119 -69 163l-2 13q6 6 14 10q49 -27 85 -99.5t36 -134.5q0 -262 -236 -448q-217 -172 -487 -172q-168 0 -168 176q0 129 72 358q59 193 139 342l-187 -100q-94 -289 -233 -489q-197 -283 -432 -283q-68 0 -109 43t-41 111q0 162 252 337q121 86 396 222 q80 225 135 329q92 176 221 277q-31 -10 -78 -10q-92 0 -299 22q-188 20 -297 21q-276 0 -381 -236q-29 -94 -49 -94q-6 6 -8 14zM104 96q0 -39 33 -61q27 -21 68 -21q272 0 483 643q-190 -115 -348 -243q-236 -195 -236 -318zM1264 1014q456 223 456 334q0 45 -51 45 q-98 0 -231 -146q-92 -100 -174 -233z" />
<glyph unicode="I" horiz-adv-x="1277" d="M-39 240q0 137 127 209q104 59 254 59q176 0 487 -90q59 121 125 313q78 223 121 318q74 160 193 278h-45q-113 0 -337 22.5t-337 22.5q-129 0 -199 -22q-90 -29 -155 -117l-134 -178q-2 -2 -8 -2q0 4 -8 6l-2 6q18 68 115 176q193 217 512 217q66 0 360 -61 q106 -23 254 -58l8 -10v-4q0 -8 -28 -53q-45 -86 -82 -240l-62 -252q-10 -41 -22 -80q-59 -188 -142 -323l281 -119q2 -6 2 -33l-2 -4q-141 63 -297 129q-145 -188 -281 -272q-164 -102 -374 -103q-135 0 -224 64q-100 72 -100 201zM90 37q78 -47 189 -47q342 0 544 401 l-202 45q-111 25 -205 25h2q-160 0 -273 -53q-149 -70 -149 -209q0 -106 94 -162z" />
<glyph unicode="J" horiz-adv-x="1318" d="M-37 545q0 287 205 512q176 195 469 309q283 111 547 111q37 0 61 -9l12 -10v-6q0 -10 -18 -39q-49 -102 -90 -242q-57 -195 -238 -796q90 31 346 102v-10q0 -43 -75 -53q-25 -2 -111 -15q-51 -12 -172 -55q-27 -70 -94 -213q-88 -186 -246 -342q-182 -180 -358 -182h-4 q-107 0 -107 106q0 174 248 361q164 123 405 229q106 387 168 563q119 336 263 512l55 68l-10 -2q-317 0 -586 -131q-279 -137 -453 -392q-172 -252 -172 -474v-5q2 -135 66 -276l-15 -14q-96 203 -96 393zM113 -303q0 -70 80 -70q174 0 344 238q141 199 190 401 q-106 -55 -262 -149q-117 -86 -215 -189q-137 -143 -137 -231z" />
<glyph unicode="K" horiz-adv-x="1814" d="M-25 6q0 4 5 8h24q31 0 88.5 -12t87.5 -12q254 0 418 143q143 125 238 381l-39 47q22 20 69 43l109 393q55 201 199 349l-185 -5h-25q-74 0 -194 9q-154 12 -221 12q-154 0 -234 -45q-37 -20 -180 -152h-2v-2h-4l-8 13q6 23 41 57q215 215 536 215q68 0 168 -18 q66 -12 166 -33q63 -4 182 -25l9 -8q-41 -29 -187 -655q250 201 566 692h22q8 -2 21 -2q23 0 53 14q43 14 51 14q6 0 12 -10v-4q0 -8 -2 -10q-49 -49 -131 -164t-123 -164q-180 -209 -489 -416q-31 -61 -58 -157q117 -100 193 -178l178 -181q121 -98 227 -98q117 0 261 129 q4 0 10 2q6 -2 8 -10l-2 -8q-164 -164 -389 -164q-123 0 -223 72q-76 55 -162 174q-96 131 -150 188q-117 -205 -311 -336q-207 -141 -430 -141q-47 0 -107 14q-86 20 -86 41z" />
<glyph unicode="L" horiz-adv-x="1564" d="M115 244q111 28 245 28h9q53 0 215 -18q61 125 94 332q41 258 59 325q51 182 168 322q193 229 391 229q98 0 156 -80q51 -70 51 -172q0 -248 -180 -452q-158 -180 -408 -283q-14 -6 -55 -22q-33 29 -67 36l-11 9h-2v4q0 4 4 8h11q10 0 49 -4q47 -6 49 -6q86 0 217 108 q106 88 174 187q152 219 152 436q0 78 -37 137q-43 70 -117 70q-256 0 -405 -566q-23 -88 -95 -337q-41 -141 -164 -287q160 -27 353 -84q82 -25 164 -51q98 -27 168 -27q125 0 231 100v-26q-244 -160 -342 -160q-133 0 -330 57l-330 97q-186 -160 -389 -160 q-198 0 -198 114q0 93 170 136zM-35 104q0 -37 66 -57q47 -14 96 -14q225 0 373 129q-131 37 -318 37q-66 0 -129 -19q-88 -25 -88 -76z" />
<glyph unicode="M" horiz-adv-x="2144" d="M-111 205q63 -76 172 -133.5t203 -57.5q166 0 299 127q111 104 185 277q4 6 129 303q98 233 223 430q193 303 344 303q68 0 106 -53q33 -45 33 -117q0 -119 -106 -405q-39 -102 -166 -412q205 401 274 512q195 311 381 414q96 53 131 53q39 0 39 -57q0 -12 -115 -293 q-354 -864 -354 -981q0 -80 84 -80q131 0 346 117v-29q-201 -115 -362 -115q-184 0 -185 156q0 147 199 624q184 442 293 613q-199 -102 -428 -445q-193 -291 -305 -557q-14 -39 -58 -143l-14 -31q-53 -127 -88 -159q-68 -23 -121 -50h-6q-8 0 -8 9q14 76 49 147 q102 215 274 684q158 430 158 512q0 68 -61 68q-139 0 -310 -381q-258 -578 -344 -709q-250 -381 -577 -381q-131 0 -289 94q-10 100 -25 146z" />
<glyph unicode="N" horiz-adv-x="1894" d="M-72 584q0 315 264.5 590.5t577.5 275.5q141 0 217 -119q62 -96 62 -227v-23q444 354 780 379q-174 -217 -344 -581q-189 -403 -189 -639q0 -213 189 -215h3q133 0 380 176v-29q-213 -174 -369 -174t-235 113q-70 98 -70 260q0 281 195 581q113 174 399 484 q-176 -37 -391 -152q-207 -109 -348 -233q0 -268 -115 -564q-129 -334 -322 -467q-40 -28 -73 -28h-2q-63 0 -64 119q0 209 162 477q129 213 315 403q18 152 19 203q0 227 -203 227q-186 0 -387 -172q-162 -139 -279 -336q-135 -229 -135 -424q0 -78 49 -188l-8 -6 q-78 139 -78 289zM502 63q0 -47 30 -47q53 0 193 316q152 344 209 612q-262 -283 -373 -641q-57 -184 -57 -240h-2z" />
<glyph unicode="O" horiz-adv-x="1277" d="M-41 516q0 338 291 633q221 223 270 223q4 -2 2 -8q-12 -18 -106 -113q-141 -141 -238 -403q-92 -250 -92 -463q0 -387 281 -387q213 0 389 229q129 166 217 422q92 266 92 486q0 315 -242 315q-272 0 -452 -524q-4 -8 -6 -8q-6 0 -13 12q43 225 152 366q133 176 338 177 h2q174 0 266 -173q76 -141 76 -329q0 -217 -119 -451q-113 -225 -287 -370q-197 -166 -407 -166q-209 0 -320 170q-94 143 -94 362z" />
<glyph unicode="P" horiz-adv-x="1853" d="M-47 621q0 256 207 462q168 168 436 273q260 102 504 102q268 0 456 -141q207 -158 207 -418q0 -358 -305 -635q-297 -266 -659 -266q-45 0 -152 14q-41 -164 -74 -233q-68 -143 -172 -150l-4 -2l-6 6q18 51 92 287q31 115 140 500q84 297 174 487q121 254 303 416 q70 61 84 61q6 0 6 -8q-6 -12 -57 -82q-203 -270 -471 -1249q102 -20 161 -20q311 0 563 301q240 287 240 604q0 231 -142.5 364t-375.5 133q-281 0 -550 -143t-435 -373q-137 -188 -139 -358v-5q0 -98 73 -216v-4q0 -10 -14 -11q-31 0 -61 136q-29 125 -29 168z" />
<glyph unicode="Q" horiz-adv-x="1193" d="M-39 604q0 291 221 567q233 291 516 291q193 0 310 -137q111 -129 110 -326q0 -522 -538 -880q305 -137 563 -348q37 82 37 133v10l10 6h6q12 0 12 -33q0 -55 -39 -137q-43 -92 -90 -92q-8 0 -123 98q-244 209 -510 289q-201 -80 -315 -82h-6q-152 0 -152 105 q0 66 105 96q71 22 151 22h7q115 0 311 -57q178 135 307 432q125 283 125 520q0 152 -61 246q-74 113 -218 113q-281 0 -460 -389q-152 -326 -152 -637q0 -76 23 -205q-150 147 -150 395zM-8 63q0 -63 143 -63q121 0 281 53q-184 59 -307 60q-117 -1 -117 -50z" />
<glyph unicode="R" horiz-adv-x="1648" d="M-66 555q0 387 373 657q342 248 746 248q221 0 362 -90q170 -106 170 -315q0 -190 -162 -357q-133 -139 -333 -223q-102 -43 -287 -84q66 -41 162 -121q35 -35 104 -102l43 -43q92 -74 191 -74q120 1 323 142v-27q-129 -82 -196 -113q-100 -45 -220 -45q-115 0 -213 62 q-57 37 -157 139q-109 113 -160 149q-37 -117 -94 -221q-83 -151 -153 -151h-1l-2 4v4q0 16 51 178l66 207q41 152 149 491q76 211 287 428q84 86 102 86q6 0 7 -4v-14q-18 -27 -93 -135q-133 -197 -305 -825q8 2 64 6q254 20 477 246.5t223 478.5q0 158 -131 235 q-109 63 -276 64q-401 0 -727 -293q-336 -303 -336 -701q0 -41 28 -139q14 -49 15 -55q0 -6 -15 -6q-82 106 -82 313z" />
<glyph unicode="S" horiz-adv-x="1153" d="M-29 244q0 174 166 256q127 63 322 63q145 0 270 -33q-39 76 -145 289q-96 190 -97 293v-2q0 145 109 240q102 90 250 90q78 0 136 -42t58 -118q0 -55 -80.5 -157.5t-132.5 -102.5q-4 2 -4 6q0 33 59.5 119t59.5 137q0 55 -30.5 99t-84.5 44q-98 0 -156.5 -69.5 t-58.5 -169.5q0 -131 117 -344q131 -240 150 -344l206 -56l13 -8q14 -31 14 -47q-145 68 -231 88q2 -18 2 -78q0 -109 -90 -215q-80 -94 -189 -143q-127 -57 -268 -57q-143 0 -244 59q-121 70 -121 203zM94 209q0 -102 74 -158q68 -51 172 -51q166 0 285.5 126t119.5 294 q0 31 -12 92q-119 23 -215 23q-162 0 -285 -80q-139 -92 -139 -246z" />
<glyph unicode="T" horiz-adv-x="1441" d="M-37 809q0 283 244 469q219 168 514 180q49 2 110 2q137 0 408.5 -39t409.5 -39q12 -12 12 -18q0 -37 -31 -61.5t-69 -24.5q-152 0 -454 47t-454 47q-270 0 -448 -135q-199 -147 -199 -410q0 -188 139 -374l2 -15l-6 -6l-8 2q-47 55 -125 170q-45 88 -45 205zM141 143 q0 150 140 236q119 74 276 74l2 2q66 0 154 -17q121 -23 121 -57q-6 -8 -15 -8q-35 0 -101.5 15t-99.5 15q-154 0 -278 -59q-164 -78 -164 -209q0 -190 256 -190q418 0 578 526q31 106 123 412q23 76 100 225q94 178 135 178q4 -2 10 -10l-2 -10l-174 -564 q-106 -346 -258 -532q-203 -252 -510 -252q-121 0 -201 51q-92 59 -92 174z" />
<glyph unicode="U" horiz-adv-x="1771" d="M-70 559q0 344 308 615q297 260 645 260q84 0 137 -37q61 -41 61 -121q0 -117 -184 -485q-66 -129 -252 -498q-88 -176 -88 -244q0 -47 41 -47q43 0 152 96q227 201 491 617q215 338 381 698q51 16 139 37l4 -6q-14 -70 -120 -314l-220 -497q-151 -342 -151 -494 q0 -123 129 -123q121 0 338 121l2 -26q-168 -123 -334 -123q-102 0 -168 53q-72 57 -72 156q0 137 140 473q45 106 207 479q-152 -322 -400 -678q-338 -487 -524 -487q-53 0 -84 45q-29 39 -29 94q0 145 174 485q66 127 252 488q86 168 86 233q0 82 -112 82 q-283 0 -580 -260q-340 -297 -340 -629q0 -160 121 -299v-10q0 -8 -8 -8q-6 0 -13 6q-63 51 -98 160q-31 92 -31 188z" />
<glyph unicode="V" horiz-adv-x="1771" d="M-90 602q0 391 446 633q369 199 803 199q43 0 43 -37q0 -10 -76 -92q-182 -197 -309 -482q-137 -303 -137 -551q0 -115 51 -184q57 -78 168 -78q205 0 381 238q125 168 209 407q86 250 86 451t-37 256q-18 29 -55 78v6l6 8l10 4h4q111 0 168 -127q45 -98 45 -223 q0 -231 -127 -502q-125 -258 -301 -424q-212 -198 -432 -198h-2q-145 0 -233 102q-82 94 -82 244q0 205 133 461q121 233 282 395q61 61 224 219q0 10 -48 10q-240 0 -524 -131q-268 -123 -450 -301q-217 -213 -217 -436q0 -156 153 -279q-4 -45 -14 -41q-168 180 -168 375z " />
<glyph unicode="W" horiz-adv-x="2101" d="M-61 1092q4 2 6 14q2 6 12 33q27 70 129 159q150 131 389 132q152 0 322 -33q18 -5 315 -64v-2q0 -20 -113 -20q-45 0 -100 -78q-45 -63 -63 -121l-183 -571q-31 -100 -102 -281q-10 -18 -57 -113q-35 -68 -41 -116l2 -11l10 -6h2q6 0 19.5 14.5t15.5 22.5q47 63 260 424 q256 434 362 594q201 303 265 303q33 0 32 -31q0 -12 -65 -124q-109 -188 -179.5 -443.5t-70.5 -470.5q0 -297 168 -297q92 0 213 105q193 168 301 464q98 268 98 551q0 233 -112 295q6 20 36 21q29 0 62 -23q154 -70 156 -329v-8q0 -278 -138 -546q-140 -272 -370 -440 q-159 -116 -287 -116h-2q-121 0 -195.5 75.5t-74.5 196.5q0 197 94 457q84 236 207 424l75 100q49 66 64 106q-4 12 -17 17h-6q-92 -49 -471 -705q-369 -637 -448 -655q-31 10 -31 67v31q0 299 158 699q184 467 415 534q-27 -2 -122 -2q-96 0 -287 13.5t-287 13.5 q-188 0 -293 -166l-30 -62q-25 -49 -31 -49q-12 0 -12 17z" />
<glyph unicode="X" horiz-adv-x="1894" d="M-80 670q0 305 295 542q279 223 594 224q131 0 223 -60q111 -70 111 -192q0 -43 -13 -107q-12 -51 -22 -104q397 477 678 477h61q2 -4 2 -14q-18 -37 -26 -37q-33 18 -74 18q-123 0 -291 -164q-422 -410 -440 -520h239q6 0 17 -6q0 -8 -27 -35l-241 -2q-94 -297 -95 -424 q0 -111 60 -186q63 -82 172 -82q223 0 405 242q170 223 170 454q0 20 -12 62.5t-12 62.5l8 4q12 -8 27 -24q59 -68 59 -150q0 -240 -208 -458t-447 -218q-164 0 -256.5 94.5t-92.5 258.5q0 76 25 174q-266 -279 -326 -332q-244 -219 -377 -219q-37 0 -77 14l-19 21v10 q0 23 37 86q14 8 12 8q74 -98 99 -98q90 0 325 239q145 147 291 324q53 63 86 106q2 6 8 27l-266 -6q-8 8 -8 10q0 4 4 10l29 21l252 6l88 258q51 150 51 266q0 168 -217 168q-279 0 -556.5 -265t-277.5 -542q0 -23 6.5 -69.5t6.5 -69.5l-5 -2l-2 2q-53 94 -53 197z" />
<glyph unicode="Y" horiz-adv-x="1730" d="M-61 719q0 414 462 637q193 92 359 92q82 0 137 -43t55 -123q0 -135 -159 -485q-59 -129 -230 -496q-76 -164 -76 -246q0 -45 35 -45q193 0 563 584q287 449 424 784q98 29 140 49h8q8 0 8 -10q0 -27 -188 -581q-174 -512 -228 -650q154 37 422 93q8 0 8 -7 q0 -25 -26 -51q-268 -31 -420 -67q-111 -201 -256 -353q-194 -202 -359 -202h-2q-121 0 -120 116q0 147 237 283q162 92 373 149q59 166 354 1061q-293 -561 -395 -721q-323 -499 -554 -499h-1q-53 0 -86 47q-29 41 -29 98q0 117 160 469l219 483q78 172 78 242 q0 92 -127 92q-98 0 -244 -78q-115 -61 -215 -145q-293 -246 -293 -518q0 -170 162 -387v-4q0 -4 -4 -8q-2 2 -4 2q-188 178 -188 438zM528 -307q0 -80 88 -80q139 0 291 186q106 131 189 318q-565 -213 -566 -424h-2z" />
<glyph unicode="Z" horiz-adv-x="1771" d="M-78 55q0 57 113 86q74 18 162 19q10 0 321 -23q160 86 309 244q74 78 256 301q-24 0 -94 -4q-37 -2 -37 8q2 8 21 35l139 -2q115 158 264 321q205 225 295 263q-70 -4 -153 -5q-109 0 -322 44t-322 44q-276 0 -466 -253q-176 -233 -177 -519q0 -286 180 -286h1 q180 0 309 288q108 242 108 447q0 22 -6 61t-6 58v12q6 6 8 6q23 0 39 -84q14 -72 15 -106q0 -193 -131 -430q-147 -268 -322 -269q-129 0 -195 105q-55 86 -55 223q0 174 123 371q109 176 262 297q215 170 449 170q135 0 385 -97q160 -61 229 -61q49 0 70 12h8q6 0 6 -10 l-2 -6q-117 -178 -416 -592q-2 0 31 2h65h95q8 0 12 -4l-2 -8l-35 -27l-199 2q-338 -383 -686 -553l394 -49q229 -29 393 -29q236 0 379 119q2 -4 2 -18v-6q-2 -2 -2 -7q-254 -178 -592 -178q-274 0 -756 101q-160 -78 -328 -78q-139 0 -139 65zM-61 57q18 -43 118 -43 q160 0 289 60q-157 32 -283 32h-8v3q-102 0 -116 -52z" />
<glyph unicode="[" d="M-84 -326l619 1768h280l-10 -27h-158l-602 -1714l160 -2l-10 -29z" />
<glyph unicode="\" horiz-adv-x="569" d="M-35 1509h135l504 -1548h-137z" />
<glyph unicode="]" d="M-236 -330l13 29h157l611 1712l-160 4l10 29l281 -4l-629 -1770h-283z" />
<glyph unicode="^" horiz-adv-x="0" d="M92 1559q27 33 107 120q27 29 75 113h136q37 -100 43 -115q26 -63 61 -104l2 -14l-6 -11l-8 -4q-41 2 -193 172q-150 -150 -203 -170h-6q-8 0 -8 13z" />
<glyph unicode="_" horiz-adv-x="1138" d="M0 -154h1139v-102h-1139v102z" />
<glyph unicode="`" horiz-adv-x="0" d="M-152 1231q0 4 7 10q14 -2 69 -2q10 0 105 4q81 -174 159 -278l5 -15l-7 -10l-6 -4h-4q-31 0 -179.5 133t-148.5 162z" />
<glyph unicode="a" horiz-adv-x="989" d="M-49 168q0 211 166 418q176 217 381 217q74 0 178 -68q121 68 129 68q10 0 10 -10q0 -2 -2 -7q-63 -154 -143 -364q-113 -297 -113 -342q0 -63 94 -64q143 0 340 123v-24q-125 -66 -157 -80q-98 -43 -170 -43q-68 0 -125 28q-68 33 -80 93q-160 -123 -324 -123 q-184 0 -184 178zM76 131q0 -117 119 -117q106 0 264 138q6 84 78 268q39 102 108 266l-4 21l-49 43q-74 34 -118 34h-3q-133 0 -270 -264q-125 -242 -125 -389z" />
<glyph unicode="b" horiz-adv-x="866" d="M-43 115q0 72 51 204q23 53 80 207l299 830q16 4 77.5 34.5t76.5 30.5v-2q-4 -16 -37 -108q-14 -39 -82 -217l-201 -527q-153 -400 -153 -482q0 -34 26.5 -58.5t59.5 -24.5q205 0 348 320q-102 145 -103 296q0 80 25 140q33 80 100 80q66 0 101 -90q26 -66 26 -140v-6 q0 -125 -100 -305q84 -92 221 -92q47 0 53 -6q-12 -25 -49 -25q-55 0 -125.5 32t-111.5 73q-117 -145 -179 -197q-121 -100 -239 -100q-63 0 -111 34q-53 39 -53 99zM438 600q0 -113 74 -260q55 207 55 281q0 143 -55 188h-14q-59 0 -60 -209z" />
<glyph unicode="c" d="M-31 180q0 188 164 395q172 219 354 220q49 0 82 -35t33 -84q0 -86 -80 -201q-84 -123 -166 -123h-6l-14 6l-12 17l-2 14q16 68 141 154q115 78 115 162q0 31 -29 50t-62 19q-152 0 -274 -231q-106 -201 -107 -371q0 -164 158 -164q100 0 234 53q119 47 213 115v-33 q-152 -74 -242 -106q-137 -51 -258 -51q-242 0 -242 194z" />
<glyph unicode="d" horiz-adv-x="905" d="M-45 172q0 190 154 399q164 223 348 224q47 0 155 -60l215 613q46 20 144 90l12 2l2 -6q0 -106 -123 -406q-47 -109 -174 -422q-172 -430 -172 -524q0 -72 90 -72q129 0 314 111v-31q-199 -100 -310 -100q-158 0 -192 114q-149 -120 -262 -120h-2q-90 0 -144.5 50 t-54.5 138zM170 6q135 0 242 144q20 127 75 270q8 23 103 262q-43 98 -133 98q-139 0 -269 -262q-112 -227 -112 -386q0 -126 94 -126z" />
<glyph unicode="e" horiz-adv-x="616" d="M-35 218q0 310 248 505q96 76 145 76t78 -38t29 -89q0 -199 -373 -451v-41q0 -170 156 -172h8q93 0 197 47q102 45 174 117v-33q-200 -151 -383 -151h-2q-135 0 -199 43q-78 53 -78 187zM90 248q111 76 215 209q121 156 121 264q0 9 -6 27q-12 10 -27 12 q-121 0 -217 -203q-74 -156 -86 -309z" />
<glyph unicode="f" d="M-37 152q0 92 43 237q53 180 117 180q37 0 47 -45l16 -69q109 340 164 481q125 317 242 424q47 43 70 43q36 0 36 -51q0 -242 -110 -496q-109 -246 -285 -422l-119 -416q43 -4 99 -4q219 0 426 164q2 -2 2 -14q0 -14 -4 -21q-199 -154 -451 -155q-37 0 -78 6l-41 -152 q-16 -70 -31 -139q-29 -98 -73 -98q-43 0 -43 55q0 137 78 356q-104 41 -105 136zM33 121q0 -66 43 -76l59 199l-98 -80q-4 -37 -4 -43zM39 193q41 39 102 88q2 12 17 61q10 36 10 61q0 53 -35 64l-12 -8q-55 -84 -82 -266zM319 487q109 109 242 457q113 299 113 420 q-1 20 -21 20q-88 -37 -194 -409z" />
<glyph unicode="g" horiz-adv-x="989" d="M-41 172q0 195 164 408q172 225 360 225q98 0 195 -66q49 29 131 68h4q6 0 6 -8q-4 -10 -43 -105q-20 -49 -106 -293l-148 -419q66 23 260 88q41 18 207 90l2 -29q-86 -41 -237 -96l-242 -88q-53 -111 -147 -211q-119 -127 -209 -127q-84 0 -84 65q0 109 303 252l65 168 q-149 -108 -284 -108h-2q-84 0 -139.5 51t-55.5 135zM88 133q0 -123 117 -123q119 0 248 131l202 555h2q-55 90 -168 90q-147 0 -282 -258q-119 -227 -119 -395zM94 -322q1 -53 58 -53q117 0 208 260q-266 -117 -266 -207z" />
<glyph unicode="h" horiz-adv-x="905" d="M-45 154q0 80 61 247l353 963q39 14 141 78h2q4 -4 4 -8q0 -6 -41 -129q-119 -358 -358 -951q-27 -61 -80 -186q-25 -70 -37 -135q4 -16 14 -17q8 0 101 172q104 197 219 355q180 250 287 250q81 0 81 -104q0 -93 -98 -303t-98 -290q0 -86 117 -86t280 127v-24 q-156 -123 -291 -123q-92 0 -149 51t-57 143q0 74 104 300.5t102 275.5l2 6q-2 8 -10 8q-92 0 -278 -274q-131 -193 -222 -371q-23 -47 -63 -117q-12 -12 -31 -12q-18 0 -30 25q-25 86 -25 129z" />
<glyph unicode="i" horiz-adv-x="454" d="M-25 143q0 96 68 285q27 72 107 287q90 37 139 80h-2q4 2 18 2q8 0 8 -13q0 -92 -120.5 -344t-120.5 -350q0 -80 94 -80q102 0 301 140v-27q-168 -137 -307 -137q-78 0 -131.5 41t-53.5 116zM229 1051q0 79 80 79h2q33 0 55.5 -23t22.5 -56t-22.5 -56.5t-55.5 -23.5 q-82 0 -82 80z" />
<glyph unicode="j" horiz-adv-x="616" d="M-27 27q0 152 25 192q33 53 172 84l145 414q-170 -72 -209 -109q-53 -49 -116 -202q-10 45 -10 34q0 31 34 97q49 92 131 137q43 25 162 59q106 33 158 68h6q10 0 10 -17q0 -14 -174 -481q102 -10 176 -31q131 -37 138 -84q-2 -12 -11 -12q-14 8 -63 33q-104 55 -252 61 l-111 -293q-37 -98 -92 -251q-10 -43 -31 -95l-12 -4q-4 0 -14 4q-31 16 -49 181q-12 111 -13 215zM-6 -111q0 -51 31 -192q23 238 131 567q-98 -41 -138 -158q-22 -70 -24 -217zM416 1053q0 33 24.5 57.5t57.5 24.5t55 -24.5t22 -57.5t-22.5 -55.5t-54.5 -22.5 q-33 0 -57.5 22.5t-24.5 55.5z" />
<glyph unicode="k" horiz-adv-x="905" d="M-37 143q0 111 49 240q25 59 90 231q78 203 256 744q78 31 142 72h2q0 -2 3 -2.5t3 -4.5q0 -174 -111 -415q-55 -111 -178 -406l-102 -280q-12 -31 -58.5 -151t-46.5 -148q0 -6 13 -11q4 2 12 11q16 25 94 182q129 260 201 364q158 227 313 228q51 0 87 -35t36 -86 q0 -147 -184 -256q-143 -84 -318 -119q86 -43 119 -68.5t82 -93t78 -92.5q47 -41 98 -41q80 0 152 43q37 20 127 98v-28q-84 -70 -136 -96q-74 -39 -159 -39q-131 0 -248 96q-72 59 -180 205l-72 -158q-51 -111 -88 -133q-2 -2 -23 -2q-25 0 -41 65q-12 49 -12 86zM215 315 q16 0 43 4q113 16 251 144.5t138 236.5q0 58 -55 58q-90 0 -219 -178q-86 -121 -158 -265z" />
<glyph unicode="l" horiz-adv-x="454" d="M-23 154q0 98 58 249q27 63 94 248l256 717l135 68h6q4 0 4 -4q0 -2 -2 -7l-264 -778q-10 -31 -108 -299q-86 -236 -86 -268q0 -76 94 -78h4q118 0 301 113v-29q-188 -102 -305 -102q-84 0 -135.5 44t-51.5 126z" />
<glyph unicode="m" horiz-adv-x="1359" d="M-61 135v8q0 117 55 277q18 53 108 270q10 27 12.5 29t28.5 16q66 37 115 58q8 -2 8 -13q0 -8 -12 -41l-274 -719q2 -4 12 -4q35 35 162 287q74 147 188 293q154 197 256 197q35 0 56.5 -38t21.5 -75q0 -102 -70 -260q-31 -66 -114 -254q-49 -111 -50 -146q0 -4 4 -4h15 q0 6 82 156q342 625 512 625q39 0 60.5 -35t21.5 -76q0 -96 -88 -299t-88 -295q0 -72 104 -72q106 0 287 117v-28l2 2q-158 -113 -289 -113q-92 0 -148.5 50t-56.5 142q0 80 60 224q23 57 92 221q35 82 35 127q0 2 -5 6h-8q-8 -4 -37 -18q-86 -39 -249 -285 q-141 -211 -204 -341t-93 -130q-33 0 -54 43q-16 37 -16 74q0 92 84 317l121 326h2v4l-2 4l-6 4h-2q-90 0 -277 -279q-135 -203 -221 -383q-55 -114 -93 -114h-1q-45 0 -47 145z" />
<glyph unicode="n" horiz-adv-x="905" d="M-45 119q0 121 68 303q39 106 110 299q55 33 150 70l4 -3l4 -6q-12 -39 -162 -395q-131 -311 -131 -344q0 -8 8 -8l10 4q33 33 64 96q12 29 51 105q66 125 217 315q180 227 268 227q33 0 56.5 -34.5t23.5 -69.5q0 -92 -95 -299t-95 -299q0 -63 102 -64q80 0 158 37 q35 16 137 86l2 -26q-150 -123 -303 -123q-84 0 -139 48t-55 132q0 82 102 297t102 285q-2 2 -8 2q-29 0 -127 -92q-201 -188 -358 -494q-14 -31 -60 -123q-16 -33 -45 -43q-59 0 -59 117z" />
<glyph unicode="o" horiz-adv-x="866" d="M-51 203q0 141 80 286q74 137 190 232q86 70 123 70q10 0 10 -9q0 -6 -30 -39q-242 -256 -242 -557l-2 -2q0 -168 108 -168q178 0 295 328q-115 164 -114 326q0 204 107 204h1q78 0 117 -88q29 -66 31 -155v-7q0 -125 -72 -298q78 -66 172 -66q70 0 139 37l-2 -27 q-61 -34 -140 -34h-5q-90 0 -176 57q-180 -307 -373 -307q-102 0 -159.5 57t-57.5 160zM401 705q0 -158 93 -316q22 104 22 222v10q0 170 -57 213l-10 2q-47 -12 -48 -131z" />
<glyph unicode="p" horiz-adv-x="1030" d="M-51 127q0 104 139 104q4 0 49 -4l176 494q-260 -143 -325 -387q-8 -29 -17 -29q-6 0 -6 6q0 25 27 105q74 221 336 336l32 79q55 18 129 35q2 -2 3 -12q0 -16 -19 -59q45 4 51 4q289 0 289 -236q0 -242 -317 -479q102 -70 192 -70q86 0 156 29q47 18 137 76v-27 q-168 -102 -289 -102q-94 0 -262 59q-133 -57 -254 -57q-49 -137 -100 -328l-123 -70q0 74 108 410q-113 39 -112 123zM10 106q0 -55 56 -90l65 191q-121 -16 -121 -101zM182 4q90 15 207 64q-47 45 -145 104zM254 201q97 -41 195 -88q225 207 227 436q0 98 -53.5 157.5 t-149.5 59.5h-14q-70 -176 -205 -565z" />
<glyph unicode="q" horiz-adv-x="948" d="M-47 164q0 213 160 420q172 223 376 223q72 0 179 -57l129 55l6 -6q-23 -63 -60 -160q-370 -968 -370 -1004q0 -6 8 -6q2 0 6 2q8 14 92 176q53 106 203 195q76 45 262 125l2 -29q-244 -98 -317 -159q-84 -70 -209 -289q-20 -37 -43 -39q-47 18 -47 135q0 123 82 326 q-172 -80 -258 -80q-201 0 -201 172zM78 152q0 -137 135 -138q45 0 117 39q66 37 98 74l213 573q-84 91 -158 91q-154 0 -286 -248q-119 -221 -119 -391z" />
<glyph unicode="r" horiz-adv-x="659" d="M-33 117q0 98 76 299q31 80 117 307q63 37 153 68l9 -9v-12q-35 -109 -107 -278q-35 -82 -104 -246q-76 -180 -76 -232q4 -4 8 -4q6 0 70 119q78 145 190 332v12q0 41 2 68q6 82 87 176t159 94q51 0 51 -53l-123 -123t-123 -180q0 -104 72 -163t178 -59q51 0 82 9l21 -27 q-33 -6 -105 -6q-193 0 -291 219q-61 -96 -219 -379q-8 -25 -41 -65h-16q2 0 -10 2q-59 49 -60 131z" />
<glyph unicode="s" horiz-adv-x="659" d="M-35 88q0 47 35 88q94 74 223 213q-20 76 -20 170q0 84 37 166q44 100 120 100q72 0 72 -92q0 -96 -98 -244q47 -170 47 -215q0 -135 -145 -245q68 -23 129 -23q137 0 299 137v-32q-164 -127 -293 -127q-61 0 -158 30q-50 -32 -113 -32h-4q-131 0 -131 106zM12 156 q33 -12 93.5 -58.5t97.5 -58.5q67 61 67 127q0 43 -14 102l-25 103q-31 -41 -107.5 -108.5t-111.5 -106.5zM301 635q0 -47 25 -119q72 127 71 201v2q0 57 -32 76q-25 0 -44.5 -40t-19.5 -69v-51z" />
<glyph unicode="t" horiz-adv-x="536" d="M-27 129q0 111 58 274q23 66 96 271h-84l35 47h65l133 371l142 20l-146 -391h244l-39 -49h-221l-106 -295q-78 -215 -78 -281q0 -94 112 -94q137 0 365 191v-31q-227 -180 -375 -180q-76 0 -133 34q-68 41 -68 113z" />
<glyph unicode="u" horiz-adv-x="948" d="M-45 143q0 80 82 303q25 68 115 310q100 39 143 47l8 -4v-6q0 -12 -162 -422q-86 -219 -86 -289q0 -43 56 -66q10 0 18 -2h18q57 0 136 47q39 23 123 84q27 139 90 308l114 299q55 23 148 45l8 -6v-7q-47 -100 -141 -360q-104 -289 -105 -344q0 -70 103 -70 q131 0 317 144v-33q-180 -135 -319 -135q-63 0 -125 32q-70 37 -82 95q-143 -121 -273 -121q-74 0 -127 39q-59 43 -59 112z" />
<glyph unicode="v" horiz-adv-x="905" d="M-47 141q0 57 78 283l104 301l160 66l-135 -363q-99 -264 -99 -342q0 -80 97 -80q113 0 225 113q98 98 141 217q-100 174 -100 289q0 219 127 219q55 0 88 -72q27 -59 27 -123v-6q0 -143 -88 -324q84 -86 225 -86q27 0 65 9l9 -13l-3 -10q-4 -20 -53 -20q-176 0 -258 100 q-199 -315 -424 -317q-80 0 -133 40.5t-53 118.5zM471 639q0 -109 66 -268q41 135 41 260v55q0 88 -29 125l-17 8q-61 -14 -61 -180z" />
<glyph unicode="w" horiz-adv-x="1318" d="M-63 131q0 78 77 293q20 55 115 301q147 74 152 78l2 -4l-138 -365q-106 -283 -106 -334q0 -90 98 -90q78 0 232 117v4q0 76 200 598l150 76l4 -8q-244 -633 -244 -705q0 -78 92 -78q113 0 220 119q80 90 137 219q-92 164 -92 281q0 217 118 217q113 0 113 -207 q0 -109 -96 -319q86 -90 221 -91q12 2 74 9l2 -31q-14 -2 -62 -2q-127 0 -248 96q-53 -117 -176 -211q-131 -102 -250 -102q-113 0 -163 112q-152 -113 -269 -114h-7q-65 0 -109 36q-46 38 -47 105zM879 676q0 -186 57 -301q45 207 45 319q0 119 -47 131q-55 -12 -55 -149z " />
<glyph unicode="x" horiz-adv-x="989" d="M-49 94q0 111 145 195q127 74 246 80q61 158 61 247q0 61 -37 100.5t-98 39.5q-72 0 -200 -71q-109 -61 -108 -69q0 -2 3 -2q-6 0 -6 11q0 41 135 102q123 55 176 55q66 0 135 -53q74 -59 74 -123q0 -6 -4 -26q180 211 328 211q92 0 92 -95q0 -172 -416 -301 q-55 -113 -55 -215q0 -78 46 -127t124 -49q162 0 356 164l2 -31q-179 -151 -368 -151h-2q-213 0 -230 200q-136 -196 -297 -196h-2q-43 0 -71.5 30.5t-28.5 73.5zM-12 84q-1 -78 71 -78q90 0 170 127q29 47 99 209q-340 -113 -340 -258zM479 420q367 133 367 295v-2 q0 53 -53 53q-96 0 -195 -129q-72 -94 -119 -217z" />
<glyph unicode="y" horiz-adv-x="905" d="M-31 162q0 94 72 282q27 68 111 285l141 68q4 -5 4 -11q-236 -578 -236 -677q0 -92 82 -93q82 0 248 111l211 594q16 8 148 82q6 0 6 -6q0 -23 -148 -414q-143 -379 -180 -459q106 29 254 92q166 72 236 127l-3 -28q-215 -113 -495 -215q-154 -289 -297 -289 q-29 0 -51 22q-8 23 -9 29q0 127 234 213l76 209q-133 -90 -240 -90q-164 0 -164 168zM90 -334v-8q2 -2 2 -6l8 -17q14 -8 25 -8q59 0 102 86q29 55 58 135q-113 -68 -121 -73q-74 -55 -74 -109z" />
<glyph unicode="z" horiz-adv-x="743" d="M-37 125q0 133 182 285q57 49 297 202q143 92 183 148q-39 -8 -101 -8q-20 0 -61.5 7t-61.5 7q-262 0 -262 -256q0 -29 2 -43q-51 78 -51 131q0 86 70 143q63 53 151 54q41 0 121 -13.5t121 -13.5q16 0 51 7t51 7q12 0 13 -10q0 -45 -127 -170q-86 -86 -164 -147 q-166 -133 -227 -199q-115 -121 -142 -240q20 49 83 94.5t116 45.5q51 0 159.5 -65.5t147.5 -65.5q88 0 229 110v-24q-168 -117 -292 -117q-63 0 -174 60.5t-130 60.5q-29 0 -137 -117q-4 -2 -10 -2q-18 0 -29 57q-8 45 -8 72z" />
<glyph unicode="{" horiz-adv-x="684" d="M86 479v123q113 0 147 139q21 78 17 228l-2 88q-4 176 22 268q45 154 191 154h137v-133h-90q-94 0 -94 -168v-232q0 -98 -6 -147q-10 -86 -54 -154q-47 -82 -121 -102v-4q184 -55 181 -408l-2 -178q-2 -221 96 -221h90v-133h-137q-98 0 -158 86q-51 74 -51 178v350 q0 94 -37 170q-45 96 -129 96z" />
<glyph unicode="|" horiz-adv-x="532" d="M193 -39v1548h149v-1548h-149z" />
<glyph unicode="}" horiz-adv-x="684" d="M86 -268h90q98 0 94 221q-2 111 -2 176q0 158 27 242q43 135 156 168l-2 4q-78 23 -130 114q-49 84 -49 170v351q0 168 -94 168h-90v133h137q213 0 213 -381q0 2 0 -21q-2 -23 -2 -45v-63q0 -162 17 -230q33 -137 147 -137v-123q-84 0 -129 -96q-37 -76 -37 -170v-350 q0 -104 -51 -178q-59 -86 -158 -86h-137v133z" />
<glyph unicode="~" horiz-adv-x="0" d="M41 1595q0 6 18 37q80 135 179 135q41 0 137 -51t123 -51q45 0 73 39q37 51 56 65h8q2 -2 6 -2q6 -6 6 -16q0 -49 -76.5 -113.5t-126.5 -64.5q-47 0 -145 52t-121 52q-37 0 -78 -50t-53 -50q-6 0 -6 18z" />
<glyph horiz-adv-x="1193" d="M-262 920l55 26l283 -96q49 96 96 164q-137 47 -334 112l58 29l301 -102q104 143 237 245q217 168 432 168q150 0 234 -96t84 -248l-43 41q0 125 -66.5 199t-189.5 74q-207 0 -398 -201q-98 -102 -168 -225l740 -252l-66 -17q-174 59 -577 193l-119 39q-53 -100 -82 -170 l741 -252l-65 -16q-268 92 -578 192l-114 37q-94 -246 -95 -428q0 -188 129 -283q113 -84 308 -84q285 0 645 207v-29q-274 -219 -615 -219q-248 0 -415 138q-180 145 -181 389q0 174 82 356z" />
<glyph unicode="&#xa1;" horiz-adv-x="659" d="M10 -20l391 950l21 -2l-242 -918zM406 1196q0 72 86 72q23 0 41 -24.5t18 -47.5q0 -49 -33 -57q-20 -14 -41 -15q-25 0 -39 15q-33 8 -32 57z" />
<glyph unicode="&#xa2;" d="M-31 180q0 180 149.5 380t321.5 231l68 206h45l-68 -202q51 0 84 -35t33 -86q0 -74 -82 -197q-86 -131 -153 -131q-14 0 -25 10l-115 -346q8 -2 37 -2q203 0 447 168v-33q-152 -74 -238 -104q-145 -53 -254 -53l-55 -168h-45l55 168q-205 14 -205 194zM106 172 q0 -113 80 -149l246 743q-131 -45 -233 -252q-92 -186 -93 -342zM385 485q102 72 123 93q70 63 70 127q0 70 -91 69h-8z" />
<glyph unicode="&#xa3;" horiz-adv-x="1318" d="M-12 68q0 152 186 151q84 0 350 -43q80 55 80 201v2q0 106 -53 319h-295v50h289q-14 70 -15 161q0 205 125 349.5t328 144.5q137 0 234 -68q111 -76 110 -207q0 -47 -14 -73q-6 -4 -10 -11q-2 0 -5.5 5.5t-19.5 72.5l-4 19q-59 240 -311 239q-154 0 -241 -96t-87 -252 q0 -158 43 -284h366v-50h-356q20 -137 21 -172q0 -186 -150 -360q51 -10 205 -51q125 -33 207 -33q16 0 44.5 8t45.5 8q8 0 10 -8q-49 -70 -59 -80q-29 -23 -97 -22q-145 0 -464 86q-156 -88 -285 -88q-51 0 -107 18q-72 23 -71 64zM6 80q12 -61 160 -62q76 0 129 21 q8 2 121 47q-201 41 -297 41h2q-102 0 -115 -47z" />
<glyph unicode="&#xa4;" horiz-adv-x="0" d="M203 1561q78 98 178 233q49 -4 53 -4q23 0 68 3t67 3q11 0 11 -16v-6q-309 -225 -369 -226z" />
<glyph unicode="&#xa5;" horiz-adv-x="0" d="M150 1774v8l6 8l6 4h8q41 0 184 -168q45 51 205 166h2q14 0 14 -10q-10 -25 -118 -135q-4 -4 -64 -99h-135q-63 190 -108 226z" />
<glyph unicode="&#xa7;" horiz-adv-x="905" d="M-111 -160q0 25 13.5 63t29.5 44q10 -6 23.5 -82t32.5 -96q45 -51 159 -52q109 0 169.5 61.5t60.5 170.5q0 88 -132 315.5t-132 310.5q0 268 303 388q-43 111 -43 174q0 147 107.5 250.5t254.5 103.5q74 0 124 -44t52 -116q2 -55 -51 -127h-6q-8 0 -8 6q0 16 8 45t8 45 q0 68 -52 113t-122 45q-94 0 -153.5 -65.5t-59.5 -159.5q0 -90 130 -323.5t130 -317.5q0 -270 -293 -393q31 -86 31 -176q0 -143 -106.5 -244t-251.5 -101q-92 0 -152 35q-74 43 -74 127zM207 705q0 -86 88 -240l133 -232q92 18 151.5 86t59.5 160t-80 232q-47 82 -127 219 q-92 -14 -156 -74q-70 -63 -69 -151z" />
<glyph unicode="&#xa8;" horiz-adv-x="0" d="M-162 1020q0 33 22.5 56.5t55.5 23.5t55.5 -23.5t22.5 -56.5t-22.5 -54.5t-55.5 -21.5t-55.5 21.5t-22.5 54.5zM143 1022q0 25 20.5 51.5t45.5 26.5h29q27 0 45 -25.5t18 -52.5t-19.5 -51.5t-43.5 -24.5h-29q-25 0 -45.5 24.5t-20.5 51.5z" />
<glyph unicode="&#xa9;" horiz-adv-x="1531" d="M55 635q0 283 190.5 473t473.5 190q281 0 473 -191t192 -472t-192.5 -472.5t-472.5 -191.5q-283 0 -473.5 190.5t-190.5 473.5zM133 635q0 -248 169 -417t417 -169t418 169t170 417q0 246 -171 417t-417 171q-248 0 -417 -170t-169 -418zM358 621q0 160 100.5 270 t260.5 110q35 0 101.5 -17t101.5 -17q39 0 47 30h35l8 -245h-37q-12 86 -78 142t-154 56q-121 0 -194 -106q-66 -94 -66 -221q0 -133 64 -213q70 -88 201 -88q129 0 247 102l21 -35q-135 -141 -289 -141q-166 0 -267.5 103.5t-101.5 269.5z" />
<glyph unicode="&#xaa;" horiz-adv-x="0" d="M80 1599q0 33 22.5 56.5t55.5 23.5t56.5 -23.5t23.5 -56.5q0 -27 -18.5 -51t-45.5 -24h-16q-78 0 -78 75zM387 1604q0 29 24.5 53t53.5 24t53.5 -24t24.5 -53q0 -33 -22.5 -56.5t-55.5 -23.5t-55.5 23.5t-22.5 56.5z" />
<glyph unicode="&#xab;" horiz-adv-x="782" d="M6 416q193 133 299 260h107q-125 -111 -299 -223l217 -281h-150zM262 418q156 102 287 260h106q-174 -150 -288 -225l219 -281h-150z" />
<glyph unicode="&#xac;" horiz-adv-x="1382" d="M-8 449v106h1280v-555h-105v449h-1175z" />
<glyph unicode="&#xad;" d="M23 373l34 82h510l-32 -82h-512z" />
<glyph unicode="&#xae;" horiz-adv-x="1531" d="M53 627q0 279 192.5 471t471.5 192t472 -192.5t193 -470.5q0 -281 -192.5 -473.5t-472.5 -192.5q-281 0 -472.5 192.5t-191.5 473.5zM131 625q0 -250 168 -418t418 -168q248 0 418 170t170 418q0 250 -170 417.5t-420 167.5q-248 0 -416 -169.5t-168 -417.5zM399 291v35 q94 0 95 49v555q0 47 -23 53q-4 4 -61 4v35h329q260 0 260 -180q0 -80 -56 -134.5t-136 -58.5l229 -297q20 -27 70 -26v-35h-182l-256 340h-52v-250q1 -55 93 -55v-35h-310zM614 944l2 -268q119 4 168 24q88 37 88 131q0 96 -65 127q-45 23 -152 23q-41 0 -41 -37z" />
<glyph unicode="&#xb0;" horiz-adv-x="454" d="M215 1028q0 121 84 205t205 84t205 -84t84 -205q0 -119 -85 -203t-204 -84q-121 0 -205 83t-84 204zM293 1028q0 -88 61.5 -148.5t149.5 -60.5t149.5 60.5t61.5 148.5t-62.5 149.5t-150.5 61.5t-148.5 -61.5t-60.5 -149.5z" />
<glyph unicode="&#xb1;" horiz-adv-x="1064" d="M-10 0v106h1020v-106h-1020zM-10 680v106h456v455h107v-455h457v-106h-457v-457h-107v457h-456z" />
<glyph unicode="&#xb4;" horiz-adv-x="0" d="M-20 948q0 12 102 174q10 18 61 121q33 -4 70 -4q49 0 98 4l8 -4l5 -6l-2 -8q-35 -47 -162 -164q-137 -127 -172 -127q-8 12 -8 14z" />
<glyph unicode="&#xb6;" horiz-adv-x="1366" d="M180 1038q0 197 131 305q121 102 322 103h471v-111h-70v-1677h-119v1677h-294v-1677h-119v995q-152 25 -237 128.5t-85 256.5z" />
<glyph unicode="&#xb7;" horiz-adv-x="333" d="M170 586q0 43 29.5 73.5t72.5 30.5q45 0 75 -29.5t30 -74.5t-29 -76t-74 -31q-43 0 -73.5 32t-30.5 75z" />
<glyph unicode="&#xb8;" horiz-adv-x="0" d="M-365 -377q4 6 43 37q121 94 121 180q0 37 -35 43q-6 2 -63 2q-10 0 -10 11q6 14 73.5 53t85.5 39q31 0 54 -43q20 -35 20 -70q0 -55 -82 -137q-63 -63 -131 -105q-49 -29 -65 -28q-10 0 -11 18z" />
<glyph unicode="&#xba;" horiz-adv-x="0" d="M41 1595q0 6 18 37q80 135 179 135q41 0 137 -51t123 -51q45 0 73 39q37 51 56 65h8q2 -2 6 -2q6 -6 6 -16q0 -49 -76.5 -113.5t-126.5 -64.5q-47 0 -145 52t-121 52q-37 0 -78 -50t-53 -50q-6 0 -6 18z" />
<glyph unicode="&#xbb;" horiz-adv-x="782" d="M4 176q53 53 289 223l-219 281h149l174 -244q-117 -78 -288 -260h-105zM250 176q147 125 295 223l-217 281h149l172 -244q-205 -152 -295 -260h-104z" />
<glyph unicode="&#xbf;" horiz-adv-x="782" d="M8 203q0 137 154 278q57 53 284 219q154 113 154 170q0 84 -113 86q-37 0 -133 -38l-4 6l15 45q47 20 106 20h2q176 0 176 -178q0 -94 -133 -211q-51 -41 -207 -168q-88 -74 -131 -102l-82 -80q-45 -43 -45 -100q0 -66 58 -103q49 -31 118 -31q104 0 217 117 q59 61 80 146q6 20 37 159l6 4h6q14 0 15 -49q0 -170 -94 -284q-100 -125 -267 -125q-88 0 -153.5 65.5t-65.5 153.5zM559 1243q0 74 70 74q73 0 73 -74q0 -72 -73 -72q-29 0 -49.5 21.5t-20.5 50.5z" />
<glyph unicode="&#xc0;" horiz-adv-x="1853" d="M-82 260q0 143 152 266q242 197 647 197q231 0 411 -14l222 440q162 322 301 321q75 0 75 -100t-219 -672l13 -2q29 0 87 4.5t87 4.5q25 0 32 -3q-12 -51 -49 -53l-184 -8l-102 -272q-74 -197 -74 -260q0 -41 29.5 -67t70.5 -26q145 0 400 168l-2 -20 q-213 -164 -406 -164q-221 0 -221 143q0 70 63 250l92 260l-180 9l-104 -183q-63 -109 -117 -174q-274 -330 -635 -330q-164 0 -264 60q-125 74 -125 225zM59 260q0 -129 78 -196.5t209 -67.5q449 0 764 676q-375 37 -438 37h2q-225 0 -406 -109q-209 -127 -209 -340z M870 1784q0 8 23 8q8 0 26.5 -2t26.5 -2q59 0 117 6q78 -86 184 -227v-8q-10 -11 -20 -11l-45 25q-311 170 -312 211zM1176 707l182 -7l274 730q0 16 -10 16q-12 0 -29 -16q-98 -74 -229 -336q-43 -88 -188 -387z" />
<glyph unicode="&#xc1;" horiz-adv-x="1853" d="M-82 260q0 143 152 266q242 197 647 197q231 0 411 -14l222 440q162 322 301 321q75 0 75 -100t-219 -672l13 -2q29 0 87 4.5t87 4.5q25 0 32 -3q-12 -51 -49 -53l-184 -8l-102 -272q-74 -197 -74 -260q0 -41 29.5 -67t70.5 -26q145 0 400 168l-2 -20 q-213 -164 -406 -164q-221 0 -221 143q0 70 63 250l92 260l-180 9l-104 -183q-63 -109 -117 -174q-274 -330 -635 -330q-164 0 -264 60q-125 74 -125 225zM59 260q0 -129 78 -196.5t209 -67.5q449 0 764 676q-375 37 -438 37h2q-225 0 -406 -109q-209 -127 -209 -340z M1022 1561q14 23 82 108l98 125q49 -4 53 -4q23 0 68 3t68 3q8 0 8 -12v-8q-295 -227 -367 -228q-10 0 -10 13zM1176 707l182 -7l274 730q0 16 -10 16q-12 0 -29 -16q-98 -74 -229 -336q-43 -88 -188 -387z" />
<glyph unicode="&#xc2;" horiz-adv-x="1853" d="M-80 262q0 143 152 266q242 197 647 197q231 0 411 -14l222 440q162 322 301 322q76 -1 76 -101t-220 -672l13 -2q29 0 87 4.5t87 4.5q25 0 33 -2q-12 -51 -50 -54l-184 -8l-102 -272q-74 -197 -74 -260q0 -92 100 -93q145 0 400 168l-2 -20q-213 -164 -406 -164 q-221 0 -221 143q0 72 63 252l93 258l-181 9l-104 -183q-63 -109 -117 -174q-274 -330 -635 -330q-164 0 -264 60q-125 74 -125 225zM61 262q0 -129 78 -196.5t209 -67.5q449 0 764 676q-375 37 -438 37h2q-225 0 -406 -109q-209 -127 -209 -340zM915 1559v6q12 16 103 112 q16 18 78 115h135l2 2q45 -152 102 -221v-19l-4 -6l-10 -6q-27 0 -100 74q-51 51 -88 102q-135 -141 -207 -172h-6zM1178 709l182 -7l274 730q0 16 -10 16q-12 0 -29 -16q-96 -72 -229 -336q-51 -100 -188 -387z" />
<glyph unicode="&#xc3;" horiz-adv-x="1853" d="M-82 260q0 143 152 266q242 197 647 197q231 0 411 -14l222 440q162 322 301 321q75 0 75 -100t-219 -672l13 -2q29 0 87 4.5t87 4.5q25 0 32 -3q-12 -51 -49 -53l-184 -8l-102 -272q-74 -197 -74 -260q0 -41 29.5 -67t70.5 -26q145 0 400 168l-2 -20 q-213 -164 -406 -164q-221 0 -221 143q0 70 63 250l92 260l-180 9l-104 -183q-63 -109 -117 -174q-274 -330 -635 -330q-164 0 -264 60q-125 74 -125 225zM59 260q0 -129 78 -196.5t209 -67.5q449 0 764 676q-375 37 -438 37h2q-225 0 -406 -109q-209 -127 -209 -340z M860 1597q6 8 14 29q86 141 183 141q41 0 137 -51t125 -51q49 0 82 45q41 57 47 59h8q10 0 10 -18q0 -51 -75.5 -114.5t-126.5 -63.5q-43 0 -143.5 52t-121.5 52q-35 0 -80 -50t-53 -50q-6 0 -6 20zM1176 707l182 -7l274 730q0 16 -10 16q-12 0 -29 -16q-98 -74 -229 -336 q-43 -88 -188 -387z" />
<glyph unicode="&#xc4;" horiz-adv-x="1853" d="M-82 260q0 143 152 266q242 197 647 197q231 0 411 -14l222 440q162 322 301 321q75 0 75 -100t-219 -672l13 -2q29 0 87 4.5t87 4.5q25 0 32 -3q-12 -51 -49 -53l-184 -8l-102 -272q-74 -197 -74 -260q0 -41 28.5 -67t69.5 -26q147 0 402 168l-2 -20 q-211 -164 -392 -164q-236 0 -235 143q0 70 63 250l92 260l-180 9q-27 -49 -102 -183q-61 -106 -117 -174q-270 -330 -637 -330q-164 0 -264 60q-125 74 -125 225zM59 260q0 -129 78 -196.5t209 -67.5q449 0 764 676q-375 37 -438 37h2q-225 0 -406 -109 q-209 -127 -209 -340zM1176 707l182 -7l274 730q0 16 -10 16q-12 0 -29 -16q-98 -74 -229 -336q-43 -88 -188 -387zM1442 1612q0 33 22.5 55.5t55.5 22.5q29 0 53 -24.5t24 -53.5t-24.5 -53.5t-52.5 -24.5q-33 0 -55.5 22.5t-22.5 55.5zM1747 1616q0 29 24.5 53.5t53.5 24.5 q25 0 51.5 -20.5t26.5 -43.5v-31q0 -25 -27 -43t-51 -18q-29 0 -53.5 24.5t-24.5 53.5z" />
<glyph unicode="&#xc5;" horiz-adv-x="1853" d="M-82 260q0 143 152 266q242 197 647 197q231 0 411 -14l222 440q162 322 301 321q75 0 75 -100t-219 -672l13 -2q29 0 87 4.5t87 4.5q25 0 32 -3q-12 -51 -49 -53l-184 -8l-102 -272q-74 -197 -74 -260q0 -41 28.5 -67t69.5 -26q147 0 402 168l-2 -20 q-211 -164 -392 -164q-236 0 -235 143q0 70 63 250l92 260l-180 9q-27 -49 -102 -183q-61 -106 -117 -174q-270 -330 -637 -330q-164 0 -264 60q-125 74 -125 225zM59 260q0 -129 78 -196.5t209 -67.5q449 0 764 676q-375 37 -438 37h2q-225 0 -406 -109 q-209 -127 -209 -340zM1176 707l182 -7l274 730q0 16 -10 16q-12 0 -29 -16q-98 -74 -229 -336q-43 -88 -188 -387zM1534 1681q0 61 47 108.5t109 47.5q63 0 111 -46.5t48 -109.5q0 -68 -46 -112.5t-113 -44.5q-66 0 -111 46t-45 111zM1587 1681q0 -104 103 -104 q47 0 75.5 28.5t28.5 75.5q0 45 -29.5 74t-74.5 29q-41 0 -72 -31t-31 -72z" />
<glyph unicode="&#xc6;" horiz-adv-x="2226" d="M-80 225q0 246 305 383q260 117 523 109l135 -4q102 238 215 438q186 330 288 330q78 -1 78 -107t-80 -340q-45 -131 -122 -348l217 70q49 31 49 213q0 211 71 350q92 180 283 182q78 0 135.5 -54t57.5 -132q0 -119 -97 -230q-63 -72 -196 -165q-12 -8 -21 -9l-4 9 q8 14 70 73q199 197 198 348q0 121 -102 121q-88 0 -184 -178q-49 -92 -80 -201q-8 -29 -57 -209q-18 -68 -42 -97t-85 -60q-330 -164 -330 -455q0 -127 88 -194q80 -61 209 -62q219 0 432 166q231 180 219 391q4 4 10 4l6 -6q0 8 15 -61q8 -39 8 -62q0 -213 -246 -346 q-207 -113 -436 -112q-178 0 -293 73q-135 86 -135 254q0 129 76 344l-178 6q-156 -354 -236 -467q-178 -246 -430 -245q-139 0 -231 69q-102 76 -103 211zM68 231q0 -109 64.5 -178t172.5 -69q213 0 367 245q33 53 76 146q4 12 116 284q-156 18 -211 19q-219 0 -389 -111 q-196 -127 -196 -336zM936 709l178 -9q252 699 252 742q0 8 -10 8q-90 -33 -242 -334q-100 -201 -178 -407z" />
<glyph unicode="&#xc7;" horiz-adv-x="1193" d="M-25 455q0 225 140 469q129 227 319 374q217 168 432 168q150 0 234 -96t84 -248q0 -272 -207 -518q-217 -256 -483 -256q-102 0 -168 57.5t-66 157.5q0 180 186 352q170 158 359 193l14 -2q0 -4 4 -16q-135 -80 -272 -170q-264 -172 -266 -369q-2 -166 174 -166 q227 0 459 277q223 268 223 501q0 125 -66.5 199t-189.5 74q-221 0 -420 -224q-147 -164 -252 -409q-109 -258 -109 -467q0 -188 129 -283q115 -84 310 -84q283 0 643 207v-29q-275 -219 -615 -219q-70 0 -141 13q20 -35 21 -72q0 -55 -112 -159.5t-167 -104.5q-12 0 -12 16 l4 10q162 117 162 209q0 37 -37 43q-4 2 -64 2h-4q-2 2 -4 2v17q66 41 111 63q-164 57 -258.5 186.5t-94.5 301.5z" />
<glyph unicode="&#xc8;" horiz-adv-x="1193" d="M-2 313q0 264 305 385q51 10 172 54q51 25 60 112q2 39 10 142q45 473 348 473q84 0 139 -48.5t55 -130.5q0 -104 -100 -235t-201 -156h-8q-2 0 -2 4q2 6 2 9q94 63 178 184q94 133 95 233q0 45 -29 74t-74 29q-152 0 -262 -324q-23 -68 -90 -266q-20 -61 -42 -85 t-81 -52q-342 -166 -342 -443q0 -129 86 -200.5t217 -71.5q195 0 420 150q250 166 250 346v12q-2 8 -2 12l6 8l10 -4q18 -55 19 -80q0 -215 -240 -354q-201 -117 -436 -117q-186 0 -311 76q-152 90 -152 264zM582 1784q0 8 22 8q8 0 26.5 -2t26.5 -2q14 0 117 4 q76 -98 121 -145q16 -18 59 -68q4 -12 4 -16q0 -15 -20 -15q-39 25 -47 25q-309 178 -309 211z" />
<glyph unicode="&#xc9;" horiz-adv-x="1193" d="M-2 313q0 264 305 385q51 10 172 54q51 25 60 112q2 39 10 142q45 473 348 473q84 0 139 -48.5t55 -130.5q0 -104 -100 -235t-201 -156h-8q-2 0 -2 4q2 6 2 9q94 63 178 184q94 133 95 233q0 45 -29 74t-74 29q-152 0 -262 -324q-23 -68 -90 -266q-20 -61 -42 -85 t-81 -52q-342 -166 -342 -443q0 -129 86 -200.5t217 -71.5q195 0 420 150q250 166 250 346v12q-2 8 -2 12l6 8l10 -4q18 -55 19 -80q0 -215 -240 -354q-201 -117 -436 -117q-186 0 -311 76q-152 90 -152 264zM735 1569q8 16 176 223q12 -2 56 -2q23 0 67.5 3t67.5 3 q10 0 10 -16q-49 -49 -180 -135q-145 -96 -189 -97q-8 0 -8 21z" />
<glyph unicode="&#xca;" horiz-adv-x="1193" d="M0 311q0 264 305 385q51 10 172 54q51 25 60 112q2 39 10 142q45 473 348 473q84 0 139.5 -48.5t55.5 -130.5q0 -102 -101.5 -235t-200.5 -156h-8q-2 0 -2 4q2 6 2 9q94 63 178 184q94 133 95 233q0 45 -29 74t-74 29q-150 0 -262 -324q-41 -119 -90 -266 q-20 -61 -40.5 -85t-82.5 -52q-342 -166 -342 -443q0 -129 88 -202q82 -70 215 -70q195 0 420 149q250 166 250 347v12q-2 8 -2 12l6 8l10 -4q18 -55 19 -80q0 -215 -240 -354q-201 -117 -436 -117q-186 0 -311 76q-152 90 -152 264zM623 1559q2 2 2 6q72 82 182 227h135 l2 -2q41 -123 76 -178q16 -25 29 -53l-7 -11l-12 -6q-74 25 -186 174q-147 -147 -205 -170h-6q-10 0 -10 13z" />
<glyph unicode="&#xcb;" horiz-adv-x="1193" d="M-2 313q0 264 305 385q51 10 172 54q51 25 60 112q2 39 10 142q45 473 348 473q84 0 139 -48.5t55 -130.5q0 -104 -100 -235t-201 -156h-8q-2 0 -2 4q2 6 2 9q94 63 178 184q94 133 95 233q0 45 -29 74t-74 29q-152 0 -262 -324q-23 -68 -90 -266q-20 -61 -42 -85 t-81 -52q-342 -166 -342 -443q0 -129 86 -200.5t217 -71.5q195 0 420 150q250 166 250 346v12q-2 8 -2 12l6 8l10 -4q18 -55 19 -80q0 -215 -240 -354q-201 -117 -436 -117q-186 0 -311 76q-152 90 -152 264zM610 1599q0 33 23.5 56.5t56.5 23.5q31 0 55.5 -24.5t24.5 -55.5 t-24.5 -53t-55.5 -22t-55.5 22.5t-24.5 52.5zM918 1604q0 33 22.5 55t54.5 22q27 0 52.5 -18t25.5 -43v-31q0 -27 -24.5 -46t-53.5 -19q-33 0 -55 23.5t-22 56.5z" />
<glyph unicode="&#xcc;" horiz-adv-x="1277" d="M-39 240q0 137 127 209q104 59 254 59q176 0 487 -90q59 121 125 313q78 223 121 318q74 160 193 278h-45q-113 0 -337 22.5t-337 22.5q-129 0 -199 -22q-90 -29 -155 -117l-134 -178q-2 -2 -8 -2q0 4 -8 6l-2 6q18 68 115 176q193 217 512 217q66 0 360 -61 q106 -23 254 -58l8 -10v-4q0 -8 -28 -53q-45 -86 -82 -240l-62 -252q-10 -41 -22 -80q-59 -188 -142 -323l281 -119q2 -6 2 -33l-2 -4q-141 63 -297 129q-145 -188 -281 -272q-164 -102 -374 -103q-135 0 -224 64q-100 72 -100 201zM-4 197q0 -104 94 -160q78 -47 189 -47 q342 0 544 401l-202 45q-111 25 -205 25h2q-160 0 -273 -53q-150 -70 -149 -211zM612 1784q0 8 23 8q8 0 26.5 -2t26.5 -2q59 0 117 6q78 -86 184 -227v-8q-10 -11 -14 -11h-4q-358 193 -359 236z" />
<glyph unicode="&#xcd;" horiz-adv-x="1277" d="M-39 240q0 137 127 209q104 59 254 59q176 0 487 -90q59 121 125 313q78 223 121 318q74 160 193 278h-45q-113 0 -337 22.5t-337 22.5q-129 0 -199 -22q-90 -29 -155 -117l-134 -178q-2 -2 -8 -2q0 4 -8 6l-2 6q18 68 115 176q193 217 512 217q66 0 360 -61 q106 -23 254 -58l8 -10v-4q0 -8 -28 -53q-45 -86 -82 -240l-62 -252q-10 -41 -22 -80q-59 -188 -142 -323l281 -119q2 -6 2 -33l-2 -4q-141 63 -297 129q-145 -188 -281 -272q-164 -102 -374 -103q-135 0 -224 64q-100 72 -100 201zM-4 197q0 -104 94 -160q78 -47 189 -47 q342 0 544 401l-202 45q-111 25 -205 25h2q-160 0 -273 -53q-150 -70 -149 -211zM764 1561q14 23 82 108l98 125q49 -4 53 -4q23 0 68 3t68 3q10 0 10 -16l-2 -4q-295 -227 -367 -228q-10 0 -10 13z" />
<glyph unicode="&#xce;" horiz-adv-x="1277" d="M-39 242q0 137 127 209q104 59 254 59q176 0 487 -90q59 121 125 313q78 223 121 318q74 160 193 278h-45q-113 0 -337 22.5t-337 22.5q-129 0 -199 -22q-90 -29 -155 -117l-134 -178q-2 -2 -8 -2q0 4 -8 6l-2 6q20 70 115 176q193 217 512 217q66 0 360 -61 q106 -23 254 -58l8 -10v-4q0 -8 -28 -53q-37 -72 -76 -230q-63 -260 -90 -342q-59 -186 -142 -323l281 -119q2 -6 2 -33l-2 -4q-141 63 -297 129q-145 -188 -281 -272q-164 -102 -374 -103q-135 0 -224 64q-100 72 -100 201zM-4 199q0 -104 94 -160q78 -47 189 -47 q342 0 544 401l-202 45q-111 25 -205 25h2q-160 0 -273 -53q-150 -70 -149 -211zM655 1559l4 6q0 6 101 114q20 23 78 113h135v2q43 -147 104 -221l2 -14q-4 -10 -14 -15q-55 4 -191 174q-160 -168 -212 -172z" />
<glyph unicode="&#xcf;" horiz-adv-x="1277" d="M-39 240q0 137 127 209q104 59 254 59q176 0 487 -90q59 121 125 313q78 223 121 318q74 160 193 278h-45q-113 0 -337 22.5t-337 22.5q-129 0 -199 -22q-90 -29 -155 -117l-134 -178q-2 -2 -8 -2q0 4 -8 6l-2 6q18 68 115 176q193 217 512 217q66 0 360 -61 q106 -23 254 -58l8 -10v-4q0 -8 -28 -53q-45 -86 -82 -240l-62 -252q-10 -41 -22 -80q-59 -188 -142 -323l281 -119q2 -6 2 -33l-2 -4q-141 63 -297 129q-145 -188 -281 -272q-164 -102 -374 -103q-135 0 -224 64q-100 72 -100 201zM-4 197q0 -104 94 -160q78 -47 189 -47 q342 0 544 401l-202 45q-111 25 -205 25h2q-160 0 -273 -53q-150 -70 -149 -211zM643 1599q0 33 22.5 56.5t55.5 23.5t55.5 -23.5t22.5 -56.5q0 -76 -78 -75q-33 0 -55.5 21.5t-22.5 53.5zM950 1604q0 33 21.5 55t54.5 22q80 1 80 -77q0 -33 -23.5 -56.5t-56.5 -23.5 q-76 0 -76 80z" />
<glyph unicode="&#xd1;" horiz-adv-x="1894" d="M-72 584q0 315 264.5 590.5t577.5 275.5q141 0 217 -119q68 -104 62 -250q444 354 780 379q-174 -217 -344 -581q-189 -403 -189 -639q0 -213 189 -215q133 -2 383 176v-29q-213 -174 -369 -174t-235 113q-70 98 -70 260q0 281 195 581q113 174 399 484 q-176 -37 -391 -152q-207 -109 -348 -233q0 -268 -115 -564q-129 -334 -322 -467q-41 -29 -75 -28q-63 0 -64 119q0 209 162 477q129 213 315 403q18 152 19 203q0 227 -203 227q-186 0 -387 -172q-162 -139 -279 -336q-135 -229 -135 -424q0 -78 49 -188l-8 -6 q-78 139 -78 289zM502 63q0 -47 30 -47q53 0 193 316q152 344 209 612q-262 -283 -373 -641q-57 -184 -57 -240h-2zM883 1587q6 53 74.5 116.5t123.5 63.5q43 0 137.5 -51t120.5 -51q45 0 76 39q47 59 55 65h9q2 -2 6 -2q6 -6 6 -16q0 -49 -77 -113.5t-126 -64.5 q-45 0 -145.5 52t-120.5 52q-41 0 -66 -32l-14 -21q-16 -20 -31 -41q-14 -4 -22 -6z" />
<glyph unicode="&#xd2;" horiz-adv-x="1277" d="M-41 516q0 338 291 633q221 223 270 223q4 -2 2 -8q-12 -18 -106 -113q-141 -141 -238 -403q-92 -250 -92 -463q0 -387 281 -387q213 0 389 229q129 166 217 422q92 266 92 486q0 315 -242 315q-272 0 -452 -524q-4 -8 -6 -8q-6 0 -13 12q43 225 152 366q133 176 338 177 h2q174 0 266 -173q76 -141 76 -329q0 -217 -119 -451q-113 -225 -287 -370q-197 -166 -407 -166q-209 0 -320 170q-94 143 -94 362zM610 1784q0 8 23 8q8 0 26.5 -2t26.5 -2q59 0 117 6q78 -86 184 -227v-8q-10 -11 -14 -11h-4q-358 193 -359 236z" />
<glyph unicode="&#xd3;" horiz-adv-x="1277" d="M-41 516q0 338 291 633q221 223 270 223q4 -2 2 -8q-12 -18 -106 -113q-141 -141 -238 -403q-92 -250 -92 -463q0 -387 281 -387q213 0 389 229q129 166 217 422q92 266 92 486q0 315 -242 315q-272 0 -452 -524q-4 -8 -6 -8q-6 0 -13 12q43 225 152 366q133 176 338 177 h2q174 0 266 -173q76 -141 76 -329q0 -217 -119 -451q-113 -225 -287 -370q-197 -166 -407 -166q-209 0 -320 170q-94 143 -94 362zM762 1561q14 23 82 108l98 125q49 -4 53 -4q23 0 68 3t67 3q11 0 11 -16l-2 -4q-295 -227 -367 -228q-10 0 -10 13z" />
<glyph unicode="&#xd4;" horiz-adv-x="1277" d="M-41 518q0 338 291 633q221 223 270 223q4 0 4 -4l-2 -4q-18 -27 -106 -113q-141 -139 -238 -403q-92 -250 -92 -463q0 -387 281 -387q213 0 389 229q129 166 217 422q92 266 92 486q0 315 -242 315q-272 0 -452 -524q-2 -8 -6 -8q-6 0 -13 12q43 225 152 366 q133 176 338 177h2q174 0 266 -172q76 -141 76 -330q0 -217 -119 -451q-113 -225 -287 -370q-197 -166 -407 -166q-209 0 -320 170q-94 143 -94 362zM653 1559l4 6q0 6 101 114q20 23 78 113h135v2q43 -147 104 -221l2 -14q-4 -10 -14 -15q-55 4 -191 174 q-160 -168 -213 -172z" />
<glyph unicode="&#xd5;" horiz-adv-x="1277" d="M-41 516q0 338 291 633q221 223 270 223q4 -2 2 -8q-12 -18 -106 -113q-141 -141 -238 -403q-92 -250 -92 -463q0 -387 281 -387q213 0 389 229q129 166 217 422q92 266 92 486q0 315 -242 315q-272 0 -452 -524q-4 -8 -6 -8q-6 0 -13 12q43 225 152 366q133 176 338 177 h2q174 0 266 -173q76 -141 76 -329q0 -217 -119 -451q-113 -225 -287 -370q-197 -166 -407 -166q-209 0 -320 170q-94 143 -94 362zM600 1597q6 8 14 29q86 141 183 141q41 0 137 -51t125 -51q49 0 82 45q41 57 47 59h8q2 -2 6 -2l4 -6v-6q0 -53 -74.5 -117.5t-127.5 -64.5 q-43 0 -143.5 52t-121.5 52q-68 0 -110 -94q-8 -6 -23 -6q-6 0 -6 20z" />
<glyph unicode="&#xd6;" horiz-adv-x="1277" d="M-41 516q0 338 291 633q221 223 270 223q4 -2 2 -8q-12 -18 -106 -113q-141 -141 -238 -403q-92 -250 -92 -463q0 -387 281 -387q213 0 389 229q129 166 217 422q92 266 92 486q0 315 -242 315q-272 0 -452 -524q-4 -8 -6 -8q-6 0 -13 12q43 225 152 366q133 176 338 177 h2q174 0 266 -173q76 -141 76 -329q0 -217 -119 -451q-113 -225 -287 -370q-197 -166 -407 -166q-209 0 -320 170q-94 143 -94 362zM600 1606q0 78 94 77q25 0 45.5 -26t20.5 -51t-20.5 -51.5t-45.5 -26.5h-30q-25 0 -44.5 26.5t-19.5 51.5zM905 1606q0 29 24.5 53t53.5 24 q33 0 56.5 -22t23.5 -55t-23.5 -56.5t-56.5 -23.5t-55.5 23.5t-22.5 56.5z" />
<glyph unicode="&#xd8;" horiz-adv-x="1277" d="M-53 29l110 131h-2q-98 152 -98 344q0 399 377 733q154 135 184 135q4 -2 4 -6q-51 -102 -182 -311q-121 -193 -176 -318q-80 -180 -80 -346q0 -59 25 -174l929 1096q-74 125 -190 125q-125 0 -234 -113q-92 -94 -143 -227q-10 -29 -25 -103q-12 -66 -28 -100l-6 -4h-6 q-8 0 -9 14q0 72 25 162q47 172 151 276q119 121 285 121q102 0 217 -108l86 102l39 -31l-96 -116q84 -199 84 -330q0 -225 -110.5 -448.5t-289.5 -370.5q-215 -178 -393 -178q-156 0 -303 141l-106 -127zM125 164q74 -160 266 -160q209 0 385 246q121 168 208 422.5 t87 453.5q0 61 -16 134z" />
<glyph unicode="&#xd9;" horiz-adv-x="1771" d="M-70 559q0 344 308 615q297 260 645 260q84 0 137 -37q61 -41 61 -121q0 -117 -184 -485q-66 -129 -252 -498q-88 -176 -88 -244q0 -47 41 -47q43 0 152 96q227 201 491 617q215 338 381 698q51 16 139 37l4 -6q-14 -70 -120 -314l-220 -497q-152 -344 -151 -496 q0 -121 129 -121q121 0 338 121l2 -26q-168 -123 -334 -123q-102 0 -168 53q-72 57 -72 156q0 137 140 473q45 106 207 479q-152 -322 -400 -678q-338 -487 -524 -487q-53 0 -84 45q-29 39 -29 94q0 145 174 485q66 127 252 488q86 168 86 233q0 82 -112 82 q-283 0 -580 -260q-340 -297 -340 -629q0 -160 121 -299v-10q0 -8 -8 -8q-6 0 -13 6q-63 51 -98 160q-31 92 -31 188zM836 1784q0 8 22 8q10 0 27.5 -2t27.5 -2q59 0 117 6q4 -6 98 -123l86 -106v-6l-2 -5l-10 -6h-8q-358 193 -358 236z" />
<glyph unicode="&#xda;" horiz-adv-x="1771" d="M-70 559q0 344 308 615q297 260 645 260q84 0 137 -37q61 -41 61 -121q0 -117 -184 -485q-66 -129 -252 -498q-88 -176 -88 -244q0 -47 41 -47q43 0 152 96q227 201 491 617q215 338 381 698q51 16 139 37l4 -6q-14 -70 -120 -314l-220 -497q-152 -344 -151 -496 q0 -121 129 -121q121 0 338 121l2 -26q-168 -123 -334 -123q-102 0 -168 53q-72 57 -72 156q0 137 140 473q45 106 207 479q-152 -322 -400 -678q-338 -487 -524 -487q-53 0 -84 45q-29 39 -29 94q0 145 174 485q66 127 252 488q86 168 86 233q0 82 -112 82 q-283 0 -580 -260q-340 -297 -340 -629q0 -160 121 -299v-10q0 -8 -8 -8q-6 0 -13 6q-63 51 -98 160q-31 92 -31 188zM989 1559q0 6 82 110q55 72 96 125q49 -4 56 -4q23 0 67.5 3t67.5 3q10 0 10 -12q-16 -37 -173 -136.5t-198 -99.5q-4 0 -8 11z" />
<glyph unicode="&#xdb;" horiz-adv-x="1771" d="M-70 561q0 344 308 615q297 260 645 260q84 0 137 -37q61 -41 61 -121q0 -117 -184 -485q-66 -129 -252 -498q-88 -176 -88 -244q0 -47 41 -47q43 0 152 96q227 201 491 617q215 338 381 698q51 16 139 37l4 -6q-23 -111 -153 -404q-92 -203 -187 -407 q-152 -348 -151 -496q0 -121 129 -121q127 0 338 121l2 -26q-168 -123 -334 -123q-102 0 -168 53q-72 57 -72 156q0 137 140 473q45 106 207 479q-152 -322 -400 -678q-338 -487 -524 -487q-53 0 -84 45q-29 39 -29 94q0 145 174 485q66 127 252 488q86 168 86 233 q0 82 -112 82q-283 0 -580 -260q-340 -297 -340 -629q0 -160 121 -299v-10q0 -8 -8 -8q-6 0 -13 6q-63 51 -98 160q-31 92 -31 188zM879 1556q0 6 106 123q31 35 76 113h137v2q25 -90 78 -182q18 -31 27 -45v-13l-5 -6l-10 -4q-61 20 -188 172q-135 -141 -205 -170h-6 q-10 0 -10 10z" />
<glyph unicode="&#xdc;" horiz-adv-x="1771" d="M-72 551q0 352 303 623q293 260 650 260q82 0 137 -35q63 -41 63 -119q0 -125 -184 -485l-256 -500q-86 -170 -86 -246q0 -47 41 -47q43 0 149 94q236 209 494 617q219 346 381 700q51 16 139 37v-6q-16 -80 -117 -309l-219 -502q-154 -352 -153 -496q0 -121 129 -121 q123 0 340 121l2 -26q-168 -123 -334 -123q-100 0 -170 55t-72 154q-2 117 115 395l233 557q-152 -322 -399 -678q-338 -487 -524 -487q-51 0 -82 43t-31 96q0 145 174 487q66 127 252 490q86 170 86 229q0 82 -117 82q-289 0 -580.5 -258t-328.5 -545q-6 -47 -6 -86 q0 -160 121 -299v-10q0 -8 -8 -8q-53 0 -101 147q-41 127 -41 199zM1176 1608q0 31 23.5 54.5t53.5 23.5q80 0 80 -78q0 -29 -19.5 -53.5t-45.5 -24.5h-29q-25 0 -44 26.5t-19 51.5zM1481 1608q0 78 80 78q25 0 50 -19.5t25 -44.5v-31q0 -18 -22.5 -39.5t-40.5 -21.5h-29 q-25 0 -44 26.5t-19 51.5z" />
<glyph unicode="&#xdf;" horiz-adv-x="1114" d="M-45 135q0 80 151 109q178 893 490 1128q102 78 184 78q138 0 138 -133q0 -106 -125 -258q-80 -96 -232 -232q-125 -111 -125 -116q2 -6 6 -11q57 -20 269 -32q74 -14 131 -80t57 -142q0 -139 -113 -268q168 -31 261 -28l-3 -21q6 0 -65 -4q-27 -2 -211 33 q-211 -174 -498 -174q-70 0 -118 8q-119 -322 -175 -324l-2 8q4 43 21 111l55 233q-96 53 -96 115zM-4 133q0 -45 61 -76l43 166h2q-106 -31 -106 -90zM166 18q88 -14 123 -14v-2q229 0 381 176q-274 59 -391 55l-56 -2q-20 -88 -57 -213zM229 254q233 0 457 -49 q82 119 82 225q0 250 -293 250q-61 0 -61 35q0 2 201.5 288.5t201.5 370.5q0 53 -61 53q-137 0 -277 -325q-80 -184 -147 -447q-27 -106 -103 -401z" />
<glyph unicode="&#xe0;" horiz-adv-x="989" d="M-49 168q0 211 166 418q176 217 381 217q74 0 178 -68q121 68 129 68q10 0 10 -10q0 -2 -2 -7q-63 -154 -143 -364q-113 -297 -113 -342q0 -63 94 -64q143 0 340 123v-24q-125 -66 -157 -80q-98 -43 -170 -43q-68 0 -125 28q-68 33 -80 93q-160 -123 -324 -123 q-184 0 -184 178zM76 131q0 -117 119 -117q106 0 264 138q6 84 78 268q39 102 108 266l-4 21l-49 43q-76 35 -121 34q-133 0 -270 -264q-125 -242 -125 -389zM276 1231q2 4 9 10q14 -2 61 -2q12 0 111 4q81 -174 159 -278l5 -15l-7 -10l-6 -4h-4q-33 0 -270 229 q-14 14 -55 54q-2 2 -3 12z" />
<glyph unicode="&#xe1;" horiz-adv-x="989" d="M-49 168q0 211 166 418q176 217 381 217q74 0 178 -68q121 68 129 68q10 0 10 -10q0 -2 -2 -7q-63 -154 -143 -364q-113 -297 -113 -342q0 -63 94 -64q143 0 340 123v-24q-125 -66 -157 -80q-98 -43 -170 -43q-68 0 -125 28q-68 33 -80 93q-160 -123 -324 -123 q-184 0 -184 178zM76 131q0 -117 119 -117q106 0 264 138q6 84 78 268q39 102 108 266l-4 21l-49 43q-76 35 -121 34q-133 0 -270 -264q-125 -242 -125 -389zM406 948q10 37 108 174q14 18 55 121q33 -4 70 -4q49 0 98 4l11 -4l4 -6q0 -33 -146 -156q-127 -109 -182 -141 l-8 -2q-4 6 -10 14z" />
<glyph unicode="&#xe2;" horiz-adv-x="989" d="M-49 168q0 211 166 418q176 217 381 217q74 0 178 -68q121 68 129 68q10 0 10 -10q0 -2 -2 -7q-63 -154 -143 -364q-113 -297 -113 -342q0 -63 94 -64q143 0 340 123v-24q-125 -66 -157 -80q-98 -43 -170 -43q-68 0 -125 28q-68 33 -80 93q-160 -123 -324 -123 q-184 0 -184 178zM76 131q0 -117 119 -117q106 0 264 138q6 84 78 268q39 102 108 266l-4 21l-49 43q-76 35 -121 34q-133 0 -270 -264q-125 -242 -125 -389zM297 963l4 16q106 113 182 258h135q4 -57 23 -135q8 -31 31 -72q37 -61 39 -65v-9q-6 -10 -15 -10 q-35 0 -104.5 80t-79.5 119q-178 -199 -207 -199q-8 0 -8 17z" />
<glyph unicode="&#xe3;" horiz-adv-x="989" d="M-49 168q0 211 166 418q176 217 381 217q74 0 178 -68q121 68 129 68q10 0 10 -10q0 -2 -2 -7q-63 -154 -143 -364q-113 -297 -113 -342q0 -63 94 -64q143 0 340 123v-24q-125 -66 -157 -80q-98 -43 -170 -43q-68 0 -125 28q-68 33 -80 93q-160 -123 -324 -123 q-184 0 -184 178zM76 131q0 -117 119 -117q106 0 264 138q6 84 78 268q39 102 108 266l-4 21l-49 43q-76 35 -121 34q-133 0 -270 -264q-125 -242 -125 -389zM223 1006q0 55 75 117.5t132 62.5q39 0 131 -51.5t115 -51.5q45 0 78 31q23 27 51 72l6 4h8l12 -8l3 -8 q-25 -66 -82 -121q-66 -63 -127 -64q-41 0 -139.5 53.5t-125.5 53.5q-37 0 -120 -103q-17 1 -17 13z" />
<glyph unicode="&#xe4;" horiz-adv-x="989" d="M-49 168q0 211 166 418q176 217 381 217q74 0 178 -68q121 68 129 68q10 0 10 -10q0 -2 -2 -7q-63 -154 -143 -364q-113 -297 -113 -342q0 -63 94 -64q143 0 340 123v-24q-125 -66 -157 -80q-98 -43 -170 -43q-68 0 -125 28q-68 33 -80 93q-160 -123 -324 -123 q-184 0 -184 178zM76 131q0 -117 119 -117q106 0 264 138q6 84 78 268q39 102 108 266l-4 21l-49 43q-76 35 -121 34q-133 0 -270 -264q-125 -242 -125 -389zM330 1022q0 27 18.5 52.5t44.5 25.5h29q25 0 44 -25.5t19 -52.5t-18 -51.5t-45 -24.5h-29q-27 0 -45 24.5 t-18 51.5zM637 1024q0 78 92 78q25 0 44.5 -25.5t19.5 -52.5q0 -25 -20.5 -51.5t-43.5 -26.5h-29q-27 0 -45 25.5t-18 52.5z" />
<glyph unicode="&#xe5;" horiz-adv-x="989" d="M-49 168q0 211 166 418q176 217 381 217q74 0 178 -68q121 68 129 68q10 0 10 -10q0 -2 -2 -7q-63 -154 -143 -364q-113 -297 -113 -342q0 -63 94 -64q143 0 340 123v-24q-125 -66 -157 -80q-98 -43 -170 -43q-68 0 -125 28q-68 33 -80 93q-160 -123 -324 -123 q-184 0 -184 178zM76 131q0 -117 119 -117q106 0 264 138q6 84 78 268q39 102 108 266l-4 21l-49 43q-76 35 -121 34q-133 0 -270 -264q-125 -242 -125 -389zM420 1090q0 63 47 109t111 46q63 0 110 -46t47 -109t-47 -110.5t-110 -47.5t-110.5 47t-47.5 111zM473 1087 q0 -43 31 -73.5t74 -30.5q45 0 73.5 29.5t28.5 74.5q0 43 -29.5 75t-72.5 32q-45 0 -75 -30.5t-30 -76.5z" />
<glyph unicode="&#xe6;" horiz-adv-x="1193" d="M-53 166q0 203 164 414q176 221 372 221q66 0 154 -53l8 16q43 6 119 31h12q2 -2 4 -2l4 -9v-10q-12 -33 -34 -96q111 121 198 121q102 0 103 -123q0 -150 -166 -285q-123 -98 -303 -168q-14 -51 -15 -94q0 -125 178 -125q100 0 236 49q143 51 209 117v-33 q-78 -68 -217 -114q-131 -43 -242 -43q-109 0 -166 20q-82 29 -114 113q-184 -137 -318 -138q-86 0 -136 52.5t-50 138.5zM72 119q0 -121 108 -121q115 0 264 149q4 102 72 273l107 272q-66 90 -152 90q-147 0 -281 -264q-119 -236 -118 -399zM592 246q387 225 387 475v2 q0 53 -45 53q-96 0 -213 -219q-82 -154 -129 -311z" />
<glyph unicode="&#xe7;" d="M-43 -379l4 10q70 53 105 90q55 61 55 119q0 37 -35 43q-4 2 -63 2q-10 0 -11 11q2 2 2 6q123 86 156 86q29 0 52.5 -41t23.5 -72q0 -63 -107.5 -166.5t-171.5 -103.5q-10 0 -10 16zM-8 180q0 186 164 395q174 219 354 220q53 0 84 -33t31 -86q0 -86 -80 -201 q-84 -123 -166 -123h-6l-15 6l-12 17l-2 14q16 68 141 154q115 78 115 162q0 70 -90 69q-152 0 -274 -231q-106 -201 -107 -371q0 -164 158 -164q100 0 233 53q119 47 213 115v-33q-174 -82 -241 -106q-148 -51 -259 -51q-242 0 -241 194z" />
<glyph unicode="&#xe8;" horiz-adv-x="616" d="M-33 213q-2 315 248 510q98 76 145 76q49 0 78 -38t29 -89q0 -199 -373 -451v-41q0 -170 156 -172q96 -2 205 47q102 45 174 117v-33q-201 -152 -385 -151q-135 0 -199 43q-78 53 -78 182zM92 248q111 76 215 209q121 156 121 264q0 9 -6 27q-12 10 -27 12 q-121 0 -217 -203q-74 -156 -86 -309zM106 1233q0 6 7 8q14 -2 63 -2q18 0 55 2t56 2h2q80 -172 157 -278l5 -15l-7 -10l-6 -4h-6q-31 0 -178.5 134t-147.5 163z" />
<glyph unicode="&#xe9;" horiz-adv-x="616" d="M-35 213q-2 313 248 510q96 76 145 76t78 -38t29 -89q0 -199 -373 -451v-41q0 -170 156 -172q96 -2 205 47q102 45 174 117v-33q-201 -152 -385 -151q-135 0 -199 43q-78 53 -78 182zM90 248q111 76 215 209q121 156 121 264q0 9 -6 27q-12 10 -27 12q-121 0 -217 -203 q-74 -156 -86 -309zM236 948q12 39 104 174q14 23 59 121q33 -4 70 -4q49 0 98 4l11 -4l4 -6q0 -33 -146 -156q-127 -109 -182 -141h-8l-6 4z" />
<glyph unicode="&#xea;" horiz-adv-x="616" d="M-35 213q-2 313 248 510q96 76 145 76t78 -38t29 -89q0 -199 -373 -451v-41q0 -170 156 -172q96 -2 205 47q102 45 174 117v-33q-201 -152 -385 -151q-135 0 -199 43q-78 53 -78 182zM90 248q111 76 215 209q121 156 121 264q0 9 -6 27q-12 10 -27 12q-121 0 -217 -203 q-74 -156 -86 -309zM127 963l6 14q96 102 180 260h136q6 -51 22 -135q6 -33 31 -72q33 -51 39 -65v-9q-6 -10 -17 -10q-33 0 -102 82q-59 70 -82 117q-166 -199 -205 -199q-8 0 -8 17z" />
<glyph unicode="&#xeb;" horiz-adv-x="616" d="M-35 213q-2 313 248 510q96 76 145 76t78 -38t29 -89q0 -199 -373 -451v-41q0 -170 156 -172q96 -2 205 47q102 45 174 117v-33q-201 -152 -385 -151q-135 0 -199 43q-78 53 -78 182zM90 248q111 76 215 209q121 156 121 264q0 9 -6 27q-12 10 -27 12q-121 0 -217 -203 q-74 -156 -86 -309zM96 1020q0 33 22.5 56.5t55.5 23.5t55.5 -23.5t22.5 -56.5t-22.5 -54.5t-55.5 -21.5q-78 0 -78 76zM401 1022q0 27 19.5 52.5t44.5 25.5h31q27 0 45 -25.5t18 -52.5t-19.5 -51.5t-43.5 -24.5h-31q-27 0 -45.5 24.5t-18.5 51.5z" />
<glyph unicode="&#xec;" horiz-adv-x="454" d="M-25 143q0 96 68 285q27 72 107 287q90 37 139 80h-2q4 2 18 2q8 0 8 -13q0 -92 -120.5 -344t-120.5 -350q0 -80 94 -80q102 0 301 140v-27q-168 -137 -307 -137q-78 0 -131.5 41t-53.5 116zM33 1231q2 4 8 10q14 -2 63 -2q12 0 111 4q66 -151 160 -278l4 -15l-6 -10 l-6 -4h-7q-43 0 -270 229q-8 8 -37 35l-18 17q-2 4 -2 14z" />
<glyph unicode="&#xed;" horiz-adv-x="454" d="M-25 143q0 96 68 285q27 72 107 287q90 37 139 80h-2q4 2 18 2q8 0 8 -13q0 -92 -120.5 -344t-120.5 -350q0 -80 94 -80q102 0 301 140v-27q-168 -137 -307 -137q-78 0 -131.5 41t-53.5 116zM162 948q12 43 106 174q14 18 56 121q6 -2 75 -4q37 -2 99 4l8 -4l2 -6l-4 -8 q-10 -33 -148 -154q-121 -106 -174 -135h-8q-8 4 -12 12z" />
<glyph unicode="&#xee;" horiz-adv-x="454" d="M-25 145q0 96 68 285q27 72 107 287q90 37 139 80h-2q4 2 18 2q8 0 8 -13q0 -92 -120.5 -344t-120.5 -350q0 -80 94 -80q102 0 301 140v-27q-168 -137 -307 -137q-78 0 -131.5 41t-53.5 116zM55 958q0 4 4 19q102 102 183 260h135v2l14 -109q6 -51 41 -102q25 -37 37 -63 v-9l-10 -10h-8q-33 0 -103 82q-63 74 -80 117q-168 -199 -207 -199q-6 0 -6 12z" />
<glyph unicode="&#xef;" horiz-adv-x="454" d="M-25 143q0 96 68 285q27 72 107 287q90 37 139 80h-2q4 2 18 2q8 0 8 -13q0 -92 -120.5 -344t-120.5 -350q0 -80 94 -80q102 0 301 140v-27q-168 -137 -307 -137q-78 0 -131.5 41t-53.5 116zM25 1020q0 80 75 80q31 0 55.5 -24.5t24.5 -55.5q0 -76 -80 -76q-76 0 -75 76z M330 1022q0 25 18.5 51.5t42.5 26.5h31q25 0 44 -25.5t19 -52.5t-18 -51.5t-45 -24.5h-31q-25 0 -43 24.5t-18 51.5z" />
<glyph unicode="&#xf1;" horiz-adv-x="905" d="M-45 119q0 121 68 303q39 106 110 299q55 33 150 70l4 -3l4 -6q-12 -39 -162 -395q-131 -311 -131 -344q0 -8 8 -8l10 4q33 33 64 96q12 29 51 105q66 125 217 315q180 227 268 227q33 0 56.5 -34.5t23.5 -69.5q0 -92 -95 -299t-95 -299q0 -63 102 -64q80 0 158 37 q35 16 137 86l2 -26q-150 -123 -303 -123q-84 0 -139 48t-55 132q0 82 102 297t102 285q-2 2 -8 2q-29 0 -127 -92q-201 -188 -358 -494q-14 -31 -60 -123q-16 -33 -45 -43q-59 0 -59 117zM186 1006q12 61 78 120.5t127 59.5q37 0 130 -50.5t116 -50.5q57 0 88 43 q41 55 49 62h6l15 -8l2 -6q-25 -66 -82 -121q-66 -66 -127 -66q-43 0 -141.5 53.5t-122.5 53.5q-39 0 -123 -103q-11 1 -15 13z" />
<glyph unicode="&#xf2;" horiz-adv-x="866" d="M-49 203q0 141 80 286q74 137 190 232q86 70 123 70q10 0 10 -9q0 -6 -30 -39q-242 -256 -242 -557l-2 -2q0 -168 108 -168q178 0 295 328q-115 164 -114 326q0 205 108 204q78 0 117 -88q29 -66 31 -155q2 -127 -72 -305q78 -66 172 -66q70 0 139 37l-2 -27 q-63 -35 -145 -34q-90 0 -176 57q-180 -307 -373 -307q-102 0 -159.5 57t-57.5 160zM219 1231q2 4 10 10q14 -2 62 -2q18 0 55 2t55 2h2q80 -172 158 -278l4 -15l-6 -10l-6 -4h-4q-31 0 -180.5 133t-149.5 162zM403 705q0 -158 93 -316q23 109 22 232q0 170 -57 213l-10 2 q-47 -12 -48 -131z" />
<glyph unicode="&#xf3;" horiz-adv-x="866" d="M-51 203q0 141 80 286q74 137 190 232q86 70 123 70q10 0 10 -9q0 -6 -30 -39q-242 -256 -242 -557l-2 -2q0 -168 108 -168q178 0 295 328q-115 164 -114 326q0 205 108 204q78 0 117 -88q29 -66 31 -155q2 -127 -72 -305q78 -66 172 -66q70 0 139 37l-2 -27 q-63 -35 -145 -34q-90 0 -176 57q-180 -307 -373 -307q-102 0 -159.5 57t-57.5 160zM350 946q4 18 105 176q10 14 59 121q33 -4 70 -4q49 0 98 4l10 -4l2 -4q0 -33 -149.5 -166t-184.5 -133zM401 705q0 -158 93 -316q23 109 22 232q0 170 -57 213l-10 2q-47 -12 -48 -131z " />
<glyph unicode="&#xf4;" horiz-adv-x="866" d="M-51 203q0 141 80 286q74 137 190 232q86 70 123 70q10 0 10 -9q0 -6 -30 -39q-242 -256 -242 -557l-2 -2q0 -168 108 -168q178 0 295 328q-115 164 -114 326q0 205 108 204q78 0 117 -88q29 -66 31 -155q2 -127 -72 -305q78 -66 172 -66q70 0 139 37l-2 -27 q-63 -35 -145 -34q-90 0 -176 57q-180 -307 -373 -307q-102 0 -159.5 57t-57.5 160zM240 956q0 8 10 20.5t51 57.5q84 92 115 172q4 8 12 31h135q0 -106 41 -174l35 -57q10 -16 16 -41v-9q-6 -10 -16 -10q-39 0 -104 80q-45 55 -80 119q-166 -199 -205 -199q-10 0 -10 10z M401 705q0 -158 93 -316q23 109 22 232q0 170 -57 213l-10 2q-47 -12 -48 -131z" />
<glyph unicode="&#xf5;" horiz-adv-x="866" d="M-51 203q0 141 80 286q74 137 190 232q86 70 123 70q10 0 10 -9q0 -6 -30 -39q-242 -256 -242 -557l-2 -2q0 -168 108 -168q178 0 295 328q-115 164 -114 326q0 205 108 204q78 0 117 -88q29 -66 31 -155q2 -127 -72 -305q78 -66 172 -66q70 0 139 37l-2 -27 q-63 -35 -145 -34q-90 0 -176 57q-180 -307 -373 -307q-102 0 -159.5 57t-57.5 160zM166 1006q47 86 82 120q57 59 127 60q35 0 128 -50.5t115 -50.5q47 0 78 35t60 70h8l12 -8v-8q0 -49 -76.5 -117t-128.5 -68q-41 0 -141 53.5t-125 53.5q-33 0 -78 -52l-45 -51 q-16 1 -16 13zM401 705q0 -158 93 -316q23 109 22 232q0 170 -57 213l-10 2q-47 -12 -48 -131z" />
<glyph unicode="&#xf6;" horiz-adv-x="866" d="M-51 203q0 141 80 286q74 137 190 232q86 70 123 70q10 0 10 -9q0 -6 -30 -39q-242 -256 -242 -557l-2 -2q0 -168 108 -168q178 0 295 328q-115 164 -114 326q0 205 108 204q78 0 117 -88q29 -66 31 -155q2 -127 -72 -305q78 -66 172 -66q70 0 139 37l-2 -27 q-63 -35 -145 -34q-90 0 -176 57q-180 -307 -373 -307q-102 0 -159.5 57t-57.5 160zM225 1020q0 33 22.5 56.5t55.5 23.5q31 0 55.5 -24.5t24.5 -55.5q0 -27 -20.5 -51.5t-45.5 -24.5h-28q-25 0 -44.5 25.5t-19.5 50.5zM401 705q0 -158 93 -316q23 109 22 232q0 170 -57 213 l-10 2q-47 -12 -48 -131zM532 1008v28q0 27 25.5 45.5t52.5 18.5q31 0 54.5 -23.5t23.5 -54.5q0 -25 -19.5 -51.5t-43.5 -26.5h-31q-20 0 -41 21.5t-21 42.5z" />
<glyph unicode="&#xf7;" horiz-adv-x="1064" d="M-10 455v106h1014v-106h-1014zM379 244q0 45 31.5 76.5t76.5 31.5t77 -31.5t32 -76.5t-32 -76t-77 -31t-76.5 31t-31.5 76zM379 770q0 45 31.5 77t76.5 32t77 -32t32 -77t-32 -76.5t-77 -31.5t-76.5 31.5t-31.5 76.5z" />
<glyph unicode="&#xf8;" horiz-adv-x="866" d="M-41 193q0 178 150 387q66 90 227 206h6q0 2 4 2q10 0 10 -8l-2 -6q-113 -113 -186 -264q-80 -164 -80 -311v-2q0 -37 8 -93l303 424q-27 104 -26 150q0 199 127 199q47 0 100 -66l51 70l8 4h9q6 0 12 -4l4 -7v-6q0 -2 -2 -6v-4l-64 -90q16 -94 17 -135q0 -150 -62 -314 q57 -63 160 -63q53 0 86 20l4 -8v-6q0 -25 -55 -24q-127 0 -209 53q-47 -117 -162 -215q-123 -106 -239 -107q-39 0 -99 19q-45 -68 -61 -68h-12q-6 6 -6 14q4 10 47 76q-43 53 -55.5 86t-12.5 97zM111 55q43 -57 106 -57h2q172 0 281 342q-63 72 -88 137zM410 723 q0 -27 9 -77t9 -77l104 144q-12 125 -67 125t-55 -115zM440 518q12 -39 70 -129q23 125 29 264z" />
<glyph unicode="&#xf9;" horiz-adv-x="948" d="M-45 143q0 80 82 303q25 68 115 310q100 39 143 47l8 -4v-6q0 -12 -162 -422q-86 -219 -86 -289q0 -43 56 -66q10 0 18 -2h18q57 0 136 47q39 23 123 84q27 139 90 308l114 299q55 23 148 45l8 -6v-7q-47 -100 -141 -360q-104 -289 -105 -344q0 -70 103 -70 q131 0 317 144v-33q-180 -135 -319 -135q-63 0 -125 32q-70 37 -82 95q-143 -121 -273 -121q-74 0 -127 39q-59 43 -59 112zM258 1219v12q0 8 6 10q14 -2 70 -2q10 0 104 4q88 -182 160 -278l4 -15l-6 -10l-6 -4h-6q-55 0 -326 283z" />
<glyph unicode="&#xfa;" horiz-adv-x="948" d="M-45 143q0 80 82 303q25 68 115 310q100 39 143 47l8 -4v-6q0 -12 -162 -422q-86 -219 -86 -289q0 -43 56 -66q10 0 18 -2h18q57 0 136 47q39 23 123 84q27 139 90 308l114 299q55 23 148 45l8 -6v-7q-47 -100 -141 -360q-104 -289 -105 -344q0 -70 103 -70 q131 0 317 144v-33q-180 -135 -319 -135q-63 0 -125 32q-70 37 -82 95q-143 -121 -273 -121q-74 0 -127 39q-59 43 -59 112zM387 946q0 14 105 176q20 31 55 121q6 -2 76 -4q37 -2 98 4l8 -4l4 -6q-6 -35 -154.5 -167t-181.5 -130q-10 6 -10 10z" />
<glyph unicode="&#xfb;" horiz-adv-x="948" d="M-45 143q0 80 82 303q25 68 115 310q100 39 143 47l8 -4v-6q0 -12 -162 -422q-86 -219 -86 -289q0 -43 56 -66q10 0 18 -2h18q57 0 136 47q39 23 123 84q27 139 90 308l114 299q55 23 148 45l8 -6v-7q-47 -100 -141 -360q-104 -289 -105 -344q0 -70 103 -70 q131 0 317 144v-33q-180 -135 -319 -135q-63 0 -125 32q-70 37 -82 95q-143 -121 -273 -121q-74 0 -127 39q-59 43 -59 112zM279 963q0 6 61 71q43 47 125 203h135l14 -109q14 -57 41 -100q12 -16 37 -63v-9l-4 -6l-6 -4h-8q-35 0 -103 82q-55 68 -79 117 q-166 -199 -205 -199q-8 0 -8 17z" />
<glyph unicode="&#xfc;" horiz-adv-x="948" d="M-45 143q0 80 82 303q25 68 115 310q100 39 143 47l8 -4v-6q0 -12 -162 -422q-86 -219 -86 -289q0 -43 56 -66q10 0 18 -2h18q57 0 136 47q39 23 123 84q27 139 90 308l114 299q55 23 148 45l8 -6v-7q-47 -100 -141 -360q-104 -289 -105 -344q0 -70 103 -70 q131 0 317 144v-33q-180 -135 -319 -135q-63 0 -125 32q-70 37 -82 95q-143 -121 -273 -121q-74 0 -127 39q-59 43 -59 112zM272 1022q0 78 93 78q27 0 45 -25.5t18 -52.5q0 -29 -24.5 -53.5t-53.5 -24.5t-53.5 24.5t-24.5 53.5zM578 1024q0 29 24.5 53.5t52.5 24.5 q33 0 56.5 -22.5t23.5 -55.5q0 -27 -19.5 -52.5t-43.5 -25.5h-31q-27 0 -45 25.5t-18 52.5z" />
<glyph unicode="&#xff;" horiz-adv-x="905" d="M-31 162q0 94 72 282q27 68 111 285l141 68q4 -5 4 -11q-236 -578 -236 -677q0 -92 82 -93q82 0 248 111l211 594q16 8 148 82q6 0 6 -6q0 -23 -148 -414q-143 -379 -180 -459q106 29 254 92q166 72 236 127l-3 -28q-215 -113 -495 -215q-154 -289 -297 -289 q-29 0 -51 22q-8 23 -9 29q0 127 234 213l76 209q-133 -90 -240 -90q-164 0 -164 168zM90 -334v-8q2 -2 2 -6l8 -17q14 -8 25 -8q59 0 102 86q29 55 58 135q-113 -68 -121 -73q-74 -55 -74 -109zM229 1020q0 35 22.5 57.5t57.5 22.5q25 0 51.5 -19.5t26.5 -44.5v-28 q0 -25 -25.5 -44.5t-52.5 -19.5q-31 0 -55.5 22.5t-24.5 53.5zM537 1022q0 27 19 52.5t44 25.5h29q25 0 44 -25.5t19 -52.5t-18.5 -51.5t-44.5 -24.5h-29q-27 0 -45 24.5t-18 51.5z" />
<glyph unicode="&#x152;" horiz-adv-x="2060" d="M-80 508q0 420 430 780q96 80 131 88l6 -8q-33 -63 -116 -160q-92 -104 -123 -155q-199 -336 -199 -680q0 -156 57 -252q70 -119 216 -119q221 0 401 238q127 166 214 425t87 468q0 291 -201 290q-209 0 -377 -317q-41 -111 -84 -223q-6 0 -10 10q23 221 133 377 q131 184 336 184q164 0 250 -166q68 -131 68 -311q0 -102 -33 -285q29 20 106 39q86 18 115 35.5t37 114.5q2 33 8 127q8 117 17 159q16 90 55 152q109 174 274 174q86 0 143.5 -47t57.5 -131q0 -186 -299 -402q-10 6 -12 11v10q104 84 178 184q94 127 94 232 q0 106 -100 106q-162 0 -289 -407q-12 -45 -51 -172q-37 -115 -94 -144l-82 -41q-119 -61 -205 -170q-94 -123 -94 -246q0 -127 81.5 -197.5t210.5 -70.5q223 0 439 154q236 168 235 381q0 4 4 4q10 0 22.5 -50.5t12.5 -70.5q0 -123 -133 -250q-209 -199 -553 -199 q-326 0 -448 238q-131 -113 -215 -162q-133 -78 -252 -78q-223 0 -342 160q-106 141 -107 373z" />
<glyph unicode="&#x153;" horiz-adv-x="1193" d="M-57 174q0 186 176 406q184 231 364 231q143 0 183 -160q98 90 112 103q72 51 140 51h-3q55 0 88 -37t33 -92q0 -131 -151 -266q-111 -100 -271 -179v-24q0 -92 49.5 -147.5t139.5 -55.5q158 0 391 172v-29q-213 -164 -453 -163q-98 0 -170 49q-82 55 -82 149 q-160 -199 -335 -198q-92 0 -151.5 50t-59.5 140zM63 172q0 -166 119 -166q164 0 293 254q113 221 113 406q0 47 -28 86t-73 39q-143 0 -288 -242q-135 -225 -136 -377zM616 250q166 115 240 215q119 162 119 248q0 69 -49 69q-76 0 -176 -172q-86 -147 -107 -243 q-6 -33 -27 -117z" />
<glyph unicode="&#x178;" horiz-adv-x="1730" d="M-61 719q0 414 462 637q193 92 359 92q82 0 137 -43t55 -123q0 -135 -159 -485q-59 -129 -230 -496q-76 -164 -76 -246q0 -45 35 -45q193 0 563 584q287 449 424 784q98 29 140 49h8q8 0 8 -10q0 -27 -188 -581q-174 -512 -228 -650q154 37 422 93q8 0 8 -7 q0 -25 -26 -51q-268 -31 -420 -67q-111 -201 -256 -353q-195 -203 -361 -202q-121 0 -120 116q0 147 237 283q162 92 373 149q59 166 354 1061q-293 -561 -395 -721q-324 -500 -555 -499q-53 0 -86 47q-29 41 -29 98q0 117 160 469l219 483q78 172 78 242q0 92 -127 92 q-98 0 -244 -78q-115 -61 -215 -145q-293 -246 -293 -518q0 -170 162 -387v-4q0 -4 -4 -8q-2 2 -4 2q-188 178 -188 438zM528 -307q0 -80 88 -80q139 0 291 186q106 131 189 318q-565 -213 -566 -424h-2zM852 1599q0 33 23.5 56.5t56.5 23.5q23 0 49.5 -20t26.5 -43v-31 q0 -25 -25 -43t-51 -18q-80 0 -80 75zM1157 1604q0 33 23.5 55t56.5 22q29 0 53.5 -24t24.5 -53q0 -33 -22.5 -56.5t-55.5 -23.5t-56.5 23.5t-23.5 56.5z" />
<glyph unicode="&#x2c6;" horiz-adv-x="0" d="M-131 963q0 63 76 141q88 90 110 133h138l-3 -8q0 -117 54 -199q41 -63 39 -74l-4 -6l-7 -4h-6q-35 0 -103.5 80t-78.5 119q-178 -199 -207 -199q-8 0 -8 17z" />
<glyph unicode="&#x2dc;" horiz-adv-x="0" d="M-203 1006q8 61 75 120.5t130 59.5q39 0 131 -51.5t115 -51.5q45 0 80 35q4 6 55 72h8q14 0 15 -16q-25 -66 -82 -121q-66 -63 -127 -64q-41 0 -139.5 53.5t-123.5 53.5q-51 0 -112 -99l-6 -4h-2q-16 0 -17 13z" />
<glyph unicode="&#x2000;" horiz-adv-x="918" />
<glyph unicode="&#x2001;" horiz-adv-x="1837" />
<glyph unicode="&#x2002;" horiz-adv-x="918" />
<glyph unicode="&#x2003;" horiz-adv-x="1837" />
<glyph unicode="&#x2004;" horiz-adv-x="612" />
<glyph unicode="&#x2005;" horiz-adv-x="459" />
<glyph unicode="&#x2006;" horiz-adv-x="306" />
<glyph unicode="&#x2007;" horiz-adv-x="306" />
<glyph unicode="&#x2008;" horiz-adv-x="229" />
<glyph unicode="&#x2009;" horiz-adv-x="367" />
<glyph unicode="&#x200a;" horiz-adv-x="102" />
<glyph unicode="&#x2010;" d="M23 373l34 82h510l-32 -82h-512z" />
<glyph unicode="&#x2011;" d="M23 373l34 82h510l-32 -82h-512z" />
<glyph unicode="&#x2012;" d="M23 373l34 82h510l-32 -82h-512z" />
<glyph unicode="&#x2013;" horiz-adv-x="1030" d="M16 373l33 84h840l-35 -84h-838z" />
<glyph unicode="&#x2014;" horiz-adv-x="1318" d="M45 537v92h1335v-92h-1335z" />
<glyph unicode="&#x2018;" horiz-adv-x="454" d="M236 1151q0 137 262 340q4 2 12 2q6 0 6 -8q0 23 -8 22q-16 0 -66 -90q-74 -135 -73 -176q0 -53 37 -67q47 -19 47 -21v-12q-80 -47 -168 -66q-49 12 -49 76z" />
<glyph unicode="&#x2019;" horiz-adv-x="454" d="M276 1094q0 -20 9 -21q16 0 67 86q76 125 76 160v2q0 47 -16 65q-2 2 -58 35l-4 9q6 12 72.5 38.5t85.5 26.5q47 0 47 -76q0 -84 -94 -196q-86 -100 -172 -142q-12 4 -13 13z" />
<glyph unicode="&#x201a;" horiz-adv-x="417" d="M4 -272l2 6q145 141 146 233q0 76 -82 84l-2 6q0 2 2 6v5l8 8q133 57 155 57q23 0 38.5 -23.5t15.5 -48.5q0 -78 -98.5 -198.5t-174.5 -147.5q-10 4 -10 13z" />
<glyph unicode="&#x201c;" d="M233 1147q0 147 193 297q25 18 66 47q4 2 14 2q4 -4 4 -8q-152 -193 -152 -228q0 -45 80 -106v-6q0 -8 -6 -6q-127 -57 -151 -58q-47 0 -48 66zM537 1145q0 164 260 346h12q8 0 8 -6l-2 -4v-6q-152 -145 -151 -220q0 -59 30 -73q41 -21 47 -33v-4q-4 -2 -14 -10 q-100 -55 -141 -56q-20 0 -34.5 21.5t-14.5 44.5z" />
<glyph unicode="&#x201d;" d="M264 1094q0 -20 8 -21q16 0 68 86q76 125 76 160v2q0 59 -19 68q-6 4 -55 32l-4 9q6 12 72.5 38.5t85.5 26.5q47 0 47 -76q0 -82 -97 -194q-86 -102 -170 -144q-12 4 -12 13zM569 1092l76 84q78 86 78 143q0 61 -35 80q-43 22 -45 26v2l2 9q10 8 76.5 32.5t77.5 24.5 q49 0 49 -76q0 -82 -93 -195.5t-175 -142.5q-10 4 -11 13z" />
<glyph unicode="&#x201e;" d="M-43 -270q27 27 78 82q76 82 76 143q0 70 -35 86q-43 12 -43 27q0 8 6 10q51 25 151 55q47 -12 48 -76q0 -70 -103 -200q-104 -137 -170 -138zM264 -270q152 188 152 223q0 45 -80 108v5l6 10q49 25 154 55q45 -14 45 -65q0 -94 -88 -199q-72 -86 -170 -148l-11 -4 q-8 8 -8 15z" />
<glyph unicode="&#x2022;" horiz-adv-x="681" d="M74 723q0 113 79.5 189.5t192.5 76.5q111 0 186.5 -77.5t75.5 -188.5q0 -113 -74.5 -189.5t-187.5 -76.5t-192.5 76.5t-79.5 189.5z" />
<glyph unicode="&#x2026;" horiz-adv-x="2048" d="M236 0v217h213v-217h-213zM918 0v217h212v-217h-212zM1599 0v217h213v-217h-213z" />
<glyph unicode="&#x202f;" horiz-adv-x="367" />
<glyph unicode="&#x2039;" horiz-adv-x="681" d="M180 473v189l322 251v-180l-215 -166l215 -166v-180z" />
<glyph unicode="&#x203a;" horiz-adv-x="681" d="M180 221v180l215 166l-215 166v180l322 -251v-189z" />
<glyph unicode="&#x205f;" horiz-adv-x="459" />
<glyph unicode="&#x20ac;" horiz-adv-x="1193" d="M-262 920l55 26l283 -96q49 96 96 164q-137 47 -334 112l58 29l301 -102q104 143 237 245q217 168 432 168q150 0 234 -96t84 -248l-43 41q0 125 -66.5 199t-189.5 74q-207 0 -398 -201q-98 -102 -168 -225l740 -252l-66 -17q-174 59 -577 193l-119 39q-53 -100 -82 -170 l741 -252l-65 -16q-268 92 -578 192l-114 37q-94 -246 -95 -428q0 -188 129 -283q113 -84 308 -84q285 0 645 207v-29q-274 -219 -615 -219q-248 0 -415 138q-180 145 -181 389q0 174 82 356z" />
<glyph unicode="&#x2122;" horiz-adv-x="1726" d="M-12 1108l6 188h610l6 -188l-35 -2l3 18q8 82 -74 113q-33 12 -150 16v-600q0 -55 97 -55v-35h-308v35q98 0 99 55l2 600q-117 -4 -156 -20q-70 -29 -65 -127zM666 1262v34h219l254 -555l241 555h217v-34h-18q-76 0 -76 -50v-559q0 -55 96 -55v-35h-309v35q98 0 99 55 v533l-259 -623h-34l-277 592v-502q0 -55 99 -55v-35h-248v35q98 0 98 55v541q0 49 -31 61q-16 6 -71 7z" />
<glyph unicode="&#xe000;" horiz-adv-x="788" d="M0 0v788h788v-788h-788z" />
</font>
</defs>
</svg>
