<?xml version="1.0" standalone="no"?>
<!DOCTYPE svg PUBLIC "-//W3C//DTD SVG 1.1//EN" "http://www.w3.org/Graphics/SVG/1.1/DTD/svg11.dtd" >
<svg xmlns="http://www.w3.org/2000/svg">
<metadata></metadata>
<defs>
<font id="parangon_220cregular" horiz-adv-x="901" >
<font-face units-per-em="2048" ascent="1638" descent="-410" />
<missing-glyph horiz-adv-x="477" />
<glyph unicode="&#xfb01;" horiz-adv-x="876" d="M154 0v1055v26.5v30.5t1 30t2.5 34t5 32.5t8 35t12 32t16.5 33.5q74 125 245 125h279v-164h-96v78h-187q-51 0 -93.5 -25t-65.5 -63q-31 -53 -31 -197v-39h203v-86h-203v-938h-96zM627 0v1024h96v-1024h-96z" />
<glyph unicode="&#xfb02;" horiz-adv-x="876" d="M154 0v1055v26.5v30.5t1 30t2.5 34t5 32.5t8 35t12 32t16.5 33.5q74 125 245 125h279v-1434h-96v1348h-187q-49 0 -93 -25t-68 -63q-8 -14 -14 -31t-9 -30.5t-4.5 -36t-1.5 -32v-36v-31.5v-39h203v-86h-203v-938h-96z" />
<glyph horiz-adv-x="2048" />
<glyph horiz-adv-x="2048" />
<glyph unicode="&#xd;" horiz-adv-x="2048" />
<glyph unicode=" "  horiz-adv-x="477" />
<glyph unicode="&#x09;" horiz-adv-x="477" />
<glyph unicode="&#xa0;" horiz-adv-x="477" />
<glyph unicode="!" horiz-adv-x="425" d="M164 1434h98l-14 -1065h-70zM166 0v156h94v-156h-94z" />
<glyph unicode="&#x22;" horiz-adv-x="655" d="M164 1249v185h94v-185l-25 -225h-45zM397 1249v185h95v-185l-25 -225h-45z" />
<glyph unicode="#" horiz-adv-x="1359" d="M164 479l16 86h221l68 334h-221l16 86h221l88 449h89l-89 -449h314l88 449h88l-88 -449h221l-16 -86h-222l-67 -334h221l-16 -86h-222l-94 -479h-88l94 479h-313l-94 -479h-88l94 479h-221zM489 565h314l67 334h-313z" />
<glyph unicode="$" horiz-adv-x="1126" d="M164 444h94q0 -87 32 -164t83 -124q70 -65 164 -70v612q-65 15 -134.5 48t-111.5 75q-91 87 -94 244q-3 166 102 266q102 94 238 94v170h61v-172q128 -6 225 -100q122 -119 119 -344h-94q3 86 -22 163.5t-78 127.5q-63 59 -150 69v-567q137 -27 229 -96 q140 -103 136 -299q-4 -194 -127 -295q-94 -81 -238 -84v-170h-61v172q-132 4 -232 96q-137 127 -141 348zM289 1075q0 -122 80 -196q67 -61 168 -88v552q-94 -6 -170 -71q-78 -74 -78 -197zM598 84q107 5 182 76q88 84 88 215q0 73 -28.5 134t-77.5 99q-64 50 -164 72v-596 z" />
<glyph unicode="%" horiz-adv-x="1896" d="M164 1024q0 175 65 283q86 143 240 143q81 0 143 -40t99 -103q31 -54 47 -133t16 -150q0 -70 -16 -149.5t-47 -133.5q-39 -67 -104 -104t-138 -37q-154 0 -240 141q-65 108 -65 283zM246 1026q4 -163 49 -244q32 -57 79 -84.5t95 -27.5t95 27.5t79 84.5q45 81 49 244 q0 47 -2 78t-13.5 78t-33.5 86q-63 112 -174 112q-113 0 -174 -112q-22 -39 -33.5 -85.5t-13.5 -77.5t-2 -79zM463 0l880 1434h91l-881 -1434h-90zM1122 410q0 172 66 282q87 144 239 144q81 0 143 -40.5t99 -103.5q32 -55 48 -133.5t16 -148.5q0 -69 -16.5 -149t-47.5 -134 q-39 -67 -104 -104t-138 -37q-153 0 -239 141q-66 110 -66 283zM1204 412q4 -163 49 -244q32 -57 79 -85t95 -28t95.5 28t79.5 85q45 81 49 244q0 47 -2 78t-13.5 77.5t-33.5 85.5q-64 113 -175 113q-112 0 -174 -113q-22 -39 -33.5 -85t-13.5 -77.5t-2 -78.5z" />
<glyph unicode="&#x26;" horiz-adv-x="1105" d="M164 315q1 53 16.5 102.5t42.5 93t51 73t58 65.5l133 139l-103 111q-131 140 -135 279q-3 118 75.5 201t225.5 83t224.5 -82.5t74.5 -201.5q-1 -83 -35.5 -147t-97.5 -132l-102 -111l555 -712l-72 -76l-547 719l-129 -137q-125 -135 -127 -263q-3 -106 66 -184t188 -74 q65 4 134 37.5t122 106.5l62 -74q-121 -160 -332 -160q-165 -1 -259 99.5t-89 244.5zM328 1178q1 -62 28.5 -111t75.5 -102l96 -111l97 111q102 115 104 213q2 82 -54 140t-147 58q-89 0 -145.5 -56t-54.5 -142z" />
<glyph unicode="'" horiz-adv-x="421" d="M164 1249v185h94v-185l-25 -225h-45z" />
<glyph unicode="(" horiz-adv-x="788" d="M164 666q0 368 174 655q108 175 287 317v-98q-132 -114 -217 -289q-127 -259 -127 -583q0 -333 127 -584q79 -159 217 -297v-94q-179 142 -287 317q-174 287 -174 656z" />
<glyph unicode=")" horiz-adv-x="788" d="M164 -213q138 138 217 297q127 251 127 584q0 324 -127 583q-85 175 -217 289v98q179 -142 287 -317q174 -287 174 -655q0 -369 -174 -656q-108 -175 -287 -317v94z" />
<glyph unicode="*" horiz-adv-x="942" d="M164 1186l29 86l237 -86v248h82v-248l240 84l26 -84l-235 -86l155 -201l-77 -53l-152 201l74 53l-31 86h-82l-31 -80l70 -59l-150 -201l-73 55l153 205z" />
<glyph unicode="+" horiz-adv-x="1105" d="M164 580v86h342v338h94v-338h342v-86h-342v-355h-94v355h-342z" />
<glyph unicode="," horiz-adv-x="446" d="M164 -256q35 67 49 119q21 76 18 137h-43v156h95v-127q0 -94 -17 -164q-13 -55 -45 -121h-57z" />
<glyph unicode="-" d="M164 498v86h573v-86h-573z" />
<glyph unicode="." horiz-adv-x="421" d="M164 0v156h94v-156h-94z" />
<glyph unicode="/" horiz-adv-x="749" d="M0 -307l655 1843h95l-652 -1843h-98z" />
<glyph unicode="0" horiz-adv-x="978" d="M102 707q0 293 52 460q27 81 68.5 138.5t89.5 85.5t90.5 39.5t86.5 11.5t86.5 -11.5t90.5 -39.5t90 -85.5t69 -138.5q50 -151 52 -460q3 -302 -52 -461q-28 -82 -69.5 -139t-89 -85t-90 -39.5t-87.5 -11.5q-44 0 -86.5 11.5t-90.5 39.5t-89.5 85.5t-68.5 138.5 q-52 167 -52 461zM205 709q0 -108 10.5 -227.5t30.5 -188.5q35 -127 101.5 -178.5t141.5 -51.5q76 0 142.5 51.5t101.5 178.5q20 69 30.5 188.5t10.5 227.5t-10.5 227t-30.5 188q-35 127 -101.5 178.5t-142.5 51.5q-75 0 -141.5 -51.5t-101.5 -178.5q-20 -69 -30.5 -188 t-10.5 -227z" />
<glyph unicode="1" horiz-adv-x="847" d="M82 1128v89l459 237v-1454h-84v1329z" />
<glyph unicode="2" horiz-adv-x="911" d="M102 0v51q0 68 2.5 105.5t17 92t44.5 103.5q23 38 62 80.5t73 73t110 94.5q18 15 27 23q145 121 205 206q40 59 56 112.5t14 121.5q-5 138 -72 213q-33 36 -80.5 57t-99.5 21q-58 0 -109.5 -26t-83.5 -68q-71 -92 -71 -261v-36h-88v36q0 210 100 328q98 115 254 115 q148 0 244 -99q100 -106 102 -280q3 -146 -82 -275q-41 -61 -94.5 -113t-132.5 -118q-84 -70 -117 -98.5t-76 -72.5t-65 -81q-61 -101 -52 -213h613v-92h-701z" />
<glyph unicode="3" horiz-adv-x="974" d="M102 430h101q0 -91 14 -148t51 -108q45 -60 98 -85.5t126 -25.5q129 0 206 89q76 90 76 227q0 152 -78 237q-74 84 -204 84h-101v91h103q125 0 192 77q68 76 68 209q0 126 -64 197q-72 82 -190 82q-109 0 -181 -72q-101 -98 -96 -293h-98q-2 98 28 194.5t97 160.5 q97 93 246 96q149 2 247 -96q107 -103 107 -273q0 -135 -78 -229q-58 -67 -139 -94q101 -35 160 -113q79 -105 79 -256q0 -75 -25.5 -155t-72.5 -136q-102 -122 -282 -119q-182 2 -289 127q-51 61 -77 150t-24 182z" />
<glyph unicode="4" horiz-adv-x="817" d="M61 391v160l492 862h111l-517 -901v-37h449v303h98v-778h-98v391h-535z" />
<glyph unicode="5" horiz-adv-x="913" d="M102 383h99q0 -124 57 -213q69 -109 195 -109q59 0 113.5 30t90.5 93q54 96 54 269q0 165 -58 264q-35 59 -82 88t-118 29q-75 0 -126.5 -38.5t-74.5 -103.5h-121l33 721h604v-86h-522l-27 -551q36 72 102 109t146 35q165 -3 260 -146q80 -120 84 -311q5 -215 -84 -346 q-99 -146 -274 -146q-176 0 -275 150q-72 111 -76 262z" />
<glyph unicode="6" horiz-adv-x="937" d="M104 430q-5 80 0 208t19 210q41 246 180 401q145 164 356 193v-99q-164 -24 -274 -139q-102 -108 -152 -280q-30 -100 -34 -236q36 99 117 154t169 57q72 2 142.5 -35t120.5 -106q88 -123 88 -316q4 -216 -107 -350q-101 -121 -258 -121q-161 0 -262 129 q-90 115 -105 330zM211 442q0 -171 65 -270q69 -108 195 -111q140 -3 209 121q55 101 55 260q0 151 -57 250q-72 124 -207 121q-125 -3 -197 -119q-63 -103 -63 -252z" />
<glyph unicode="7" horiz-adv-x="772" d="M20 1327v86h711v-98q-351 -617 -371 -1315h-90q20 720 389 1327h-639z" />
<glyph unicode="8" horiz-adv-x="978" d="M111 381q0 166 96 272q60 63 143 97q-76 25 -131 94q-74 96 -74 233q0 173 105 273q96 92 239 92q144 0 240 -92q105 -100 105 -273q0 -137 -74 -233q-55 -69 -131 -94q83 -34 143 -97q96 -106 96 -272q0 -182 -104 -295q-105 -115 -275 -115q-169 0 -274 115 q-104 113 -104 295zM211 381q0 -133 61 -217q76 -103 217 -103q142 0 218 103q61 84 61 217q0 149 -74 231q-34 39 -87.5 62.5t-117.5 23.5q-63 0 -116.5 -23.5t-87.5 -62.5q-74 -82 -74 -231zM240 1071q0 -63 13 -110.5t54 -94.5q36 -41 78 -59.5t104 -18.5q119 0 187 78 q63 73 63 205q0 137 -61 205q-69 80 -189 80q-112 0 -184 -80q-65 -74 -65 -205z" />
<glyph unicode="9" horiz-adv-x="978" d="M123 971q-4 217 106 350q101 121 258 121q162 0 263 -129q89 -114 104 -330q5 -80 0.5 -208.5t-18.5 -209.5q-41 -245 -181 -401q-145 -164 -356 -193v99q164 24 274 139q102 108 152 280q31 103 35 236q-36 -99 -117.5 -154t-169.5 -57q-72 -2 -142 35t-120 106 q-88 123 -88 316zM223 977q0 -149 58 -250q72 -124 206 -121q125 3 197 119q64 104 64 252q0 169 -66 270q-69 108 -195 111q-139 3 -208 -121q-27 -49 -41.5 -120.5t-14.5 -139.5z" />
<glyph unicode=":" horiz-adv-x="421" d="M164 0v156h94v-156h-94zM164 868v156h94v-156h-94z" />
<glyph unicode=";" horiz-adv-x="446" d="M164 -256q36 66 49 119q13 48 18 137h-43v156h95v-127q0 -97 -17 -164q-19 -70 -45 -121h-57zM188 868v156h95v-156h-95z" />
<glyph unicode="&#x3c;" d="M164 569v107l573 430v-94l-508 -373v-33l508 -389v-94z" />
<glyph unicode="=" horiz-adv-x="1105" d="M164 348v86h778v-86h-778zM164 795v86h778v-86h-778z" />
<glyph unicode="&#x3e;" d="M164 123v94l508 389v33l-508 373v94l573 -430v-107z" />
<glyph unicode="?" horiz-adv-x="854" d="M101.5 1110.5q1.5 32.5 17 94t45.5 110.5q91 150 270 147q140 -3 230 -100q88 -96 88 -246q0 -143 -80 -268q-15 -23 -81 -105.5t-89 -121.5q-60 -100 -60 -222v-30h-86v30q0 68 13.5 128t56.5 132q27 45 72 100t92 124q37 54 54.5 103.5t17.5 117.5q0 116 -58 188 q-63 84 -172 84q-128 0 -194 -110q-52 -86 -48 -211h-88q-2 23 -0.5 55.5zM352 0v160h92v-160h-92z" />
<glyph unicode="@" horiz-adv-x="1964" d="M164 700v15q4 226 111 413.5t295 297.5t417 112h6q236 0 429.5 -110t291.5 -293q92 -177 92 -365q0 -138 -47.5 -254t-132.5 -184.5t-188 -69.5q-92 0 -154.5 55.5t-66.5 155.5q-29 -95 -99 -149t-157 -56q-153 0 -250 138q-80 113 -80 280v25q0 189 80 303 q51 72 115.5 104.5t127.5 32.5h7q88 -1 157.5 -54t98.5 -139v177h83v-586v-17q0 -26 1.5 -46t9.5 -49t22.5 -48t42 -33.5t66.5 -15.5h6q114 0 195 117.5t81 316.5q0 141 -47.5 260t-123.5 198t-174 135t-197.5 81t-194.5 25q-153 0 -293.5 -60t-242 -161t-162 -241.5 t-60.5 -295.5q0 -153 60.5 -293.5t162 -242t242 -162t293.5 -60.5q31 0 63.5 2.5t88 13.5t107.5 30t116 55t121 85l47 -61q-225 -191 -533 -191h-12q-168 2 -319.5 65t-262 169.5t-175 256.5t-64.5 318zM719 711q0 -151 55 -248q36 -63 87.5 -91t107.5 -28q125 0 194 123 q54 97 54 244q0 159 -52 250q-33 56 -85 87t-111 31q-126 0 -193 -118q-57 -95 -57 -250z" />
<glyph unicode="A" horiz-adv-x="1097" d="M51 0l424 1434h148l424 -1434h-101l-139 487h-516l-139 -487h-101zM311 565h475l-227 797h-20z" />
<glyph unicode="B" horiz-adv-x="1085" d="M164 0v1434h391q180 0 272 -74q119 -95 119 -283q0 -127 -60 -213q-61 -88 -167 -116q115 -30 177 -124t67 -223v-15q0 -201 -127 -304q-100 -82 -281 -82h-391zM262 88h285q139 0 215 59q98 76 98 248q0 171 -100 250q-79 60 -213 60h-285v-617zM262 791h285 q49 0 74.5 2t64.5 15t72 40q90 77 90 221q0 73 -24.5 130.5t-65.5 90.5q-76 60 -211 60h-285v-559z" />
<glyph unicode="C" horiz-adv-x="1175" d="M123 717q0 312 98 495q129 250 389 250q117 0 203.5 -51t138.5 -129q44 -66 67 -155t25 -169h-100q0 157 -72 267q-50 76 -121 112.5t-149 36.5q-200 -2 -301 -221q-76 -170 -76 -434t76 -434q98 -219 299 -222h7q167 0 265 146q76 114 76 263v11h105q-3 -190 -101 -329 q-33 -47 -74 -85t-115 -69q-70 -29 -151 -29h-10q-252 4 -381 250q-98 183 -98 496z" />
<glyph unicode="D" horiz-adv-x="1138" d="M164 0v1434h211q62 0 115 -6.5t122.5 -26t135.5 -65t120 -113.5q71 -89 109.5 -224.5t38.5 -281.5t-38.5 -281.5t-109.5 -224.5q-166 -211 -473 -211h-231zM262 88h141q138 0 238.5 55.5t157.5 132.5q114 152 114 443q0 290 -114 442q-140 189 -414 189h-123v-1262z" />
<glyph unicode="E" horiz-adv-x="1021" d="M164 0v1434h721v-86h-623v-551h606v-86h-606v-621h637v-90h-735z" />
<glyph unicode="F" horiz-adv-x="940" d="M164 0v1434h663v-86h-565v-572h526v-84h-526v-692h-98z" />
<glyph unicode="G" horiz-adv-x="1232" d="M123 717q0 309 106 502q132 243 398 243q220 0 346 -170q47 -65 77.5 -154.5t34.5 -179.5h-98q-7 154 -82 263q-54 79 -131 117q-73 36 -148 36h-8q-90 -2 -173.5 -52.5t-141.5 -168.5q-78 -161 -78 -423v-13q2 -272 78 -432q102 -219 315 -222q24 0 48 2.5t62.5 14.5 t72.5 32t71.5 59t65.5 91q72 136 72 385v21h-463v90h563v-58q0 -319 -86 -481q-60 -111 -163 -179.5t-243 -68.5q-257 0 -391 246q-104 195 -104 500z" />
<glyph unicode="H" horiz-adv-x="1155" d="M164 0v1434h98v-633h631v633h98v-1434h-98v713h-631v-713h-98z" />
<glyph unicode="I" horiz-adv-x="466" d="M184 0v1434h99v-1434h-99z" />
<glyph unicode="J" horiz-adv-x="538" d="M41 -29v92h31q74 0 119.5 30t66.5 67q17 28 26 75.5t10 83t1 103.5v1012h100v-1014v-32.5v-36.5t-0.5 -35t-2 -39t-4 -35.5t-7 -38.5t-10 -35t-13.5 -36.5t-18 -31.5q-83 -129 -260 -129h-39z" />
<glyph unicode="K" horiz-adv-x="1036" d="M164 0v1434h98v-633h227l383 633h109l-406 -672l410 -762h-117l-379 719h-227v-719h-98z" />
<glyph unicode="L" horiz-adv-x="770" d="M164 0v1434h98v-1344h508v-90h-606z" />
<glyph unicode="M" horiz-adv-x="1687" d="M143 0v844v52v56.5t1 51.5t3.5 56.5t7 51t11 55.5t16.5 49.5t23 51.5q97 182 295 186h9q121 0 213 -76q96 -80 122 -217q26 137 122 217q92 77 213 76h9q114 -3 187 -58t110 -128q14 -27 24.5 -55.5t17 -63.5t10.5 -57.5t5.5 -66.5t1.5 -59v-24v-41v-57v-844h-100v860 q0 97 -1.5 144t-10 106t-25.5 100q-36 80 -99.5 118t-133.5 38q-76 0 -139 -42.5t-97 -113.5q-45 -92 -45 -350v-860h-98v860q0 258 -45 350q-34 71 -97 113.5t-139 42.5q-70 0 -133.5 -38t-99.5 -118q-18 -40 -26 -98t-9.5 -105t-1.5 -145v-862h-101z" />
<glyph unicode="N" horiz-adv-x="1134" d="M142 898v38.5v23.5q0 17 2.5 60t7.5 69t13 62.5t22 68t32 60.5q46 73 131 125.5t217 52.5q69 0 128.5 -16t101.5 -43.5t69.5 -55t48.5 -59.5q27 -42 44 -89.5t23.5 -108t7.5 -99t1 -111.5v-30v-846h-100v866v24q0 76 -1.5 117t-13 100t-34.5 103q-84 160 -275 160 q-189 0 -274 -158q-25 -46 -36.5 -115t-12 -103.5t-0.5 -127.5v-866h-101v846q-1 6 -1 52z" />
<glyph unicode="O" horiz-adv-x="1196" d="M123 717q0 317 98 502q37 70 84 119.5t98 75.5t98.5 37t96.5 11q47 0 92 -10t97 -34.5t101 -74.5t87 -122q98 -186 98 -504t-98 -504q-38 -72 -87 -122t-101 -75t-97 -35t-92 -10t-92 10t-97 35t-101 75t-87 122q-98 186 -98 504zM225 719q0 -273 74 -440 q29 -62 66.5 -106t78.5 -67t78.5 -33t75.5 -10t75.5 10t78.5 33t78.5 67t66.5 106q74 167 74 440t-74 440q-55 117 -135 166t-164 49t-164 -49t-135 -166q-74 -167 -74 -440z" />
<glyph unicode="P" horiz-adv-x="1026" d="M164 0v1434h303q51 0 83 -2t76.5 -11t83.5 -30.5t76 -55.5q127 -117 127 -336t-125 -329q-65 -58 -145 -78.5t-176 -20.5h-205v-571h-98zM262 655h207q78 0 142.5 15.5t115.5 64.5q86 84 86 266q0 183 -86 267q-51 49 -115.5 64.5t-142.5 15.5h-207v-693z" />
<glyph unicode="Q" horiz-adv-x="1200" d="M123 717q0 317 98 502q37 70 84 119.5t98 75.5t98.5 37t96.5 11q47 0 92 -10t97 -34.5t101 -74.5t87 -122q98 -180 98 -504q0 -327 -119 -543l154 -127l-55 -76l-156 131q-118 -131 -299 -131q-46 0 -91.5 10.5t-97.5 35.5t-101 75t-87 121q-98 174 -98 504zM225 719 q0 -273 74 -440q29 -62 66.5 -106t78.5 -67t78.5 -33t75.5 -10t75.5 10t78.5 33t78.5 67t66.5 106q74 167 74 440t-74 440q-55 117 -135 166t-164 49t-164 -49t-135 -166q-74 -167 -74 -440z" />
<glyph unicode="R" horiz-adv-x="1075" d="M164 0v1434h299q61 0 83.5 -1t74.5 -6.5t92 -21.5t78 -43q64 -46 105.5 -126.5t41.5 -197.5q0 -179 -109 -284q-54 -52 -122 -70q47 -22 73.5 -58.5t50.5 -99.5l193 -526h-111l-174 492q-32 94 -88 129q-44 24 -121 24h-268v-645h-98zM262 731h266q135 0 215 70 q95 87 95 235q0 82 -30 147t-77 103q-78 62 -207 62h-262v-617z" />
<glyph unicode="S" horiz-adv-x="1077" d="M123 459h102v-17q0 -80 25 -156q28 -84 88 -143q80 -80 209 -80q137 0 219 78q86 77 86 224q0 79 -23 138t-84 105q-31 23 -76 42t-72 27t-81 23q-182 51 -262 131q-96 96 -98 254v9q0 171 106 270q102 98 270 98t277 -106q125 -120 126 -345q0 -14 -1 -28h-100 q1 17 1 33q0 182 -104 282q-79 76 -201 76t-198 -74t-76 -204q0 -62 16 -111t64 -94q67 -63 219 -105q5 -1 28 -8t29 -8.5t26.5 -8t28.5 -9t26 -9t27 -10.5t24.5 -11t25.5 -13t22 -13.5t23 -15.5q139 -105 139 -302v-11q-4 -197 -131 -304q-108 -92 -278 -92 q-173 3 -279 107q-73 70 -109 171q-34 96 -34 199v11z" />
<glyph unicode="T" horiz-adv-x="940" d="M51 1341v93h838v-93h-373v-1341h-96v1341h-369z" />
<glyph unicode="U" horiz-adv-x="1134" d="M142 451v28v48q0 58 1 61v846h101v-867v-22q0 -73 1.5 -114.5t13 -102t34.5 -103.5q80 -153 274 -153t275 155q23 44 34.5 103.5t13 99.5t1.5 114v23v867h100v-846q1 -6 1 -52v-38.5v-23.5q0 -18 -2.5 -61.5t-7.5 -70t-13 -64t-22 -69t-32 -59.5q-21 -32 -48.5 -59.5 t-69.5 -55t-101.5 -44t-128.5 -16.5q-231 0 -348 179q-22 33 -37 74.5t-23 71t-12.5 81.5t-4.5 70z" />
<glyph unicode="V" horiz-adv-x="1048" d="M51 1434h101l362 -1356h21l362 1356h100l-395 -1434h-156z" />
<glyph unicode="W" horiz-adv-x="1687" d="M143 590v844h101v-863q0 -96 1.5 -143.5t10 -106.5t25.5 -98q32 -70 94.5 -110.5t138.5 -40.5t139 40.5t97 110.5q45 92 45 350v861h98v-861q0 -258 45 -350q34 -70 97 -110.5t139 -40.5t138.5 40.5t94.5 110.5q24 53 30.5 125t6.5 225v861h100v-844q0 -172 -9.5 -265 t-43.5 -159q-39 -79 -119.5 -132t-183.5 -54h-9q-119 0 -210 74q-94 78 -125 206q-30 -128 -124 -204q-92 -76 -217 -76h-3q-104 1 -181.5 53.5t-119.5 132.5q-26 52 -39 127.5t-15 133.5t-2 163z" />
<glyph unicode="X" horiz-adv-x="1044" d="M51 0l385 758l-362 676h100l342 -639h12l342 639h101l-363 -676l385 -758h-106l-359 713h-12l-358 -713h-107z" />
<glyph unicode="Y" horiz-adv-x="978" d="M51 1434h99l339 -705l340 705h99l-389 -803v-631h-99v631z" />
<glyph unicode="Z" horiz-adv-x="972" d="M61 0v113l727 1228h-714v93h819v-107l-727 -1231h745v-96h-850z" />
<glyph unicode="[" horiz-adv-x="643" d="M164 -307v1945h315v-90h-221v-1761h221v-94h-315z" />
<glyph unicode="\" horiz-adv-x="749" d="M0 1536h94l656 -1843h-99z" />
<glyph unicode="]" horiz-adv-x="643" d="M164 -213h221v1761h-221v90h315v-1945h-315v94z" />
<glyph unicode="^" horiz-adv-x="925" d="M102 817l297 617h127l297 -617h-94l-254 549h-24l-254 -549h-95z" />
<glyph unicode="_" horiz-adv-x="1290" d="M164 -451h962v-86h-962v86z" />
<glyph unicode="`" horiz-adv-x="559" d="M123 1434h98l215 -349h-98z" />
<glyph unicode="a" horiz-adv-x="1019" d="M113 512q0 224 82 362q101 167 284 170h4q103 0 177 -53q76 -54 110 -149v182h96v-1024h-96v184q-34 -91 -108 -148q-73 -56 -179 -56h-4q-183 3 -284 170q-82 138 -82 362zM213 514q0 -195 53 -299q23 -47 54.5 -79.5t64 -47.5t58.5 -21t51 -6q64 0 125 36t102 118 q53 104 53 299q0 198 -53 299q-38 74 -100.5 114t-126.5 40q-68 0 -129.5 -40.5t-98.5 -113.5q-53 -104 -53 -299z" />
<glyph unicode="b" horiz-adv-x="1019" d="M154 0v1434h96v-596q30 98 108 153q76 53 176 53h7q183 -3 284 -170q82 -138 82 -362t-82 -362q-101 -167 -284 -170h-4q-107 0 -179 57q-74 58 -108 151v-188h-96zM246 514q0 -195 53 -299q41 -81 102.5 -117.5t124.5 -36.5q64 0 125.5 36.5t102.5 117.5q53 104 53 299 q0 198 -53 299q-38 73 -101 113.5t-127 40.5t-126 -40.5t-101 -113.5q-53 -101 -53 -299z" />
<glyph unicode="c" horiz-adv-x="970" d="M113 512q0 217 80 356q103 182 301 185h8q155 0 250 -113q44 -52 70 -129.5t26 -155.5h-98q0 54 -17.5 115t-48.5 102q-32 41 -82.5 69t-107.5 28q-23 0 -47 -5t-57.5 -19.5t-66 -49t-57.5 -84.5q-53 -109 -53 -297t53 -297q74 -154 228 -158h4q60 1 112 27q52 28 86 72 q28 40 45 100.5t17 118.5h100q0 -78 -25.5 -153t-68.5 -130q-46 -58 -116 -91q-67 -32 -149 -32h-5q-198 3 -301 185q-80 138 -80 356z" />
<glyph unicode="d" horiz-adv-x="1019" d="M113 512q0 224 82 362q99 167 284 170h4q103 0 179 -53q78 -54 108 -149v592h96v-1434h-96v184q-34 -90 -108 -148q-73 -57 -179 -56h-4q-184 3 -284 170q-82 138 -82 362zM213 514q0 -188 53 -299q75 -154 228 -154q152 0 227 154q53 111 53 299q0 195 -53 299 q-41 81 -102.5 117.5t-124.5 36.5q-64 0 -125.5 -36.5t-102.5 -117.5q-53 -104 -53 -299z" />
<glyph unicode="e" horiz-adv-x="983" d="M113 512q0 231 73 362q102 179 303 179q208 0 310 -179q71 -122 71 -360v-27h-659q-1 -14 -1 -28q0 -57 10 -121q12 -79 40 -133q75 -146 236 -146q147 0 223 121q40 63 47 152h98q-11 -111 -69 -201q-107 -160 -294 -160h-7q-205 3 -308 179q-73 130 -73 362zM211 565 h557v19q0 54 -10 116q-12 73 -37 123q-35 68 -97 107t-135 39q-67 0 -128.5 -35.5t-100.5 -110.5q-49 -99 -49 -241v-17z" />
<glyph unicode="f" horiz-adv-x="493" d="M154 1094q-1 15 -1 25.5t1 16.5q0 13 1 40t4 43t8 38.5t13 42t19 37.5q74 125 245 125h9v-86h-13q-51 0 -93.5 -25t-65.5 -63q-20 -34 -25.5 -84t-5.5 -141v-39h203v-86h-203v-938h-96v1055v39z" />
<glyph unicode="g" horiz-adv-x="1019" d="M113 512q0 224 82 362q99 167 284 170h4q102 0 179 -53q77 -54 108 -149v182h96v-1036v-40v-41.5t-1 -37t-2.5 -39t-5 -34.5t-8 -37t-12 -31.5t-16.5 -32.5q-32 -52 -96.5 -92.5t-153.5 -40.5h-16v94h18q60 0 103.5 28t66.5 68q8 14 13.5 32t8.5 32t4 40.5t1.5 38.5 t0 46.5t-0.5 46.5v196q-34 -90 -108 -148q-74 -56 -179 -56h-4q-184 3 -284 170q-82 138 -82 362zM213 514q0 -195 53 -299q24 -47 55.5 -79.5t63.5 -47.5t58 -21t51 -6t50.5 6t58 21t63.5 47.5t55 79.5q53 104 53 299t-53 299q-37 73 -98 113.5t-129 40.5t-129.5 -40.5 t-98.5 -113.5q-53 -104 -53 -299z" />
<glyph unicode="h" horiz-adv-x="974" d="M154 0v1434h96v-574q32 79 92 123q78 61 190 61q182 0 263 -137q23 -39 34 -89.5t12 -80t1 -94.5v-643h-99v649q0 143 -32 205q-24 42 -72 72q-46 29 -114 28h-5q-71 -1 -126.5 -33.5t-88.5 -82.5q-55 -82 -55 -238v-600h-96z" />
<glyph unicode="i" horiz-adv-x="444" d="M174 0v1024h96v-1024h-96zM174 1270v164h96v-164h-96z" />
<glyph unicode="j" horiz-adv-x="444" d="M174 -410v1434h96v-1434h-96zM174 1270v164h96v-164h-96z" />
<glyph unicode="k" horiz-adv-x="815" d="M154 0v1434h96v-852h153l254 442h101l-277 -479l283 -545h-105l-256 498h-153v-498h-96z" />
<glyph unicode="l" horiz-adv-x="444" d="M174 0v1434h96v-1434h-96z" />
<glyph unicode="m" horiz-adv-x="1437" d="M154 0v1024h94l4 -152q22 71 86 123q74 54 162 54h3q87 0 153 -50q66 -51 89 -139q30 83 97.5 135.5t167.5 53.5h5q96 -1 156 -41q62 -42 93 -105q20 -39 29.5 -97t10.5 -90.5t1 -101.5v-614h-99v614q0 67 -0.5 95.5t-6 70.5t-17.5 70q-19 50 -66 86q-42 33 -110 33h-15 q-70 -4 -115.5 -40t-68.5 -83q-31 -69 -31 -232v-614h-94v614q0 177 -23 236q-22 54 -67 87q-44 32 -105 32h-4q-57 -2 -109.5 -34t-82.5 -89q-39 -72 -39 -232v-614h-98z" />
<glyph unicode="n" horiz-adv-x="974" d="M154 0v1024h92l4 -164q34 75 92 123q75 61 190 61q182 0 263 -137q23 -39 34 -89.5t12 -80t1 -94.5v-643h-99v649q0 145 -32 205q-56 104 -186 104h-5q-139 -2 -215 -120q-55 -86 -55 -238v-600h-96z" />
<glyph unicode="o" horiz-adv-x="995" d="M113 512q0 222 80 358q33 55 74.5 93.5t84 57t77 25.5t69.5 7t69.5 -7t77 -25.5t84 -57t74.5 -93.5q80 -136 80 -358t-80 -358q-33 -55 -74.5 -93.5t-84 -57t-77 -25.5t-69.5 -7t-69.5 7t-77 25.5t-84 57t-74.5 93.5q-80 136 -80 358zM213 514q0 -168 51 -285 q23 -52 55.5 -88t66 -52.5t60 -23t52.5 -6.5q36 0 72 10.5t83.5 51t77.5 108.5q51 117 51 285q0 178 -49 287q-39 86 -102 127t-133 41t-133.5 -41t-102.5 -127q-49 -109 -49 -287z" />
<glyph unicode="p" horiz-adv-x="1019" d="M154 -410v1434h96v-182q33 95 110 149q75 53 177 53h4q183 -3 284 -170q82 -138 82 -362t-82 -362q-101 -167 -284 -170h-4q-106 0 -179 56q-75 57 -108 148v-594h-96zM246 514q0 -195 53 -299q41 -82 102 -118t125 -36q25 0 51 6t58.5 21t64 47.5t54.5 79.5 q53 104 53 299t-53 299q-37 73 -98.5 113.5t-129.5 40.5q-64 0 -126.5 -40t-100.5 -114q-53 -101 -53 -299z" />
<glyph unicode="q" horiz-adv-x="1019" d="M113 512q0 224 82 362q99 167 284 170h4q102 0 179 -53q77 -54 108 -149v182h96v-1434h-96v594q-34 -90 -108 -148q-74 -56 -179 -56h-4q-184 3 -284 170q-82 138 -82 362zM213 514q0 -195 53 -299q41 -81 102.5 -117.5t125.5 -36.5q63 0 124.5 36.5t102.5 117.5 q53 104 53 299q0 198 -53 299q-39 73 -101 113.5t-126 40.5t-127 -40.5t-101 -113.5q-53 -101 -53 -299z" />
<glyph unicode="r" horiz-adv-x="645" d="M154 0v1024h92l4 -160q33 80 90 125q70 56 158 56q9 0 18 -1q43 -3 88 -20v-100q-56 32 -112 32q-58 0 -109.5 -30.5t-83.5 -85.5q-49 -84 -49 -240v-600h-96z" />
<glyph unicode="s" horiz-adv-x="892" d="M113 332h100v-18q0 -126 68 -197q60 -62 163 -62q108 0 168 49q68 55 68 156q0 110 -76 166q-17 13 -41.5 25t-43.5 18.5t-55.5 17.5t-53.5 17q-124 38 -183 94q-80 74 -80 190q0 133 95 207q41 33 100 49q52 14 102 13h13q123 -3 202 -68q63 -52 89 -133q25 -75 24 -145 v-11h-96q0 160 -78 226q-49 42 -141 47h-15q-83 0 -135 -41q-65 -48 -65 -146q0 -81 65 -133q13 -10 28 -19.5t25.5 -15t29.5 -12.5t25.5 -9.5t28.5 -9t25 -7.5q146 -45 209 -95q102 -79 102 -225q0 -149 -106 -229q-87 -64 -218 -64h-12q-152 2 -237 92q-94 96 -94 273z " />
<glyph unicode="t" horiz-adv-x="718" d="M51 938v86h617v-86h-260v-938h-97v938h-260z" />
<glyph unicode="u" horiz-adv-x="974" d="M133 381v643h98v-649q0 -141 33 -205q24 -42 72 -72q46 -29 114 -28h5q71 1 126.5 33.5t88.5 82.5q55 82 55 238v600h96v-1024h-92l-4 164q-32 -79 -92 -123q-78 -61 -191 -61q-181 0 -262 137q-23 39 -34 89.5t-12 80t-1 94.5z" />
<glyph unicode="v" horiz-adv-x="831" d="M51 1024h101l254 -940h20l254 940h100l-288 -1024h-152z" />
<glyph unicode="w" horiz-adv-x="1417" d="M133 426v598h98v-602q0 -58 1 -88.5t9.5 -74.5t24.5 -77q30 -60 77.5 -90.5t102.5 -30.5q53 0 103 29t80 92q15 32 23 76.5t9 75.5t1 88v602h94v-602q0 -58 1 -88t9.5 -73.5t24.5 -78.5q57 -121 180 -121q120 0 178 121q37 75 37 240v602h98v-598q0 -213 -55 -305 q-38 -67 -106 -106.5t-144 -39.5h-6q-91 0 -163 57q-74 59 -101 161q-27 -101 -102 -161q-73 -58 -163 -57h-6q-76 2 -142.5 40t-105.5 106q-21 35 -33.5 75t-17 87.5t-5.5 71t-1 71.5z" />
<glyph unicode="x" horiz-adv-x="815" d="M51 0l275 545l-267 479h101l241 -442h13l241 442h101l-267 -479l275 -545h-105l-245 498h-13l-245 -498h-105z" />
<glyph unicode="y" horiz-adv-x="860" d="M51 1024h101l276 -938h14l267 938h100l-344 -1159q-44 -151 -90 -213q-62 -83 -152 -90v90q55 6 96 63q37 54 68 166l33 119h-19q-36 0 -51 47z" />
<glyph unicode="z" horiz-adv-x="765" d="M61 0v94l539 848h-526v82h622v-90l-540 -848h549v-86h-644z" />
<glyph unicode="{" horiz-adv-x="851" d="M164 672v92h59q44 0 75 12t47.5 29.5t26 45.5t11.5 50.5t2 54.5v418q0 31 4 60t21 68.5t45.5 67.5t82.5 48t126 20h24v-90h-24q-185 0 -185 -196v-420q0 -78 -25 -129.5t-94 -85.5q69 -33 94 -84t25 -131v-512q0 -43 7.5 -75.5t26.5 -63.5t57.5 -47.5t95.5 -16.5h22v-94 h-24q-80 0 -136.5 22.5t-86.5 62t-43 85.5t-13 102v512q0 33 -2.5 57t-12 51.5t-26 45t-46.5 29.5t-71 12h-63z" />
<glyph unicode="|" horiz-adv-x="462" d="M184 -307v1843h95v-1843h-95z" />
<glyph unicode="}" horiz-adv-x="851" d="M164 -213h22q57 0 95.5 16.5t57.5 47.5t26.5 63.5t7.5 75.5v512q0 80 25 131t94 84q-69 34 -94 85.5t-25 129.5v420q0 196 -185 196h-24v90h24q72 0 126 -20t82.5 -48t45.5 -67.5t21 -68.5t4 -60v-418q0 -32 2 -54.5t11.5 -50.5t26 -45.5t47.5 -29.5t75 -12h59v-92h-63 q-41 0 -71 -12t-46.5 -29.5t-26 -45t-12 -51.5t-2.5 -57v-512q0 -56 -13 -102t-43 -85.5t-86.5 -62t-136.5 -22.5h-24v94z" />
<glyph unicode="~" horiz-adv-x="1105" d="M164 582v86q104 67 196 67q78 0 193 -53q54 -23 75.5 -32t59 -19t68.5 -10q88 0 186 75v-86q-101 -67 -192 -67q-73 0 -197 53q-9 4 -35 15t-36 15t-31 11.5t-34 10.5t-31 6t-34 3q-87 0 -188 -75z" />
<glyph unicode="&#xa1;" horiz-adv-x="425" d="M164 0l14 1065h70l14 -1065h-98zM166 1278v156h94v-156h-94z" />
<glyph unicode="&#xa2;" horiz-adv-x="1077" d="M164 514q0 218 78 354q95 165 266 183v280h65v-280q145 -8 236 -115q45 -55 69.5 -134.5t24.5 -156.5h-100q0 56 -17 121t-49 106q-61 79 -164 93v-902q106 9 168 91q30 37 49 101t21 124h102q0 -26 -2.5 -58.5t-26 -106.5t-65.5 -124q-97 -112 -246 -117v-280h-65v280 q-175 19 -266 183q-38 70 -58 167t-20 191zM266 514q0 -172 58 -291q33 -70 77 -106.5t107 -50.5v897q-62 -12 -105.5 -48t-76.5 -104q-60 -123 -60 -297z" />
<glyph unicode="&#xa3;" horiz-adv-x="1077" d="M164 0v94q151 112 151 307v246h-151v80h151v287q0 80 1 113.5t13.5 91.5t39.5 102q79 129 245 129q170 0 248 -129q51 -84 51 -256h-94q4 48 -4 109.5t-29 97.5q-23 40 -70 67.5t-102 28.5q-54 2 -100.5 -24t-71.5 -72q-32 -60 -32 -236v-309h292v-80h-292v-215 q0 -46 -1.5 -74t-7.5 -67t-18 -68t-34.5 -64t-55.5 -69h620v-90h-749z" />
<glyph unicode="&#xa4;" horiz-adv-x="1148" d="M156 684q0 145 98 264l-90 90l57 60l92 -92q120 94 265 94q142 0 258 -94l92 92l57 -60l-90 -90q94 -120 94 -262q0 -140 -94 -260l90 -90l-61 -64l-90 90q-120 -94 -263 -94q-144 0 -258 99l-90 -91l-59 58l90 90q-98 116 -98 260zM246 688q0 -140 95 -234t232 -94 t232.5 94.5t95.5 233.5q0 135 -96 230.5t-232 95.5q-139 0 -233 -94.5t-94 -231.5z" />
<glyph unicode="&#xa5;" horiz-adv-x="1204" d="M164 311v80h389v256h-389v80h368l-368 707h98l340 -666l340 666h98l-368 -707h368v-80h-389v-256h389v-80h-389v-311h-98v311h-389z" />
<glyph unicode="&#xa6;" horiz-adv-x="462" d="M184 266h95v-573h-95v573zM184 963v573h95v-573h-95z" />
<glyph unicode="&#xa7;" horiz-adv-x="1122" d="M164 674q2 38 15.5 75.5t39.5 74.5t73 66.5t109 43.5q-86 46 -122.5 114.5t-38.5 139.5q-2 52 17 103.5t57 95.5t102 70.5t145 25.5q140 -3 229 -89.5t89 -222.5v-16h-101q-4 60 -22 105t-41 70t-53.5 41t-53.5 20.5t-47 5.5q-97 4 -156 -58.5t-57 -146.5 q0 -32 6.5 -58.5t21.5 -47t27 -34.5t37.5 -29t37.5 -21.5t42 -20.5l240 -117q38 -19 67.5 -39t64.5 -55t52.5 -87t13.5 -116q-2 -22 -6.5 -44.5t-20 -58t-39.5 -64t-69 -55t-104 -38.5q25 -13 48.5 -30t54.5 -49.5t50 -82.5t19 -110q0 -125 -92 -217t-238 -92 q-68 0 -128.5 23.5t-107.5 67.5t-72 113.5t-20 155.5h107v-6q0 -129 64 -192.5t157 -63.5q91 0 154 60.5t65 146.5q1 39 -11.5 72t-27 53.5t-44.5 42.5t-46 31t-49 26l-240 121q-209 104 -198 297zM274 680q-9 -133 160 -217l187 -94q109 3 166.5 60t60.5 130 q3 60 -35 120.5t-121 100.5l-190 92q-63 -2 -109.5 -23.5t-70.5 -53.5t-35 -60.5t-13 -54.5z" />
<glyph unicode="&#xa8;" horiz-adv-x="983" d="M221 1260v174h92v-174h-92zM672 1260v174h92v-174h-92z" />
<glyph unicode="&#xa9;" horiz-adv-x="1974" d="M164 715q0 168 65 320t175.5 262.5t262.5 175.5t320 65t320 -65t262.5 -175.5t175.5 -262.5t65 -320t-65 -320.5t-175.5 -262.5t-262.5 -175.5t-320 -65.5t-320 65.5t-262.5 175.5t-175.5 262.5t-65 320.5zM240 715q0 -153 59 -291.5t159 -238.5t238 -159t291 -59 t291.5 59t238.5 159t159 238.5t59 291.5t-59 291t-159 238t-238.5 159t-291.5 59t-291 -59t-238 -159t-159 -238t-59 -291zM612 717q0 105 16.5 191.5t69.5 166.5q106 166 297 166q86 0 156 -36t111 -91q11 -13 24 -34.5t32 -79.5t21 -119h-92q0 100 -61 192q-76 97 -197 94 q-146 -6 -223 -143q-37 -66 -48 -139.5t-11 -167.5q0 -192 59 -299q25 -45 56.5 -76t63 -45t56 -19.5t47.5 -5.5q120 0 197 95q64 75 67 188h95q-10 -135 -91 -236q-44 -56 -112.5 -90t-153.5 -34q-190 0 -295 172q-84 136 -84 350z" />
<glyph unicode="&#xaa;" horiz-adv-x="831" d="M82 1114q0 143 65 229q77 103 213 103q73 0 127 -33t84 -92v113h78v-465q0 -125 101 -129l-33 -60q-59 5 -100 45t-44 101q-24 -67 -82 -105.5t-131 -40.5q-59 -2 -116 24t-97 81q-65 89 -65 229zM162 1114q0 -116 47 -186q30 -43 73 -66.5t85 -23.5q44 0 88 23.5 t73 68.5q19 28 28.5 64.5t11 59t1.5 60.5q0 39 -1.5 62t-11 61t-28.5 66q-26 39 -69.5 64.5t-91.5 25.5q-96 0 -156 -90q-49 -70 -49 -189z" />
<glyph unicode="&#xab;" horiz-adv-x="1024" d="M164 465v94l344 465v-100l-295 -402v-20l295 -402v-100zM516 465v94l344 465v-100l-295 -402v-20l295 -402v-100z" />
<glyph unicode="&#xac;" horiz-adv-x="1351" d="M164 500v82h1024v-344h-82v262h-942z" />
<glyph unicode="&#xad;" d="M164 498v86h573v-86h-573z" />
<glyph unicode="&#xae;" horiz-adv-x="1974" d="M164 715q0 168 65 320t175.5 262.5t262.5 175.5t320 65t320 -65t262.5 -175.5t175.5 -262.5t65 -320t-65 -320.5t-175.5 -262.5t-262.5 -175.5t-320 -65.5t-320 65.5t-262.5 175.5t-175.5 262.5t-65 320.5zM240 715q0 -153 59 -291.5t159 -238.5t238 -159t291 -59 t291.5 59t238.5 159t159 238.5t59 291.5t-59 291t-159 238t-238.5 159t-291.5 59t-291 -59t-238 -159t-159 -238t-59 -291zM711 215v1004h168h36.5h38.5t35 -0.5t37.5 -2.5t33.5 -5t35.5 -7.5t31.5 -11.5t32 -16q121 -73 121 -234q0 -137 -84 -205q-46 -38 -113 -51 q15 -4 27.5 -9.5t22 -14.5t16 -14.5t13 -17t8.5 -15.5t8 -17t6 -14l168 -369h-86l-154 344q-28 63 -74 84q-42 19 -102 19h-148v-447h-77zM788 731h152q39 0 61.5 1.5t59 11t61.5 28.5q74 53 74 168q0 117 -80 174q-10 7 -20 12.5t-21.5 9.5t-20 7t-21.5 5t-19 3t-21 1.5 t-18.5 0.5h-19.5h-17h-150v-422z" />
<glyph unicode="&#xb0;" horiz-adv-x="827" d="M123 1157q0 120 85.5 205.5t205.5 85.5t205.5 -85.5t85.5 -205.5t-85.5 -205.5t-205.5 -85.5t-205.5 85.5t-85.5 205.5zM193 1157q0 -94 63.5 -157.5t157.5 -63.5t157.5 63.5t63.5 157.5t-63.5 157.5t-157.5 63.5t-157.5 -63.5t-63.5 -157.5z" />
<glyph unicode="&#xb1;" horiz-adv-x="1105" d="M164 123v86h778v-86h-778zM164 713v86h342v307h94v-307h342v-86h-342v-307h-94v307h-342z" />
<glyph unicode="&#xb4;" horiz-adv-x="894" d="M373 1126l215 308h98l-215 -308h-98z" />
<glyph unicode="&#xb5;" horiz-adv-x="974" d="M154 -410v1434h94v-600q0 -71 10.5 -127.5t46.5 -110.5q76 -113 215 -116q71 -1 119 28.5t72 71.5q32 62 32 205v649h99v-643v-34.5v-40t-1 -36t-4 -41.5t-7.5 -36t-11.5 -40.5t-17 -35.5q-74 -133 -258 -137q-120 -3 -199 55q-68 51 -96 125v-570h-94z" />
<glyph unicode="&#xb6;" horiz-adv-x="1048" d="M164 1065q3 138 74 229q109 140 346 140h301v-80h-127v-1661h-84v1657h-144v-654q-167 -2 -270 107q-99 102 -96 262z" />
<glyph unicode="&#xb7;" horiz-adv-x="442" d="M164 467v156h115v-156h-115z" />
<glyph unicode="&#xba;" horiz-adv-x="745" d="M82 1112q0 136 63 227q37 51 95 83t133 32q145 0 227 -115q64 -90 64 -227q0 -136 -64 -225q-36 -51 -95 -83t-132 -32q-143 0 -228 115q-63 86 -63 225zM162 1114q0 -106 39 -170q27 -46 72.5 -74t99.5 -28t99.5 28t72.5 74q39 64 39 170q0 107 -39 172q-59 98 -172 98 t-172 -98q-39 -65 -39 -172z" />
<glyph unicode="&#xbb;" horiz-adv-x="1024" d="M164 0v100l295 402v20l-295 402v100l344 -465v-94zM516 0v100l295 402v20l-295 402v100l344 -465v-94z" />
<glyph unicode="&#xbf;" horiz-adv-x="854" d="M102 317q0 144 80 269q15 23 81 105.5t89 121.5q60 100 60 221v31h86v-31q0 -68 -13.5 -128t-56.5 -132q-27 -45 -72 -99.5t-92 -123.5q-37 -54 -54 -103.5t-17 -117.5q0 -118 57 -189q63 -84 172 -84q128 0 194 111q52 86 48 211h88q2 -23 0.5 -55.5t-17 -94 t-45.5 -110.5q-91 -151 -270 -148q-139 3 -230 101q-88 96 -88 245zM410 1274v160h92v-160h-92z" />
<glyph unicode="&#xc6;" horiz-adv-x="1699" d="M51 0l424 1434h768l25 -86h-621l164 -551h575l25 -86h-575l184 -621h604l25 -90h-703l-139 487h-516l-139 -487h-101zM311 565h475l-227 797h-20z" />
<glyph unicode="&#xd7;" horiz-adv-x="1044" d="M164 328l295 295l-295 295l63 63l295 -295l295 295l64 -63l-295 -295l295 -295l-64 -64l-295 295l-295 -295z" />
<glyph unicode="&#xe6;" horiz-adv-x="1634" d="M113 512q0 224 82 362q101 167 284 170q105 1 181.5 -53t109.5 -149v182h96v-182q22 61 57 105t76 65.5t79 31t79 9.5q88 0 165.5 -46.5t127.5 -132.5q72 -123 72 -360v-27h-656q-5 -169 45 -274q69 -150 236 -154q147 -3 223 121q40 63 47 152h99q-11 -109 -70 -201 q-109 -160 -285 -160q-216 -2 -295 213v-184h-96v184q-33 -91 -107.5 -148t-183.5 -56q-183 3 -284 170q-82 138 -82 362zM213 514q0 -195 53 -299q23 -47 54.5 -79.5t64 -47.5t58.5 -21t51 -6q64 0 125 36t102 118q53 104 53 299q0 198 -53 299q-38 74 -100.5 114 t-126.5 40q-68 0 -129.5 -40.5t-98.5 -113.5q-53 -104 -53 -299zM866 565h553q2 62 -9.5 135t-37.5 123q-35 68 -96.5 107t-134.5 39q-158 0 -230 -154q-52 -109 -45 -250z" />
<glyph unicode="&#xf7;" horiz-adv-x="1105" d="M164 580v86h778v-86h-778zM504 205v145h98v-145h-98zM504 879v145h98v-145h-98z" />
<glyph unicode="&#x152;" horiz-adv-x="1832" d="M123 717q0 317 98 502q126 239 377 243q74 1 137 -22.5t101.5 -56t69.5 -78t45 -78.5t24 -68v275h721v-86h-623v-551h606v-86h-606v-621h637v-90h-735v274q-34 -136 -132.5 -220t-244.5 -83q-49 0 -96.5 11t-98.5 37t-98 75.5t-84 118.5q-98 174 -98 504zM225 719 q0 -273 74 -440q29 -62 66.5 -106t78.5 -67t78.5 -33t75.5 -10t75.5 10t78.5 33t78.5 67t66.5 106q74 167 74 440t-74 440q-55 117 -135 166t-164 49t-164 -49t-135 -166q-74 -167 -74 -440z" />
<glyph unicode="&#x153;" horiz-adv-x="1658" d="M113 512q0 222 80 358q33 55 74.5 93.5t84 57t77 25.5t69.5 7q75 0 144 -31t114 -88q53 -67 75 -176q21 99 82 180q90 115 252 115q207 0 310 -179q71 -122 71 -360v-27h-659q-3 -70 9 -149t40 -133q75 -146 235 -146q148 0 224 121q40 63 47 152h98q-11 -109 -70 -201 q-105 -160 -301 -160q-92 0 -151.5 30.5t-106.5 88.5q-69 84 -80 186q-16 -102 -79 -186q-93 -119 -254 -119q-198 0 -305 183q-80 136 -80 358zM213 514q0 -168 51 -285q23 -52 55.5 -88t66 -52.5t60 -23t52.5 -6.5t52.5 6.5t59.5 23t65 52.5t56 88q51 115 51 285 q0 176 -49 287q-39 86 -102 127t-133 41t-133.5 -41t-102.5 -127q-49 -109 -49 -287zM887 565h557q2 62 -9.5 135t-37.5 123q-35 68 -97 107t-135 39q-67 0 -128.5 -35.5t-100.5 -110.5q-52 -105 -49 -258z" />
<glyph unicode="&#x2c6;" horiz-adv-x="794" d="M123 1085l215 349h119l215 -349h-99l-176 293l-176 -293h-98z" />
<glyph unicode="&#x2000;" horiz-adv-x="819" />
<glyph unicode="&#x2001;" horiz-adv-x="1638" />
<glyph unicode="&#x2002;" horiz-adv-x="819" />
<glyph unicode="&#x2003;" horiz-adv-x="1638" />
<glyph unicode="&#x2004;" horiz-adv-x="546" />
<glyph unicode="&#x2005;" horiz-adv-x="409" />
<glyph unicode="&#x2006;" horiz-adv-x="273" />
<glyph unicode="&#x2007;" horiz-adv-x="273" />
<glyph unicode="&#x2008;" horiz-adv-x="204" />
<glyph unicode="&#x2009;" horiz-adv-x="327" />
<glyph unicode="&#x200a;" horiz-adv-x="91" />
<glyph unicode="&#x2010;" d="M164 498v86h573v-86h-573z" />
<glyph unicode="&#x2011;" d="M164 498v86h573v-86h-573z" />
<glyph unicode="&#x2012;" d="M164 498v86h573v-86h-573z" />
<glyph unicode="&#x2013;" horiz-adv-x="1351" d="M164 500v82h1024v-82h-1024z" />
<glyph unicode="&#x2014;" horiz-adv-x="1638" d="M0 496v86h1638v-86h-1638z" />
<glyph unicode="&#x2018;" horiz-adv-x="460" d="M164 1022v127q0 96 20 164q20 65 54 121h59q-43 -71 -57 -119q-23 -71 -23 -137h41v-156h-94z" />
<glyph unicode="&#x2019;" horiz-adv-x="460" d="M164 1022q45 72 57 119q23 65 23 137h-41v156h94v-127q0 -93 -21 -164q-21 -69 -53 -121h-59z" />
<glyph unicode="&#x201a;" horiz-adv-x="446" d="M164 -256q35 67 49 119q21 76 18 137h-43v156h95v-127q0 -94 -17 -164q-13 -55 -45 -121h-57z" />
<glyph unicode="&#x201c;" horiz-adv-x="727" d="M164 1022v127q0 96 20 164q20 65 54 121h59q-45 -72 -57 -119q-23 -65 -23 -137h41v-156h-94zM430 1022v127q0 93 21 164q21 69 53 121h59q-43 -71 -57 -119q-23 -71 -23 -137h41v-156h-94z" />
<glyph unicode="&#x201d;" horiz-adv-x="727" d="M164 1022q43 71 57 119q23 71 23 137h-41v156h94v-127q0 -93 -21 -164q-21 -69 -53 -121h-59zM430 1022q45 72 57 119q23 65 23 137h-41v156h94v-127q0 -96 -20 -164q-20 -65 -54 -121h-59z" />
<glyph unicode="&#x201e;" horiz-adv-x="727" d="M164 -256q43 71 57 119q23 71 23 137h-41v156h94v-127q0 -93 -21 -164q-21 -69 -53 -121h-59zM430 -256q45 72 57 119q23 65 23 137h-41v156h94v-127q0 -96 -20 -164q-20 -65 -54 -121h-59z" />
<glyph unicode="&#x2022;" horiz-adv-x="614" d="M164 545q0 60 41.5 101.5t101.5 41.5t102 -41.5t42 -101.5t-42 -102t-102 -42t-101.5 42t-41.5 102z" />
<glyph unicode="&#x2026;" horiz-adv-x="1019" d="M164 0v156h94v-156h-94zM463 0v156h94v-156h-94zM762 0v156h94v-156h-94z" />
<glyph unicode="&#x202f;" horiz-adv-x="327" />
<glyph unicode="&#x2039;" horiz-adv-x="671" d="M164 465v94l344 465v-100l-295 -402v-20l295 -402v-100z" />
<glyph unicode="&#x203a;" horiz-adv-x="671" d="M164 0v100l295 402v20l-295 402v100l344 -465v-94z" />
<glyph unicode="&#x205f;" horiz-adv-x="409" />
<glyph unicode="&#x20ac;" horiz-adv-x="1060" d="M82 475l29 90h82q-10 107 -7 191h-104l29 90h79q5 110 39 224.5t90 197.5q135 202 375 198q125 -3 224 -65l-31 -92q-96 75 -209 71q-33 -1 -66.5 -9t-75.5 -27.5t-83 -60.5t-74 -99q-41 -72 -63 -164t-25 -174h461l-29 -90h-436q0 -132 4 -191h379l-29 -90h-338 q12 -118 64 -219q101 -195 297 -199q162 -4 274 131v-118q-118 -101 -268 -103q-245 -4 -377 223q-73 127 -90 285h-121z" />
<glyph unicode="&#x2122;" horiz-adv-x="1816" d="M61 1356v78h553v-78h-231v-639h-92v639h-230zM762 717v413q0 48 2 78.5t13 72t32 73.5q63 92 184 92q20 0 40.5 -3.5t57 -15.5t68 -45.5t49.5 -83.5q23 71 80.5 110.5t132.5 37.5q123 -2 187 -92q9 -13 16.5 -29t12 -28.5t8 -30.5t5 -29t2.5 -30.5t1 -26.5v-27v-23v-413 h-94v428q0 105 -25 151q-45 68 -127 68q-90 0 -127 -68q-6 -10 -10.5 -20.5t-7 -22.5t-4.5 -20t-2.5 -23t-0.5 -20.5v-23v-21.5v-428h-94v428q0 107 -24 151q-45 68 -127 68q-90 0 -127 -68q-6 -10 -10.5 -20.5t-7 -22.5t-4.5 -20t-2.5 -23t-0.5 -20.5v-23v-21.5v-428h-96z " />
<glyph unicode="&#x25fc;" horiz-adv-x="1024" d="M0 0v1024h1024v-1024h-1024z" />
</font>
</defs>
</svg>
